<svg width="60" height="60" xmlns="http://www.w3.org/2000/svg" viewBox="0 0 60 60">
  <path fill="#d66dac" d="M57 26h-4.354a22.833 22.833 0 0 0-1.027-3.863l3.762-2.173a2.006 2.006 0 0 0 .732-2.732l-2-3.464a2.006 2.006 0 0 0-2.732-.732l-3.77 2.177a23.142 23.142 0 0 0-2.826-2.825l2.177-3.77a2.006 2.006 0 0 0-.732-2.733l-3.463-2a2.006 2.006 0 0 0-2.732.732L37.863 8.38A22.843 22.843 0 0 0 34 7.354V3a2.006 2.006 0 0 0-2-2h-4a2.006 2.006 0 0 0-2 2v4.354a22.843 22.843 0 0 0-3.863 1.026l-2.173-3.763a2.006 2.006 0 0 0-2.732-.732l-3.464 2a2.006 2.006 0 0 0-.732 2.732l2.177 3.77a23.14 23.14 0 0 0-2.825 2.826l-3.77-2.177a2.006 2.006 0 0 0-2.733.732l-2 3.464a2.006 2.006 0 0 0 .732 2.732l3.763 2.173A22.833 22.833 0 0 0 7.354 26H3a2.006 2.006 0 0 0-2 2v4a2.006 2.006 0 0 0 2 2h4.354a22.833 22.833 0 0 0 1.026 3.863l-3.763 2.173a2.006 2.006 0 0 0-.732 2.732l2 3.464a2.006 2.006 0 0 0 2.732.732l3.77-2.177a23.14 23.14 0 0 0 2.826 2.825l-2.177 3.77a2.006 2.006 0 0 0 .732 2.733l3.464 2a2.006 2.006 0 0 0 2.732-.732l2.173-3.763A22.843 22.843 0 0 0 26 52.646V57a2.006 2.006 0 0 0 2 2h4a2.006 2.006 0 0 0 2-2v-4.354a22.843 22.843 0 0 0 3.863-1.027l2.173 3.762a2.006 2.006 0 0 0 2.732.732l3.464-2a2.006 2.006 0 0 0 .732-2.732l-2.177-3.77a23.142 23.142 0 0 0 2.825-2.826l3.77 2.177a2.006 2.006 0 0 0 2.733-.732l2-3.463a2.006 2.006 0 0 0-.732-2.732l-3.763-2.172A22.833 22.833 0 0 0 52.646 34H57a2.006 2.006 0 0 0 2-2v-4a2.006 2.006 0 0 0-2-2zM30 42a12 12 0 1 1 12-12 12 12 0 0 1-12 12z"/>
  <path opacity=".4" fill="#fff" d="M16.964 4.617l2.173 3.763a22.484 22.484 0 0 1 2.57-.743l-1.743-3.02a2.006 2.006 0 0 0-2.732-.732l-.58.335a1.96 1.96 0 0 1 .312.397zM9.388 15.213c.33-.392.684-.763 1.04-1.132l-1.81-1.044a2 2 0 0 0-2.42.335zM43.232 5.885a2.006 2.006 0 0 1 .732 2.732l-2.177 3.77a23.142 23.142 0 0 1 2.825 2.826l1.96-1.132a23.148 23.148 0 0 0-1.785-1.69l2.177-3.772a2.006 2.006 0 0 0-.732-2.732l-3.464-2a2 2 0 0 0-2.42.335zM18 30a12 12 0 0 1 10.5-11.9 12 12 0 1 0 0 23.793A12 12 0 0 1 18 30zM51.115 13.768l2 3.464a2.006 2.006 0 0 1-.732 2.732l-3.763 2.173A22.833 22.833 0 0 1 49.646 26h3a22.833 22.833 0 0 0-1.027-3.863l3.762-2.173a2.006 2.006 0 0 0 .732-2.732l-2-3.464a2.006 2.006 0 0 0-2.732-.732l-.58.335a1.968 1.968 0 0 1 .313.398zM31 3v4.354a22.843 22.843 0 0 1 3.863 1.026l.43-.743c-.43-.1-.856-.207-1.293-.284V3a2.006 2.006 0 0 0-2-2h-3a2.006 2.006 0 0 1 2 2zM55.383 40.036l-3.763-2.173A22.833 22.833 0 0 0 52.646 34h-3a22.833 22.833 0 0 1-1.027 3.863l3.762 2.173a2.006 2.006 0 0 1 .732 2.732l-2 3.464a1.968 1.968 0 0 1-.312.4l.58.335a2.006 2.006 0 0 0 2.732-.732l2-3.464a2.006 2.006 0 0 0-.73-2.734zM44.787 47.612a23.137 23.137 0 0 0 1.786-1.692l-1.96-1.132a23.142 23.142 0 0 1-2.826 2.825l2.177 3.77a2.006 2.006 0 0 1-.732 2.733l-2.884 1.664a2 2 0 0 0 2.42.335l3.464-2a2.006 2.006 0 0 0 .732-2.732zM57 26h-3a2.006 2.006 0 0 1 2 2v4a2.006 2.006 0 0 1-2 2h3a2.006 2.006 0 0 0 2-2v-4a2.006 2.006 0 0 0-2-2zM9.388 44.787L6.2 46.63a2 2 0 0 0 2.42.334l1.81-1.045c-.358-.37-.712-.74-1.042-1.133zM19.137 51.62l-2.173 3.763a1.96 1.96 0 0 1-.312.4l.58.335a2.006 2.006 0 0 0 2.732-.732l1.744-3.02a22.488 22.488 0 0 1-2.57-.746zM34.863 51.62A22.843 22.843 0 0 1 31 52.646V57a2.006 2.006 0 0 1-2 2h3a2.006 2.006 0 0 0 2-2v-4.354c.437-.077.864-.184 1.292-.284z"/>
  <path fill="#565a5c" d="M32 60h-4a3.013 3.013 0 0 1-3-3v-3.53a24.158 24.158 0 0 1-2.408-.64l-1.762 3.053a3.01 3.01 0 0 1-4.1 1.1l-3.466-2a3.014 3.014 0 0 1-1.1-4.1l1.767-3.06a24.245 24.245 0 0 1-1.76-1.762l-3.053 1.77a3.015 3.015 0 0 1-4.1-1.095l-2-3.468a3.014 3.014 0 0 1 1.1-4.1l3.053-1.764A24.023 24.023 0 0 1 6.528 35H3a3.013 3.013 0 0 1-3-3v-4a3.014 3.014 0 0 1 3-3h3.528a23.92 23.92 0 0 1 .64-2.408l-3.05-1.762a3.013 3.013 0 0 1-1.1-4.095l2-3.467a3.017 3.017 0 0 1 4.1-1.1l3.06 1.767a24.323 24.323 0 0 1 1.76-1.76L12.17 9.117a3.014 3.014 0 0 1 1.1-4.1l3.467-2a3.014 3.014 0 0 1 4.1 1.1L22.6 7.17a23.92 23.92 0 0 1 2.4-.642V3a3.014 3.014 0 0 1 3-3h4a3.013 3.013 0 0 1 3 3v3.53a24.023 24.023 0 0 1 2.408.64l1.76-3.05a3.012 3.012 0 0 1 4.096-1.1l3.468 2a3.015 3.015 0 0 1 1.1 4.1l-1.767 3.06a24.245 24.245 0 0 1 1.76 1.76l3.06-1.766a3.015 3.015 0 0 1 4.1 1.1l2 3.467a3.013 3.013 0 0 1-1.1 4.1l-3.054 1.764A23.826 23.826 0 0 1 53.473 25H57a3.012 3.012 0 0 1 3 3v4a3.01 3.01 0 0 1-3 3h-3.53a23.965 23.965 0 0 1-.64 2.408l3.05 1.76a3.014 3.014 0 0 1 1.1 4.096l-2 3.468a3.016 3.016 0 0 1-4.1 1.1l-3.06-1.767a24.154 24.154 0 0 1-1.762 1.76l1.766 3.06a3.015 3.015 0 0 1-1.095 4.1l-3.47 2a3.013 3.013 0 0 1-4.1-1.1l-1.763-3.055a23.826 23.826 0 0 1-2.397.642V57a3.01 3.01 0 0 1-3 3zm-9.866-9.38a1.008 1.008 0 0 1 .34.06 21.89 21.89 0 0 0 3.694.98 1 1 0 0 1 .83.986V57a1.007 1.007 0 0 0 1 1h4a1.006 1.006 0 0 0 1-1v-4.354a1 1 0 0 1 .827-.985 22.026 22.026 0 0 0 3.7-.98 1 1 0 0 1 1.206.44l2.17 3.762a1.008 1.008 0 0 0 1.368.365l3.462-2a1.01 1.01 0 0 0 .364-1.37l-2.176-3.767a1 1 0 0 1 .223-1.266 22.225 22.225 0 0 0 2.7-2.7 1 1 0 0 1 1.267-.223l3.776 2.18a1.008 1.008 0 0 0 1.368-.368l2-3.462a1.007 1.007 0 0 0-.37-1.37l-3.76-2.17a1 1 0 0 1-.44-1.206 22.018 22.018 0 0 0 .98-3.694 1 1 0 0 1 .986-.83H57a1.006 1.006 0 0 0 1-1v-4a1.007 1.007 0 0 0-1-1h-4.354a1 1 0 0 1-.985-.828 21.94 21.94 0 0 0-.98-3.694 1 1 0 0 1 .44-1.206L54.88 19.1a1.008 1.008 0 0 0 .365-1.37l-2-3.46a1.007 1.007 0 0 0-1.37-.364L48.11 16.08a1 1 0 0 1-1.266-.222 22.15 22.15 0 0 0-2.7-2.7 1 1 0 0 1-.223-1.266l2.18-3.775a1.008 1.008 0 0 0-.368-1.368l-3.462-2a1.008 1.008 0 0 0-1.37.37l-2.17 3.76a1 1 0 0 1-1.206.44 21.964 21.964 0 0 0-3.694-.98 1 1 0 0 1-.83-.986V3a1.007 1.007 0 0 0-1-1h-4a1.008 1.008 0 0 0-1 1v4.354a1 1 0 0 1-.83.985 21.86 21.86 0 0 0-3.693.98 1 1 0 0 1-1.206-.44L19.1 5.117a1.008 1.008 0 0 0-1.37-.365l-3.46 2a1.008 1.008 0 0 0-.37 1.368l2.175 3.77a1 1 0 0 1-.223 1.265 22.217 22.217 0 0 0-2.7 2.7 1 1 0 0 1-1.266.223L8.116 13.9a1.008 1.008 0 0 0-1.367.37l-2 3.46a1.007 1.007 0 0 0 .37 1.37l3.76 2.172a1 1 0 0 1 .44 1.206 21.86 21.86 0 0 0-.98 3.694 1 1 0 0 1-.986.828H3a1.008 1.008 0 0 0-1 1v4a1.007 1.007 0 0 0 1 1h4.354a1 1 0 0 1 .985.83 21.964 21.964 0 0 0 .98 3.693 1 1 0 0 1-.44 1.206L5.117 40.9a1.008 1.008 0 0 0-.365 1.368l2 3.462a1.01 1.01 0 0 0 1.368.37l3.77-2.176a1 1 0 0 1 1.265.223 22.15 22.15 0 0 0 2.7 2.7 1 1 0 0 1 .223 1.266l-2.178 3.77a1.008 1.008 0 0 0 .37 1.368l3.46 2a1 1 0 0 0 1.367-.367l2.172-3.76a1 1 0 0 1 .867-.503zM30 43a13 13 0 1 1 13-13 13.015 13.015 0 0 1-13 13zm0-24a11 11 0 1 0 11 11 11.012 11.012 0 0 0-11-11z"/>
</svg>
