<svg xmlns="http://www.w3.org/2000/svg" height="60" width="60" viewBox="0 0 60 60">
  <g class="cls-1" style="isolation:isolate;">
    <g>
      <path d="M57 26h-4.354a22.833 22.833 0 0 0-1.027-3.863l3.762-2.173a2.006 2.006 0 0 0 .732-2.732l-2-3.464a2.006 2.006 0 0 0-2.732-.732l-3.77 2.177a23.142 23.142 0 0 0-2.826-2.825l2.177-3.77a2.006 2.006 0 0 0-.732-2.733l-3.463-2a2.006 2.006 0 0 0-2.732.732L37.863 8.38A22.843 22.843 0 0 0 34 7.354V3a2.006 2.006 0 0 0-2-2h-4a2.006 2.006 0 0 0-2 2v4.354a22.843 22.843 0 0 0-3.863 1.026l-2.173-3.763a2.006 2.006 0 0 0-2.732-.732l-3.464 2a2.006 2.006 0 0 0-.732 2.732l2.177 3.77a23.14 23.14 0 0 0-2.825 2.826l-3.77-2.177a2.006 2.006 0 0 0-2.733.732l-2 3.464a2.006 2.006 0 0 0 .732 2.732l3.763 2.173A22.833 22.833 0 0 0 7.354 26H3a2.006 2.006 0 0 0-2 2v4a2.006 2.006 0 0 0 2 2h4.354a22.833 22.833 0 0 0 1.026 3.863l-3.763 2.173a2.006 2.006 0 0 0-.732 2.732l2 3.464a2.006 2.006 0 0 0 2.732.732l3.77-2.177a23.14 23.14 0 0 0 2.826 2.825l-2.177 3.77a2.006 2.006 0 0 0 .732 2.733l3.464 2a2.006 2.006 0 0 0 2.732-.732l2.173-3.763A22.843 22.843 0 0 0 26 52.646V57a2.006 2.006 0 0 0 2 2h4a2.006 2.006 0 0 0 2-2v-4.354a22.843 22.843 0 0 0 3.863-1.027l2.173 3.762a2.006 2.006 0 0 0 2.732.732l3.464-2a2.006 2.006 0 0 0 .732-2.732l-2.177-3.77a23.142 23.142 0 0 0 2.825-2.826l3.77 2.177a2.006 2.006 0 0 0 2.733-.732l2-3.463a2.006 2.006 0 0 0-.732-2.732l-3.763-2.172A22.833 22.833 0 0 0 52.646 34H57a2.006 2.006 0 0 0 2-2v-4a2.006 2.006 0 0 0-2-2zM30 42a12 12 0 1 1 12-12 12 12 0 0 1-12 12z" style="fill:#d66dac;"></path>
      <g style="opacity:0.4;mix-blend-mode:lighten;">
        <path d="M16.964 4.617l2.173 3.763a22.484 22.484 0 0 1 2.57-.743l-1.743-3.02a2.006 2.006 0 0 0-2.732-.732l-.58.335a1.96 1.96 0 0 1 .312.397zM9.388 15.213c.33-.392.684-.763 1.04-1.132l-1.81-1.044a2 2 0 0 0-2.42.335zM43.232 5.885a2.006 2.006 0 0 1 .732 2.732l-2.177 3.77a23.142 23.142 0 0 1 2.825 2.826l1.96-1.132a23.148 23.148 0 0 0-1.785-1.69l2.177-3.772a2.006 2.006 0 0 0-.732-2.732l-3.464-2a2 2 0 0 0-2.42.335zM18 30a12 12 0 0 1 10.5-11.9 12 12 0 1 0 0 23.793A12 12 0 0 1 18 30zM51.115 13.768l2 3.464a2.006 2.006 0 0 1-.732 2.732l-3.763 2.173A22.833 22.833 0 0 1 49.646 26h3a22.833 22.833 0 0 0-1.027-3.863l3.762-2.173a2.006 2.006 0 0 0 .732-2.732l-2-3.464a2.006 2.006 0 0 0-2.732-.732l-.58.335a1.968 1.968 0 0 1 .313.398zM31 3v4.354a22.843 22.843 0 0 1 3.863 1.026l.43-.743c-.43-.1-.856-.207-1.293-.284V3a2.006 2.006 0 0 0-2-2h-3a2.006 2.006 0 0 1 2 2zM55.383 40.036l-3.763-2.173A22.833 22.833 0 0 0 52.646 34h-3a22.833 22.833 0 0 1-1.027 3.863l3.762 2.173a2.006 2.006 0 0 1 .732 2.732l-2 3.464a1.968 1.968 0 0 1-.312.4l.58.335a2.006 2.006 0 0 0 2.732-.732l2-3.464a2.006 2.006 0 0 0-.73-2.734zM44.787 47.612a23.137 23.137 0 0 0 1.786-1.692l-1.96-1.132a23.142 23.142 0 0 1-2.826 2.825l2.177 3.77a2.006 2.006 0 0 1-.732 2.733l-2.884 1.664a2 2 0 0 0 2.42.335l3.464-2a2.006 2.006 0 0 0 .732-2.732zM57 26h-3a2.006 2.006 0 0 1 2 2v4a2.006 2.006 0 0 1-2 2h3a2.006 2.006 0 0 0 2-2v-4a2.006 2.006 0 0 0-2-2zM9.388 44.787L6.2 46.63a2 2 0 0 0 2.42.334l1.81-1.045c-.358-.37-.712-.74-1.042-1.133zM19.137 51.62l-2.173 3.763a1.96 1.96 0 0 1-.312.4l.58.335a2.006 2.006 0 0 0 2.732-.732l1.744-3.02a22.488 22.488 0 0 1-2.57-.746zM34.863 51.62A22.843 22.843 0 0 1 31 52.646V57a2.006 2.006 0 0 1-2 2h3a2.006 2.006 0 0 0 2-2v-4.354c.437-.077.864-.184 1.292-.284z" style="fill:#fff;"></path>
      </g>
      <path d="M57 26h-4.354a22.833 22.833 0 0 0-1.027-3.863l3.762-2.173a2.006 2.006 0 0 0 .732-2.732l-2-3.464a2.006 2.006 0 0 0-2.732-.732l-3.77 2.177a23.142 23.142 0 0 0-2.826-2.825l2.177-3.77a2.006 2.006 0 0 0-.732-2.733l-3.463-2a2.006 2.006 0 0 0-2.732.732L37.863 8.38A22.843 22.843 0 0 0 34 7.354V3a2.006 2.006 0 0 0-2-2h-4a2.006 2.006 0 0 0-2 2v4.354a22.843 22.843 0 0 0-3.863 1.026l-2.173-3.763a2.006 2.006 0 0 0-2.732-.732l-3.464 2a2.006 2.006 0 0 0-.732 2.732l2.177 3.77a23.14 23.14 0 0 0-2.825 2.826l-3.77-2.177a2.006 2.006 0 0 0-2.733.732l-2 3.464a2.006 2.006 0 0 0 .732 2.732l3.763 2.173A22.833 22.833 0 0 0 7.354 26H3a2.006 2.006 0 0 0-2 2v4a2.006 2.006 0 0 0 2 2h4.354a22.833 22.833 0 0 0 1.026 3.863l-3.763 2.173a2.006 2.006 0 0 0-.732 2.732l2 3.464a2.006 2.006 0 0 0 2.732.732l3.77-2.177a23.14 23.14 0 0 0 2.826 2.825l-2.177 3.77a2.006 2.006 0 0 0 .732 2.733l3.464 2a2.006 2.006 0 0 0 2.732-.732l2.173-3.763A22.843 22.843 0 0 0 26 52.646V57a2.006 2.006 0 0 0 2 2h4a2.006 2.006 0 0 0 2-2v-4.354a22.843 22.843 0 0 0 3.863-1.027l2.173 3.762a2.006 2.006 0 0 0 2.732.732l3.464-2a2.006 2.006 0 0 0 .732-2.732l-2.177-3.77a23.142 23.142 0 0 0 2.825-2.826l3.77 2.177a2.006 2.006 0 0 0 2.733-.732l2-3.463a2.006 2.006 0 0 0-.732-2.732l-3.763-2.172A22.833 22.833 0 0 0 52.646 34H57a2.006 2.006 0 0 0 2-2v-4a2.006 2.006 0 0 0-2-2zM30 42a12 12 0 1 1 12-12 12 12 0 0 1-12 12z" style="fill:none;stroke:#565a5c;stroke-linecap:round;stroke-linejoin:round;stroke-width:2px;"></path>
    </g>
  </g>
</svg>
