<svg xmlns="http://www.w3.org/2000/svg" height="60" width="60" viewBox="0 0 60 60">
  <g style="isolation:isolate;">
    <g>
      <path d="M50 34.48V12.5a3.5 3.5 0 0 0-7 0v-5a3.5 3.5 0 0 0-7 0v-3a3.5 3.5 0 0 0-7 0v4a3.5 3.5 0 0 0-7 0V32l-5.472-6.253a3.5 3.5 0 0 0-6.062 3.5l9.082 14a3.46 3.46 0 0 0 .423.583A16.446 16.446 0 0 0 50 34.55v-.07z" style="fill:#14c5db;"></path>
      <path d="M50 12.5A3.51 3.51 0 0 0 46.5 9a3.445 3.445 0 0 0-1.5.353 3.5 3.5 0 0 1 2 3.147v22.052a16.444 16.444 0 0 1-14.95 16.372c.5.045.994.076 1.5.076A16.45 16.45 0 0 0 50 34.55v-.07-.032z" style="opacity:0.4;mix-blend-mode:lighten;fill:#fff;"></path>
      <path d="M29 8.5v14M36 7.5v15M43 12.498V24.5" style="fill:none;stroke:#565a5c;stroke-linecap:round;stroke-linejoin:round;stroke-width:2px;"></path>
      <path d="M34.14 37.5h3a8.466 8.466 0 0 0-10-8.36 8.5 8.5 0 0 1 7 8.36z" style="opacity:0.4;mix-blend-mode:lighten;fill:#fff;"></path>
      <path d="M22 32a8.61 8.61 0 0 1 6.64-3 8.5 8.5 0 0 1 8.5 8.5" style="fill:none;stroke:#565a5c;stroke-linecap:round;stroke-linejoin:round;stroke-width:2px;"></path>
      <path d="M50 34.48V12.5a3.5 3.5 0 0 0-7 0v-5a3.5 3.5 0 0 0-7 0v-3a3.5 3.5 0 0 0-7 0v4a3.5 3.5 0 0 0-7 0V32l-5.472-6.253a3.5 3.5 0 0 0-6.062 3.5l9.082 14a3.46 3.46 0 0 0 .423.583A16.446 16.446 0 0 0 50 34.55v-.07z" style="fill:none;stroke:#565a5c;stroke-linecap:round;stroke-linejoin:round;stroke-width:2px;"></path>
      <path d="M19 47h30v12H19z" style="fill:#b497c4;"></path>
      <path d="M46 47h3v12h-3z" style="opacity:0.4;mix-blend-mode:lighten;fill:#fff;"></path>
      <path d="M19 47h30v12H19z" style="fill:none;stroke:#565a5c;stroke-linecap:round;stroke-linejoin:round;stroke-width:2px;"></path>
    </g>
  </g>
</svg>
