<svg width="60" height="60" xmlns="http://www.w3.org/2000/svg" viewBox="0 0 60 60">
  <path fill="#14c5db" d="M48 34.48V12.5a3.5 3.5 0 0 0-7 0v-5a3.5 3.5 0 0 0-7 0v-3a3.5 3.5 0 0 0-7 0v4a3.5 3.5 0 0 0-7 0V32l-5.472-6.253a3.5 3.5 0 0 0-6.062 3.5l9.082 14a3.46 3.46 0 0 0 .423.583A16.446 16.446 0 0 0 48 34.55z"/>
  <path opacity=".4" fill="#fff" d="M32.14 37.5h3a8.466 8.466 0 0 0-10-8.36 8.5 8.5 0 0 1 7 8.36z"/>
  <path fill="#565a5c" d="M20.27 32.96a.235.235 0 0 0 .08-.02l.06-.03a.783.783 0 0 1-.14.05zm0 0a.235.235 0 0 0 .08-.02l.06-.03a.783.783 0 0 1-.14.05z"/>
  <path fill="#b497c4" d="M17 47h30v12H17z"/>
  <path opacity=".4" fill="#fff" d="M44 47h3v12h-3z"/>
  <path fill="#565a5c" d="M49 12.5a4.5 4.5 0 0 0-7-3.74V7.5A4.507 4.507 0 0 0 37.5 3a4.39 4.39 0 0 0-2.55.8 4.5 4.5 0 0 0-8.95.7v.26a4.5 4.5 0 0 0-7 3.74v20.84l-3.66-4.18a4.5 4.5 0 0 0-7.71 4.63l9.05 13.96a5.908 5.908 0 0 0 .5.7A16.527 16.527 0 0 0 18.39 46H17a1 1 0 0 0-1 1v12a1 1 0 0 0 1 1h30a1 1 0 0 0 1-1V47a1 1 0 0 0-1-1h-2.28A17.44 17.44 0 0 0 49 34.55zM46 48v10H18V48zm1-13.45A15.385 15.385 0 0 1 41.91 46H21.18a15.2 15.2 0 0 1-2.38-2.73 1.062 1.062 0 0 0-.09-.11 2.28 2.28 0 0 1-.32-.46L9.33 28.75a2.5 2.5 0 0 1 4.34-2.5.57.57 0 0 0 .11.16l5.42 6.19.05.06.12.12a.566.566 0 0 0 .13.08.673.673 0 0 0 .23.1.3.3 0 0 0 .1.02.825.825 0 0 0 .35 0 .294.294 0 0 0 .09-.02.783.783 0 0 0 .14-.05.875.875 0 0 0 .21-.12.928.928 0 0 0 .14-.14 7.61 7.61 0 0 1 13.38 4.85 1 1 0 0 0 2 0 9.506 9.506 0 0 0-9.49-9.5h-.12A9.5 9.5 0 0 0 21 29.76V8.5a2.5 2.5 0 0 1 5 0v14a1 1 0 0 0 2 0v-18a2.5 2.5 0 0 1 5 0v18a1 1 0 0 0 2 0v-15a2.5 2.5 0 0 1 5 0v17a1 1 0 0 0 2 0v-12a2.5 2.5 0 0 1 5 0z"/>
</svg>
