<svg width="60" height="60" xmlns="http://www.w3.org/2000/svg" viewBox="0 0 60 60">
  <path fill="#e5d64f" d="M19.404 13.777L5.62 51.647l13.315-5.16L25.818 59l13.785-37.87-20.2-7.353"/>
  <path fill="#fff" opacity=".4" d="M19.404 13.777l-.35.964 17.55 6.388-12.59 34.59L25.817 59l13.785-37.872-20.2-7.35"/>
  <path fill="#565a5c" d="M40.51 20.71a1.006 1.006 0 0 0-.57-.52l-7.02-2.55L30 16.57l-2.92 1.07L30 18.7l8.32 3.03L30 44.59l1.06 2.92 9.48-26.04a1 1 0 0 0-.03-.76z"/>
  <path fill="#feed58" d="M40.596 13.777l13.784 37.87-13.315-5.16L34.182 59 20.398 21.13l20.198-7.353"/>
  <path fill="#fff" opacity=".4" d="M50.887 50.295l3.493 1.353-9.855-28.22-1.367 5.633 7.73 21.235M38.064 46.488l-5.077 9.23L34.182 59l6.356-11.554-2.474-.958"/>
  <path fill="#565a5c" d="M30 16.57l-2.92 1.07L30 18.7l2.92-1.06z"/>
  <path fill="#565a5c" d="M55.08 52.36a.994.994 0 0 1-1.06.22l-12.5-4.84-6.46 11.74a1.018 1.018 0 0 1-.88.52h-.08a1.008 1.008 0 0 1-.86-.66L30 50.44l-3.24 8.9a1.01 1.01 0 0 1-.87.66h-.07a1.018 1.018 0 0 1-.88-.52l-6.46-11.74-12.5 4.84a1 1 0 0 1-1.3-1.27l13.78-37.87a1 1 0 0 1 .52-.57 1.026 1.026 0 0 1 .77-.03L30 16.57l-2.92 1.07L20 15.06 7.31 49.92l11.26-4.36a.922.922 0 0 1 .36-.07 1 1 0 0 1 .88.52l5.82 10.58 3.31-9.08-9.48-26.04a1 1 0 0 1 .6-1.28l7.02-2.55L30 18.7l-8.32 3.03L30 44.59l1.06 2.92 3.31 9.08 5.82-10.58a1 1 0 0 1 1.24-.45l11.26 4.36L40 15.06l-7.08 2.58L30 16.57l10.25-3.73a1.026 1.026 0 0 1 .77.03 1.04 1.04 0 0 1 .52.57l13.78 37.87a1 1 0 0 1-.24 1.05z"/>
  <path opacity=".1" d="M47.265 21.464a6.706 6.706 0 0 0-3.425-5.815 6.648 6.648 0 0 0-8.224-8.224A6.706 6.706 0 0 0 29.8 4a6.706 6.706 0 0 0-5.815 3.426 6.7 6.7 0 0 0-6.534 1.69 6.706 6.706 0 0 0-1.69 6.533 6.65 6.65 0 0 0 0 11.63 6.706 6.706 0 0 0 1.69 6.533 6.7 6.7 0 0 0 6.536 1.687 6.707 6.707 0 0 0 5.814 3.428 6.707 6.707 0 0 0 5.816-3.428 6.648 6.648 0 0 0 8.224-8.223 6.706 6.706 0 0 0 3.425-5.813z"/>
  <path fill="#86509e" d="M47.265 18.464a6.706 6.706 0 0 0-3.425-5.815 6.648 6.648 0 0 0-8.224-8.224A6.706 6.706 0 0 0 29.8 1a6.706 6.706 0 0 0-5.815 3.426 6.7 6.7 0 0 0-6.534 1.69 6.706 6.706 0 0 0-1.69 6.533 6.65 6.65 0 0 0 0 11.63 6.706 6.706 0 0 0 1.69 6.533 6.7 6.7 0 0 0 6.536 1.687 6.707 6.707 0 0 0 5.814 3.428 6.707 6.707 0 0 0 5.816-3.428 6.648 6.648 0 0 0 8.224-8.223 6.706 6.706 0 0 0 3.425-5.813z"/>
  <path fill="#fff" opacity=".4" d="M32.616 4.426a6.866 6.866 0 0 1 2.9-.146A6.69 6.69 0 0 0 29.8 1a6.548 6.548 0 0 0-1.5.187 6.76 6.76 0 0 1 4.316 3.24zM32.616 32.5a6.762 6.762 0 0 1-4.316 3.242 6.548 6.548 0 0 0 1.5.187 6.69 6.69 0 0 0 5.72-3.28 6.878 6.878 0 0 1-2.904-.15zM47.265 18.464a6.706 6.706 0 0 0-3.425-5.815 6.63 6.63 0 0 0-7.89-8.293 6.558 6.558 0 0 1 3.2 1.76 6.706 6.706 0 0 1 1.69 6.533 6.65 6.65 0 0 1 0 11.63 6.706 6.706 0 0 1-1.69 6.534 6.568 6.568 0 0 1-3.2 1.76 6.63 6.63 0 0 0 7.89-8.294 6.706 6.706 0 0 0 3.425-5.816z"/>
  <circle fill="#d3e057" cx="29.801" cy="18.464" r="6.717"/>
  <path class="cls-10" d="M29.8 11.747a6.718 6.718 0 0 0-1.5.174 6.71 6.71 0 0 1 0 13.087 6.715 6.715 0 1 0 1.5-13.26z"/>
  <circle fill="#feed58" cx="29.801" cy="18.464" r="6.717"/>
  <path fill="#565a5c" d="M29.8 26.18a7.717 7.717 0 1 1 7.717-7.716A7.726 7.726 0 0 1 29.8 26.18zm0-13.433a5.717 5.717 0 1 0 5.717 5.717 5.723 5.723 0 0 0-5.717-5.717z"/>
  <path fill="#565a5c" d="M29.805 36.928a7.73 7.73 0 0 1-6.288-3.3 7.638 7.638 0 0 1-8.888-8.88 7.65 7.65 0 0 1 0-12.575 7.64 7.64 0 0 1 8.886-8.882 7.642 7.642 0 0 1 12.567 0 7.65 7.65 0 0 1 8.893 8.893 7.718 7.718 0 0 1 3.29 6.276v.01a7.723 7.723 0 0 1-3.29 6.273 7.648 7.648 0 0 1-8.893 8.89 7.726 7.726 0 0 1-6.278 3.295zm-5.82-5.428a1 1 0 0 1 .873.51 5.647 5.647 0 0 0 9.886 0 1 1 0 0 1 1.147-.47 5.648 5.648 0 0 0 6.988-6.987 1 1 0 0 1 .472-1.148 5.647 5.647 0 0 0 0-9.884 1 1 0 0 1-.472-1.147 5.648 5.648 0 0 0-6.987-6.986 1 1 0 0 1-1.146-.472 5.65 5.65 0 0 0-9.887 0 1 1 0 0 1-1.144.473 5.65 5.65 0 0 0-6.99 6.99 1 1 0 0 1-.478 1.146 5.65 5.65 0 0 0 0 9.88 1 1 0 0 1 .478 1.147 5.646 5.646 0 0 0 6.99 6.988 1 1 0 0 1 .273-.038z"/>
</svg>
