<svg width="60" height="60" xmlns="http://www.w3.org/2000/svg" viewBox="0 0 60 60">
  <circle fill="#9ac965" cx="12" cy="56" r="3"/>
  <path fill="#565a5c" d="M12 60a4 4 0 1 1 4-4 4 4 0 0 1-4 4zm0-6a2 2 0 1 0 2 2 2 2 0 0 0-2-2z"/>
  <circle fill="#9ac965" cx="19" cy="48" r="4"/>
  <path fill="#565a5c" d="M20 53a5 5 0 1 1 5-5 5.006 5.006 0 0 1-5 5zm0-8a3 3 0 1 0 3 3 3 3 0 0 0-3-3z"/>
  <path fill="#9ac965" d="M53.723 21.186a5 5 0 0 0-4.686-8.786 19.97 19.97 0 0 0-34.8-2.29A15 15 0 1 0 21.9 38.793a19.925 19.925 0 0 0 20.456-1.337 10 10 0 1 0 11.37-16.27z"/>
  <path opacity=".4" fill="#fff" d="M18.9 38.793a14.94 14.94 0 0 1-4.41 1.13A15.126 15.126 0 0 0 16 40a14.944 14.944 0 0 0 4.187-.608c-.437-.186-.87-.383-1.287-.6zM46.037 12.4a4.79 4.79 0 0 1 2.836-.314A19.97 19.97 0 0 0 31 1c-.5 0-.99.023-1.478.06A20 20 0 0 1 46.037 12.4zM53.723 21.186A5 5 0 0 0 51 12a4.917 4.917 0 0 0-1.5.255 4.975 4.975 0 0 1 1.22 8.93 9.992 9.992 0 0 1-3.22 18.69 9.994 9.994 0 0 0 6.227-18.69z"/>
  <path fill="#565a5c" d="M31.018 42.006a20.9 20.9 0 0 1-9.158-2.115 16 16 0 1 1-8.2-30.71 20.972 20.972 0 0 1 35.89 2 6 6 0 0 1 5.862 9.873 10.815 10.815 0 0 1 .92.735A11 11 0 0 1 42.292 38.7a20.9 20.9 0 0 1-11.274 3.306zM21.9 37.793a1.006 1.006 0 0 1 .458.11 18.892 18.892 0 0 0 19.43-1.27 1 1 0 0 1 1.235.076 8.995 8.995 0 1 0 10.26-14.627 1 1 0 0 1-.11-1.732 4 4 0 0 0-3.748-7.028 1 1 0 0 1-1.29-.493 18.97 18.97 0 0 0-33.06-2.176 1 1 0 0 1-.722.45 14 14 0 1 0 7.152 26.77 1.01 1.01 0 0 1 .395-.08z"/>
  <path fill="#565a5c" d="M40 26H20a1 1 0 0 1 0-2h20a1 1 0 0 1 0 2zM40 22H20a1 1 0 0 1 0-2h20a1 1 0 0 1 0 2zM40 18H20a1 1 0 0 1 0-2h20a1 1 0 0 1 0 2zM35 30H20a1 1 0 0 1 0-2h15a1 1 0 0 1 0 2z"/>
</svg>
