<svg width="60" height="60" xmlns="http://www.w3.org/2000/svg" viewBox="0 0 60 60">
  <rect fill="#9ac965" x="1" y="11" width="58" height="38" rx="6" ry="6"/>
  <path opacity=".4" fill="#fff" d="M53 11h-3a6 6 0 0 1 6 6v26a6 6 0 0 1-6 6h3a6 6 0 0 0 6-6V17a6 6 0 0 0-6-6z"/>
  <path fill="#565a5c" d="M53 50H7a7.008 7.008 0 0 1-7-7V17a7.008 7.008 0 0 1 7-7h46a7.008 7.008 0 0 1 7 7v26a7.008 7.008 0 0 1-7 7zM7 12a5.006 5.006 0 0 0-5 5v26a5.006 5.006 0 0 0 5 5h46a5.006 5.006 0 0 0 5-5V17a5.006 5.006 0 0 0-5-5z"/>
  <path fill="#f08fbb" d="M24 40l8-5 8-5-8-5-8-5v20"/>
  <path opacity=".4" fill="#fff" d="M32 25l-8-5v3.75L26 25l8 5-8 5-2 1.25V40l8-5 8-5-8-5"/>
  <path fill="#565a5c" d="M24 41a1 1 0 0 1-1-1V20a1 1 0 0 1 1.53-.848l16 10a1 1 0 0 1 0 1.7l-16 10A1 1 0 0 1 24 41zm1-19.2v16.4L38.113 30z"/>
</svg>
