<svg width="60" height="60" xmlns="http://www.w3.org/2000/svg" viewBox="0 0 60 60">
  <path fill="#d66dac" d="M44.13 32.552a1 1 0 0 1 .623.218l7.385 5.882-1.188-8.344a1 1 0 0 1 .415-.96C55.582 26.385 58 22.085 58 17.553 58 8.977 49.477 2 39 2S20 8.977 20 17.552 28.523 33.1 39 33.1h.013a23.015 23.015 0 0 0 4.9-.528 1 1 0 0 1 .217-.02z"/>
  <path fill="#565a5c" d="M50 13H28a1 1 0 0 1 0-2h22a1 1 0 0 1 0 2zM50 17H28a1 1 0 0 1 0-2h22a1 1 0 0 1 0 2zM50 21H28a1 1 0 0 1 0-2h22a1 1 0 0 1 0 2z"/>
  <path fill="#565a5c" d="M6.517 60a1 1 0 0 1-.99-1.14L6.984 48.62A16.407 16.407 0 0 1 0 35.552C0 25.874 9.42 18 21 18s21 7.874 21 17.552S32.58 53.1 21 53.1h-.014a24.978 24.978 0 0 1-4.86-.478l-8.986 7.16a1 1 0 0 1-.623.218zM21 20C10.523 20 2 26.977 2 35.552c0 4.532 2.418 8.832 6.634 11.8a1 1 0 0 1 .415.96l-1.19 8.34 7.386-5.883a1 1 0 0 1 .836-.195A22.147 22.147 0 0 0 21 51.1c10.477 0 19-6.977 19-15.552S31.477 20 21 20z"/>
  <path fill="#565a5c" d="M53.482 42a1 1 0 0 1-.623-.218l-8.986-7.155a25.042 25.042 0 0 1-4.86.477H39c-11.58 0-21-7.874-21-17.552S27.42 0 39 0s21 7.874 21 17.552a16.408 16.408 0 0 1-6.984 13.07l1.457 10.238a1 1 0 0 1-.99 1.14zm-9.352-9.448a1 1 0 0 1 .623.218l7.385 5.882-1.188-8.344a1 1 0 0 1 .415-.96C55.582 26.385 58 22.085 58 17.553 58 8.977 49.477 2 39 2S20 8.977 20 17.552 28.523 33.1 39 33.1h.013a23.015 23.015 0 0 0 4.9-.528 1 1 0 0 1 .217-.02z"/>
  <path fill="#b497c4" d="M21 20C10.523 20 2 26.977 2 35.552c0 4.532 2.418 8.832 6.635 11.8a1 1 0 0 1 .415.96l-1.188 8.34 7.385-5.883a1 1 0 0 1 .837-.195 23.013 23.013 0 0 0 4.9.528H21c10.478 0 19-6.977 19-15.552S31.477 20 21 20z"/>
  <path fill="#d66dac" d="M33 33a3 3 0 0 1 3 3 3 3 0 0 1-3 3 3 3 0 0 1-3-3 3 3 0 0 1 3-3zM9 33a3 3 0 0 1 3 3 3 3 0 0 1-3 3 3 3 0 0 1-3-3 3 3 0 0 1 3-3zM21 33a3 3 0 0 1 3 3 3 3 0 0 1-3 3 3 3 0 0 1-3-3 3 3 0 0 1 3-3z"/>
  <path opacity=".1" d="M21 16c-.306 0-.6.028-.906.038A12.84 12.84 0 0 0 20 17.552c0 .165.024.325.03.488.324-.012.643-.04.97-.04 10.513 0 19.22 6.5 20.735 14.937l.226-.03C41.55 23.53 32.32 16 21 16z"/>
  <path opacity=".4" fill="#fff" d="M21 20c-.338 0-.667.027-1 .04 10.01.43 18 7.212 18 15.51 0 8.36-8.105 15.18-18.22 15.52q.6.032 1.2.032H21c10.478 0 19-6.977 19-15.552S31.477 20 21 20zM39 2c-.338 0-.667.027-1 .04 10.01.43 18 7.212 18 15.51 0 4.533-2.418 8.833-6.635 11.8a1 1 0 0 0-.415.96l.932 6.547 2.256 1.8-1.188-8.35a1 1 0 0 1 .415-.958C55.582 26.383 58 22.083 58 17.55 58 8.977 49.477 2 39 2z"/>
  <path opacity=".4" fill="#fff" d="M21 33a2.956 2.956 0 0 0-1.5.42 2.97 2.97 0 0 1 0 5.16A2.956 2.956 0 0 0 21 39a3 3 0 0 0 0-6zM33 33a2.956 2.956 0 0 0-1.5.42 2.97 2.97 0 0 1 0 5.16A2.956 2.956 0 0 0 33 39a3 3 0 0 0 0-6zM9 33a2.956 2.956 0 0 0-1.5.42 2.97 2.97 0 0 1 0 5.16A2.956 2.956 0 0 0 9 39a3 3 0 0 0 0-6z"/>
  <path fill="#565a5c" d="M9 40a4 4 0 1 1 4-4 4 4 0 0 1-4 4zm0-6a2 2 0 1 0 2 2 2 2 0 0 0-2-2zM33 40a4 4 0 1 1 4-4 4 4 0 0 1-4 4zm0-6a2 2 0 1 0 2 2 2 2 0 0 0-2-2zM21 40a4 4 0 1 1 4-4 4 4 0 0 1-4 4zm0-6a2 2 0 1 0 2 2 2 2 0 0 0-2-2z"/>
</svg>
