<svg xmlns="http://www.w3.org/2000/svg" height="60" width="60" viewBox="0 0 60 60">
  <g style="isolation:isolate;">
    <g>
      <path d="M30 1C13.984 1 1 11.745 1 25c0 7.33 3.976 13.89 10.236 18.292L9 59l13.56-10.8A34.768 34.768 0 0 0 30 49c16.016 0 29-10.745 29-24S46.016 1 30 1z" style="fill:#fd9727;"></path>
      <path d="M30 1q-.755 0-1.5.032C43.82 1.678 56 12.162 56 25c0 12.81-12.128 23.274-27.4 23.962.465.02.93.038 1.4.038 16.016 0 29-10.745 29-24S46.016 1 30 1z" style="opacity:0.4;mix-blend-mode:lighten;fill:#fff;"></path>
      <path d="M30 1C13.984 1 1 11.745 1 25c0 7.33 3.976 13.89 10.236 18.292L9 59l13.56-10.8A34.768 34.768 0 0 0 30 49c16.016 0 29-10.745 29-24S46.016 1 30 1z" style="fill:none;stroke:#565a5c;stroke-linecap:round;stroke-linejoin:round;stroke-width:2px;"></path>
      <rect x="27" y="23" width="6" height="6" rx="3" ry="3" style="fill:#fcc02d;"></rect>
      <path d="M30 23a2.956 2.956 0 0 0-1.5.42 2.97 2.97 0 0 1 0 5.16A2.956 2.956 0 0 0 30 29a3 3 0 0 0 0-6z" style="opacity:0.4;mix-blend-mode:lighten;fill:#fff;"></path>
      <rect x="27" y="23" width="6" height="6" rx="3" ry="3" style="fill:none;stroke:#565a5c;stroke-linecap:round;stroke-linejoin:round;stroke-width:2px;"></rect>
      <rect x="39" y="23" width="6" height="6" rx="3" ry="3" style="fill:#fcc02d;"></rect>
      <path d="M42 23a2.956 2.956 0 0 0-1.5.42 2.97 2.97 0 0 1 0 5.16A2.956 2.956 0 0 0 42 29a3 3 0 0 0 0-6z" style="opacity:0.4;mix-blend-mode:lighten;fill:#fff;"></path>
      <rect x="39" y="23" width="6" height="6" rx="3" ry="3" style="fill:none;stroke:#565a5c;stroke-linecap:round;stroke-linejoin:round;stroke-width:2px;"></rect>
      <rect x="15" y="23" width="6" height="6" rx="3" ry="3" style="fill:#fcc02d;"></rect>
      <path d="M18 23a2.956 2.956 0 0 0-1.5.42 2.97 2.97 0 0 1 0 5.16A2.956 2.956 0 0 0 18 29a3 3 0 0 0 0-6z" style="opacity:0.4;mix-blend-mode:lighten;fill:#fff;"></path>
      <rect x="15" y="23" width="6" height="6" rx="3" ry="3" style="fill:none;stroke:#565a5c;stroke-linecap:round;stroke-linejoin:round;stroke-width:2px;"></rect>
    </g>
  </g>
</svg>
