<svg xmlns="http://www.w3.org/2000/svg" height="60" width="60" viewBox="0 0 60 60">
  <g style="isolation:isolate;">
    <g>
      <path d="M7 1h46v58H7z" style="fill:#feed58;"></path>
      <path d="M50 1h3v58h-3z" style="fill:#fff;opacity:0.4;mix-blend-mode:lighten;"></path>
      <path d="M32 12h15M32 16h8M32 28h15M32 32h9M32 44h15M32 48h6" style="fill:none;stroke:#565a5c;stroke-linecap:round;stroke-linejoin:round;stroke-width:2px;"></path>
      <path d="M18 19a1.986 1.986 0 0 1-1.414-.586l-3-3a2 2 0 1 1 2.828-2.828L18 14.172l4.586-4.586a2 2 0 1 1 2.828 2.828l-6 6A1.986 1.986 0 0 1 18 19z" style="fill:#d66dac;"></path>
      <path d="M24 10a1 1 0 0 1 .707 1.707l-6 6a1 1 0 0 1-1.414 0l-3-3a1 1 0 1 1 1.414-1.414L18 15.586l5.293-5.293A1 1 0 0 1 24 10m0-2a2.98 2.98 0 0 0-2.12.88L18 12.757l-.88-.88a3 3 0 1 0-4.24 4.243l3 3a3 3 0 0 0 4.24 0l6-6A3 3 0 0 0 24 8z" style="fill:#565a5c;"></path>
      <path d="M18 35a1.986 1.986 0 0 1-1.414-.586l-3-3a2 2 0 1 1 2.828-2.828L18 30.172l4.586-4.586a2 2 0 1 1 2.828 2.828l-6 6A1.986 1.986 0 0 1 18 35z" style="fill:#d66dac;"></path>
      <path d="M24 26a1 1 0 0 1 .707 1.707l-6 6a1 1 0 0 1-1.414 0l-3-3a1 1 0 1 1 1.414-1.414L18 31.586l5.293-5.293A1 1 0 0 1 24 26m0-2a2.98 2.98 0 0 0-2.12.88L18 28.757l-.88-.88a3 3 0 1 0-4.24 4.243l3 3a3 3 0 0 0 4.24 0l6-6A3 3 0 0 0 24 24z" style="fill:#565a5c;"></path>
      <path d="M18 51a1.986 1.986 0 0 1-1.414-.586l-3-3a2 2 0 1 1 2.828-2.828L18 46.172l4.586-4.586a2 2 0 1 1 2.828 2.828l-6 6A1.986 1.986 0 0 1 18 51z" style="fill:#d66dac;"></path>
      <path d="M24 42a1 1 0 0 1 .707 1.707l-6 6a1 1 0 0 1-1.414 0l-3-3a1 1 0 1 1 1.414-1.414L18 47.586l5.293-5.293A1 1 0 0 1 24 42m0-2a2.98 2.98 0 0 0-2.12.88L18 44.757l-.88-.88a3 3 0 1 0-4.24 4.243l3 3a3 3 0 0 0 4.24 0l6-6A3 3 0 0 0 24 40z" style="fill:#565a5c;"></path>
      <path d="M7 1h46v58H7z" style="fill:none;stroke:#565a5c;stroke-linecap:round;stroke-linejoin:round;stroke-width:2px;"></path>
    </g>
  </g>
</svg>
