<svg width="60" height="60" xmlns="http://www.w3.org/2000/svg" viewBox="0 0 60 60">
  <path fill="#feed58" d="M7 1h46v58H7z"/>
  <path opacity=".4" fill="#fff" d="M50 1h3v58h-3z"/>
  <path fill="#565a5c" d="M47 13H32a1 1 0 0 1 0-2h15a1 1 0 0 1 0 2zM40 17h-8a1 1 0 0 1 0-2h8a1 1 0 0 1 0 2zM47 29H32a1 1 0 0 1 0-2h15a1 1 0 0 1 0 2zM41 33h-9a1 1 0 0 1 0-2h9a1 1 0 0 1 0 2zM47 45H32a1 1 0 0 1 0-2h15a1 1 0 0 1 0 2zM38 49h-6a1 1 0 0 1 0-2h6a1 1 0 0 1 0 2z"/>
  <path fill="#d66dac" d="M18 19a1.986 1.986 0 0 1-1.414-.586l-3-3a2 2 0 0 1 2.78-2.877l.048.05L18 14.17l4.586-4.586a2 2 0 0 1 2.877 2.78l-.05.048-6 6A1.986 1.986 0 0 1 18 19z"/>
  <path fill="#565a5c" d="M24 10a1 1 0 0 1 .707 1.707l-6 6a1 1 0 0 1-1.414 0l-3-3a1 1 0 1 1 1.39-1.44l.024.026L18 15.586l5.293-5.293A1 1 0 0 1 24 10m0-2a2.98 2.98 0 0 0-2.12.88L18 12.757l-.88-.88a3 3 0 1 0-4.315 4.17l.074.073 3 3a3 3 0 0 0 4.24 0l6-6A3 3 0 0 0 24 8z"/>
  <path fill="#d66dac" d="M18 35a1.986 1.986 0 0 1-1.414-.586l-3-3a2 2 0 1 1 2.78-2.877l.048.05L18 30.17l4.586-4.586a2 2 0 0 1 2.877 2.78l-.05.048-6 6A1.986 1.986 0 0 1 18 35z"/>
  <path fill="#565a5c" d="M24 26a1 1 0 0 1 .707 1.707l-6 6a1 1 0 0 1-1.414 0l-3-3a1 1 0 1 1 1.39-1.44l.024.026L18 31.586l5.293-5.293A1 1 0 0 1 24 26m0-2a2.98 2.98 0 0 0-2.12.88L18 28.757l-.88-.88a3 3 0 1 0-4.315 4.17l.074.073 3 3a3 3 0 0 0 4.24 0l6-6A3 3 0 0 0 24 24z"/>
  <path fill="#d66dac" d="M18 51a1.986 1.986 0 0 1-1.414-.586l-3-3a2 2 0 0 1 2.78-2.877l.048.05L18 46.17l4.586-4.586a2 2 0 0 1 2.877 2.78l-.05.048-6 6A1.986 1.986 0 0 1 18 51z"/>
  <path fill="#565a5c" d="M24 42a1 1 0 0 1 .707 1.707l-6 6a1 1 0 0 1-1.414 0l-3-3a1 1 0 0 1 1.39-1.44l.024.026L18 47.586l5.293-5.293A1 1 0 0 1 24 42m0-2a2.98 2.98 0 0 0-2.12.88L18 44.757l-.88-.88a3 3 0 0 0-4.315 4.17l.074.073 3 3a3 3 0 0 0 4.24 0l6-6A3 3 0 0 0 24 40z"/>
  <path fill="#565a5c" d="M53 60H7a1 1 0 0 1-1-1V1a1 1 0 0 1 1-1h46a1 1 0 0 1 1 1v58a1 1 0 0 1-1 1zM8 58h44V2H8z"/>
</svg>
