<svg width="60" height="60" xmlns="http://www.w3.org/2000/svg" viewBox="0 0 60 60">
  <path fill="#d66dac" d="M1 1h43v50H1z"/>
  <path opacity=".4" fill="#fff" d="M41 1h3v50h-3z"/>
  <path fill="#565a5c" d="M44 52H1a1 1 0 0 1-1-1V1a1 1 0 0 1 1-1h43a1 1 0 0 1 1 1v50a1 1 0 0 1-1 1zM2 50h41V2H2z"/>
  <path opacity=".1" d="M28.87 50H43V26.05a10.49 10.49 0 0 0-7 17.236A19.22 19.22 0 0 0 28.87 50z"/>
  <path fill="#70d070" d="M59 59a15.044 15.044 0 0 0-15-15 15.044 15.044 0 0 0-15 15z"/>
  <path opacity=".4" fill="#fff" d="M44 44c-.506 0-1.006.027-1.5.076A15.052 15.052 0 0 1 56 59h3a15.044 15.044 0 0 0-15-15z"/>
  <path fill="#565a5c" d="M31 39H19a1 1 0 0 1 0-2h12a1 1 0 0 1 0 2z"/>
  <circle fill="#70d070" cx="44" cy="36.5" r="7.5"/>
  <path opacity=".4" fill="#fff" d="M44 29a7.554 7.554 0 0 0-1.5.15 7.5 7.5 0 0 1 0 14.7A7.5 7.5 0 1 0 44 29z"/>
  <path fill="#565a5c" d="M16.71 10.71l-6 6a1.014 1.014 0 0 1-1.42 0l-3-3a1 1 0 0 1 1.42-1.42L10 14.58l5.29-5.29a1 1 0 0 1 1.42 1.42zM16.71 22.71l-6 6a1.014 1.014 0 0 1-1.42 0l-3-3a1 1 0 0 1 1.42-1.42L10 26.58l5.29-5.29a1 1 0 0 1 1.42 1.42zM16.71 34.71l-6 6a1.014 1.014 0 0 1-1.42 0l-3-3a1 1 0 0 1 1.42-1.42L10 38.58l5.29-5.29a1 1 0 0 1 1.42 1.42zM38 15H19a1 1 0 0 1 0-2h19a1 1 0 0 1 0 2zM36 27H19a1 1 0 0 1 0-2h17a1 1 0 0 1 0 2zM48.54 43.68a8.5 8.5 0 1 0-9.08 0A16.078 16.078 0 0 0 28 59a1.007 1.007 0 0 0 .29.71A1.033 1.033 0 0 0 29 60h30a1.033 1.033 0 0 0 .71-.29A1.007 1.007 0 0 0 60 59a16.078 16.078 0 0 0-11.46-15.32zM37.5 36.5A6.5 6.5 0 1 1 44 43a6.513 6.513 0 0 1-6.5-6.5zM30.04 58a14 14 0 0 1 27.92 0z"/>
</svg>
