<svg xmlns="http://www.w3.org/2000/svg" height="60" width="60" viewBox="0 0 60 60">
  <g style="isolation:isolate;">
    <g>
      <path d="M1 1h43v50H1z" style="fill:#d66dac;"></path>
      <path d="M41 1h3v50h-3z" style="fill:#fff;opacity:0.4;mix-blend-mode:lighten;"></path>
      <path d="M1 1h43v50H1z" style="fill:none;stroke:#565a5c;stroke-width:2px;stroke-linecap:round;stroke-linejoin:round;"></path>
      <path d="M28.87 50H43V26.05a10.49 10.49 0 0 0-7 17.236A19.22 19.22 0 0 0 28.87 50z" style="opacity:0.1;mix-blend-mode:multiply;"></path>
      <path d="M59 59a15.044 15.044 0 0 0-15-15 15.044 15.044 0 0 0-15 15z" style="fill:#70d070;"></path>
      <path d="M44 44c-.506 0-1.006.027-1.5.076A15.052 15.052 0 0 1 56 59h3a15.044 15.044 0 0 0-15-15z" style="fill:#fff;opacity:0.4;mix-blend-mode:lighten;"></path>
      <path d="M19 38h12M59 59a15.044 15.044 0 0 0-15-15 15.044 15.044 0 0 0-15 15z" style="fill:none;stroke:#565a5c;stroke-width:2px;stroke-linecap:round;stroke-linejoin:round;"></path>
      <circle cx="44" cy="36.5" r="7.5" style="fill:#70d070;"></circle>
      <path d="M44 29a7.554 7.554 0 0 0-1.5.15 7.5 7.5 0 0 1 0 14.7A7.5 7.5 0 1 0 44 29z" style="fill:#fff;opacity:0.4;mix-blend-mode:lighten;"></path>
      <circle cx="44" cy="36.5" r="7.5" style="fill:none;stroke:#565a5c;stroke-width:2px;stroke-miterlimit:10;"></circle>
      <path d="M7 13l3 3M10 16l6-6M7 25l3 3M10 28l6-6M7 37l3 3M10 40l6-6M19 14h19M19 26h17" style="fill:none;stroke:#565a5c;stroke-width:2px;stroke-linecap:round;stroke-linejoin:round;"></path>
    </g>
  </g>
</svg>
