<svg width="60" height="60" xmlns="http://www.w3.org/2000/svg" viewBox="0 0 60 60">
  <path fill="#36b99a" d="M59 1H8a7 7 0 0 0-7 7v40h58z"/>
  <path opacity=".4" fill="#fff" d="M56 1h3v47h-3z"/>
  <path opacity=".1" d="M11 1H8a7 7 0 0 0-7 7v40h3V8a7 7 0 0 1 7-7z"/>
  <path opacity=".4" fill="#fff" d="M58 47v7H8a5.99 5.99 0 0 1-5.91-5 5.6 5.6 0 0 1 0-2z"/>
  <path fill="#fff" d="M8 41a7 7 0 0 0 0 14h51V41z"/>
  <path fill="#e5423b" d="M48 59l-4-2-4 2V48h8v11"/>
  <path opacity=".4" fill="#fff" class="cls-5" d="M45 48v9.5l3 1.5V48h-3"/>
  <path fill="#83d5c2" d="M15 7h30v10H15z"/>
  <path opacity=".4" fill="#fff" d="M42 7h3v10h-3z"/>
  <path fill="#565a5c" d="M45 18H15a1 1 0 0 1-1-1V7a1 1 0 0 1 1-1h30a1 1 0 0 1 1 1v10a1 1 0 0 1-1 1zm-29-2h28V8H16zM45 22H15a1 1 0 0 1 0-2h30a1 1 0 0 1 0 2zM45 26H15a1 1 0 0 1 0-2h30a1 1 0 0 1 0 2zM35 30H15a1 1 0 0 1 0-2h20a1 1 0 0 1 0 2z"/>
  <path fill="#565a5c" d="M59 0H8a8.01 8.01 0 0 0-8 8v40a8.01 8.01 0 0 0 8 8h31v3a1 1 0 0 0 1.45.89L44 58.12l3.55 1.77A1.03 1.03 0 0 0 48 60a1.014 1.014 0 0 0 .53-.15A1 1 0 0 0 49 59v-3h10a1 1 0 0 0 1-1V1a1 1 0 0 0-1-1zM47 57.38l-2.55-1.27a.976.976 0 0 0-.9 0L41 57.38V49h6zM58 54h-9v-5h9zm0-7H8a1 1 0 0 0 0 2h31v5H8a5.99 5.99 0 0 1-5.91-5 5.6 5.6 0 0 1 0-2A5.99 5.99 0 0 1 8 42h50zm0-7H8a7.965 7.965 0 0 0-6 2.72V8a6 6 0 0 1 6-6h50z"/>
</svg>
