<svg xmlns="http://www.w3.org/2000/svg" height="60" width="60" viewBox="0 0 60 60">
  <g style="isolation:isolate;">
    <g>
      <path d="M59 1H8a7 7 0 0 0-7 7v40h58z" style="fill:#36b99a;"></path>
      <path d="M56 1h3v47h-3z" style="fill:#fff;opacity:0.4;mix-blend-mode:lighten;"></path>
      <path d="M11 1H8a7 7 0 0 0-7 7v40h3V8a7 7 0 0 1 7-7z" style="opacity:0.1;mix-blend-mode:multiply;"></path>
      <path d="M59 1H8a7 7 0 0 0-7 7v40h58z" style="fill:none;stroke:#565a5c;stroke-linecap:round;stroke-linejoin:round;stroke-width:2px;"></path>
      <path d="M8 41a7 7 0 0 0 0 14h51V41z" style="fill:#fff;stroke:#565a5c;stroke-linecap:round;stroke-linejoin:round;stroke-width:2px;"></path>
      <path d="M8 48h51" style="fill:none;stroke:#565a5c;stroke-linecap:round;stroke-linejoin:round;stroke-width:2px;"></path>
      <path d="M48 59l-4-2-4 2V48h8v11z" style="fill:#e5423b;"></path>
      <path d="M45 48v9.5l3 1.5V48h-3z" style="fill:#fff;opacity:0.4;mix-blend-mode:lighten;"></path>
      <path d="M15 7h30v10H15z" style="fill:#83d5c2;"></path>
      <path d="M42 7h3v10h-3z" style="fill:#fff;opacity:0.4;mix-blend-mode:lighten;"></path>
      <path d="M15 7h30v10H15zM15 21h30M15 25h30M15 29h20M48 59l-4-2-4 2V48h8v11z" style="fill:none;stroke:#565a5c;stroke-linecap:round;stroke-linejoin:round;stroke-width:2px;"></path>
    </g>
  </g>
</svg>
