<svg xmlns="http://www.w3.org/2000/svg" height="60" width="60" viewBox="0 0 60 60">
  <g style="isolation:isolate;">
    <g>
      <path d="M18 12l-8 7V1h8v11z" style="fill:#ec703a;"></path>
      <path d="M15 2v11l-5 4.375V20l8-7V2h-3z" style="fill:#fff;opacity:0.4;mix-blend-mode:lighten;"></path>
      <path d="M18 12l-8 7V1h8v11z" style="fill:none;stroke:#565a5c;stroke-linecap:round;stroke-linejoin:round;stroke-width:2px;"></path>
      <path d="M17 8.688l-6 5.354v2.73l6-5.376V8.688z" style="opacity:0.1;mix-blend-mode:multiply;"></path>
      <path d="M59 27L30 1 1 27h58z" style="fill:#ec703a;"></path>
      <path d="M30 1l-2.5 2.24L54 27h5L30 1z" style="fill:#fff;opacity:0.4;mix-blend-mode:lighten;"></path>
      <path d="M59 27L30 1 1 27h58z" style="fill:none;stroke:#565a5c;stroke-linecap:round;stroke-linejoin:round;stroke-width:2px;"></path>
      <path d="M1 27h58v32H1z" style="fill:#36b99a;"></path>
      <path d="M1 27h58v32H1z" style="fill:none;stroke:#565a5c;stroke-linecap:round;stroke-linejoin:round;stroke-width:2px;"></path>
      <path d="M5 55h50v4H5z" style="stroke:#565a5c;stroke-linecap:round;stroke-linejoin:round;stroke-width:2px;fill:#d3d9e3;"></path>
      <path d="M26 25H5v30h21a4 4 0 0 1 4 4V29a4 4 0 0 0-4-4z" style="fill:#f9fafb;"></path>
      <path d="M26 25h-3a4 4 0 0 1 4 4v26.14A3.99 3.99 0 0 1 30 59V29a4 4 0 0 0-4-4z" style="fill:#fff;opacity:0.4;mix-blend-mode:lighten;"></path>
      <path d="M34 25h21v30H34a4 4 0 0 0-4 4V29a4 4 0 0 1 4-4z" style="fill:#f9fafb;"></path>
      <path d="M33 29a4 4 0 0 1 4-4h-3a4 4 0 0 0-4 4v30a3.99 3.99 0 0 1 3-3.86z" style="opacity:0.1;mix-blend-mode:multiply;"></path>
      <g style="opacity:0.4;mix-blend-mode:lighten;">
        <path d="M30 55.14V59a4 4 0 0 1 4-4h-3a3.966 3.966 0 0 0-1 .14zM52 25h3v30h-3z" style="fill:#fff;"></path>
      </g>
      <path d="M11 32h13M11 36h13M11 40h13M11 44h13M11 48h13M36 32h13M36 36h13M36 40h13M36 44h13M36 48h13M26 25H5v30h21a4 4 0 0 1 4 4V29a4 4 0 0 0-4-4zM34 25h21v30H34a4 4 0 0 0-4 4V29a4 4 0 0 1 4-4z" style="fill:none;stroke:#565a5c;stroke-linecap:round;stroke-linejoin:round;stroke-width:2px;"></path>
    </g>
  </g>
</svg>
