<svg width="60" height="60" xmlns="http://www.w3.org/2000/svg" viewBox="0 0 60 60">
  <path fill="#fcc02d" d="M52.96 21H41V8a7.868 7.868 0 0 0-.12-1.38A24.12 24.12 0 0 1 52.96 21zM21 8a5.988 5.988 0 0 1 3.32-5.37A5.977 5.977 0 0 1 27 2h6a5.977 5.977 0 0 1 2.68.63A5.988 5.988 0 0 1 39 8v13H21zm-1.88-1.38A7.868 7.868 0 0 0 19 8v13H7.04A24.12 24.12 0 0 1 19.12 6.62zm36.53 25.62a4.283 4.283 0 0 1-.77.39 4.707 4.707 0 0 1-1.4.34A3.862 3.862 0 0 1 53 33H7a3.862 3.862 0 0 1-.48-.03 4.707 4.707 0 0 1-1.4-.34 4.283 4.283 0 0 1-.77-.39 5 5 0 0 1 0-8.48 4.912 4.912 0 0 1 2.17-.73A3.874 3.874 0 0 1 7 23h46a3.874 3.874 0 0 1 .48.03 4.912 4.912 0 0 1 2.17.73 5 5 0 0 1 0 8.48z"/>
  <path fill="#9e9ed7" d="M51.92 41.96a.01.01 0 0 1-.01.01 22.988 22.988 0 0 1-43.82 0 .01.01 0 0 1-.01-.01A22.878 22.878 0 0 1 7 35h46a22.878 22.878 0 0 1-1.08 6.96z"/>
  <path opacity=".4" fill="#fff" class="cls-4" d="M55.65 23.76a4.912 4.912 0 0 0-2.17-.73A3.874 3.874 0 0 0 53 23h-2a3.874 3.874 0 0 1 .48.03 4.912 4.912 0 0 1 2.17.73 5 5 0 0 1 0 8.48 4.283 4.283 0 0 1-.77.39 4.707 4.707 0 0 1-1.4.34A3.862 3.862 0 0 1 51 33h2a3.862 3.862 0 0 0 .48-.03 4.707 4.707 0 0 0 1.4-.34 4.283 4.283 0 0 0 .77-.39 5 5 0 0 0 0-8.48z"/>
  <path opacity=".4" fill="#fff" d="M36.48 5.55A6.077 6.077 0 0 1 37 8v13h2V8a5.988 5.988 0 0 0-3.32-5.37A5.977 5.977 0 0 0 33 2h-2a5.977 5.977 0 0 1 2.68.63 6.062 6.062 0 0 1 2.8 2.92zM50.96 21h2A24.12 24.12 0 0 0 40.88 6.62a7.834 7.834 0 0 1 .113 1.217A24.124 24.124 0 0 1 50.96 21z"/>
  <path opacity=".1" d="M19.12 22H6.04a23.2 23.2 0 0 1 1.26-3H17V8c0-.05.01-.11.01-.16a23.14 23.14 0 0 1 2.11-1.22A7.868 7.868 0 0 0 19 8zM40.88 22h13.08a23.2 23.2 0 0 0-1.26-3H43V8c0-.05-.01-.11-.01-.16a23.14 23.14 0 0 0-2.11-1.22A7.868 7.868 0 0 1 41 8zM21 19h18.002v2H21zM6 35h47.96v2H6z"/>
  <path opacity=".4" fill="#fff" d="M51 35a22.878 22.878 0 0 1-1.08 6.96.01.01 0 0 1-.01.01A23.01 23.01 0 0 1 29 57.96c.333.013.663.04 1 .04a23.017 23.017 0 0 0 21.91-16.03.01.01 0 0 0 .01-.01A22.878 22.878 0 0 0 53 35z"/>
  <path fill="#565a5c" d="M55.13 21.33A26.064 26.064 0 0 0 39.9 3.97 7.988 7.988 0 0 0 33 0h-6a7.988 7.988 0 0 0-6.9 3.97A26.064 26.064 0 0 0 4.87 21.33a7 7 0 0 0 0 13.34c.05.01.09.03.14.04A2.808 2.808 0 0 0 5 35v.17a25 25 0 0 0 50 0V35a2.808 2.808 0 0 0-.01-.29c.05-.01.09-.03.14-.04a7 7 0 0 0 0-13.34zM52.96 21H41V8a7.868 7.868 0 0 0-.12-1.38A24.12 24.12 0 0 1 52.96 21zM21 8a5.988 5.988 0 0 1 3.32-5.37A5.977 5.977 0 0 1 27 2h6a5.977 5.977 0 0 1 2.68.63A5.988 5.988 0 0 1 39 8v13H21zm-1.88-1.38A7.868 7.868 0 0 0 19 8v13H7.04A24.12 24.12 0 0 1 19.12 6.62zm32.8 35.34a.01.01 0 0 1-.01.01 22.988 22.988 0 0 1-43.82 0 .01.01 0 0 1-.01-.01A22.878 22.878 0 0 1 7 35h46a22.878 22.878 0 0 1-1.08 6.96zm3.73-9.72a4.283 4.283 0 0 1-.77.39 4.707 4.707 0 0 1-1.4.34A3.862 3.862 0 0 1 53 33H7a3.862 3.862 0 0 1-.48-.03 4.707 4.707 0 0 1-1.4-.34 4.283 4.283 0 0 1-.77-.39 5 5 0 0 1 0-8.48 4.912 4.912 0 0 1 2.17-.73A3.874 3.874 0 0 1 7 23h46a3.874 3.874 0 0 1 .48.03 4.912 4.912 0 0 1 2.17.73 5 5 0 0 1 0 8.48z"/>
</svg>
