<svg width="60" height="60" xmlns="http://www.w3.org/2000/svg" viewBox="0 0 60 60">
  <path fill="#ec703a" d="M18 12l-8 7V1h8v11"/>
  <path opacity=".4" fill="#fff" d="M15 2v11.3l-5 4.476V20l8-7V2h-3"/>
  <path fill="#565a5c" d="M10.39 19.92a.947.947 0 0 0 .27-.17l8-7a1 1 0 0 0 .32-.53z"/>
  <path opacity=".1" d="M17 8.688l-6 5.354v2.73l6-5.376V8.688"/>
  <path fill="#ec703a" d="M59 27L30 1 1 27h58"/>
  <path opacity=".4" fill="#fff" d="M30 1l-2.5 2.24L54 27h5L30 1"/>
  <path fill="#565a5c" d="M26 26H6v2h22.82A3 3 0 0 0 26 26zm8 0a3 3 0 0 0-2.82 2H54v-2z"/>
  <path fill="#36b99a" d="M1 27h58v32H1z"/>
  <path fill="#36b99a" d="M34 26a3 3 0 0 0-2.82 2H54v-2zm-8 0H6v2h22.82A3 3 0 0 0 26 26z"/>
  <path fill="#d3d9e3" d="M5 55h50v4H5z"/>
  <path fill="#565a5c" d="M31 54v1a4.985 4.985 0 0 1 3-1zm-5 0a4.985 4.985 0 0 1 3 1v-1z"/>
  <path fill="#f9fafb" d="M26 25H5v30h21a4 4 0 0 1 4 4V29a4 4 0 0 0-4-4z"/>
  <path opacity=".4" fill="#fff" d="M26 25h-3a4 4 0 0 1 4 4v26.14A3.99 3.99 0 0 1 30 59V29a4 4 0 0 0-4-4z"/>
  <path fill="#f9fafb" d="M34 25h21v30H34a4 4 0 0 0-4 4V29a4 4 0 0 1 4-4z"/>
  <path opacity=".1" d="M33 29a4 4 0 0 1 4-4h-3a4 4 0 0 0-4 4v30a3.99 3.99 0 0 1 3-3.86z"/>
  <path opacity=".4" fill="#fff" d="M30 55.14V59a4 4 0 0 1 4-4h-3a3.966 3.966 0 0 0-1 .14zM52 25h3v30h-3z"/>
  <path fill="#565a5c" d="M24 33H11a1 1 0 0 1 0-2h13a1 1 0 0 1 0 2zM24 37H11a1 1 0 0 1 0-2h13a1 1 0 0 1 0 2zM24 41H11a1 1 0 0 1 0-2h13a1 1 0 0 1 0 2zM24 45H11a1 1 0 0 1 0-2h13a1 1 0 0 1 0 2zM24 49H11a1 1 0 0 1 0-2h13a1 1 0 0 1 0 2zM49 33H36a1 1 0 0 1 0-2h13a1 1 0 0 1 0 2zM49 37H36a1 1 0 0 1 0-2h13a1 1 0 0 1 0 2zM49 41H36a1 1 0 0 1 0-2h13a1 1 0 0 1 0 2zM49 45H36a1 1 0 0 1 0-2h13a1 1 0 0 1 0 2zM49 49H36a1 1 0 0 1 0-2h13a1 1 0 0 1 0 2z"/>
  <path fill="#565a5c" d="M59.91 26.6a.524.524 0 0 0-.1-.18 1.07 1.07 0 0 0-.14-.16l-.11-.09L30.67.26a.986.986 0 0 0-1.34 0L19 9.52V1a1 1 0 0 0-1-1h-8a1 1 0 0 0-1 1v17.49L.44 26.17l-.11.09a1.07 1.07 0 0 0-.14.16.524.524 0 0 0-.1.18.9.9 0 0 0-.09.4v32a1 1 0 0 0 1 1h58a1 1 0 0 0 1-1V27a.9.9 0 0 0-.09-.4zM11 2h6v9.55l-6 5.25zM4 58H2V28h2zm2 0v-2h20a3 3 0 0 1 2.82 2zm23-3a4.985 4.985 0 0 0-3-1H6V26h20a3 3 0 0 1 2.82 2 2.772 2.772 0 0 1 .18 1zm25 3H31.18A3 3 0 0 1 34 56h20zm0-4H34a4.985 4.985 0 0 0-3 1V29a2.772 2.772 0 0 1 .18-1A3 3 0 0 1 34 26h20zM34 24a5.01 5.01 0 0 0-4 2 5.01 5.01 0 0 0-4-2H5.84l4.55-4.08 8.59-7.7L30 2.34 54.16 24zm24 34h-2V28h2z"/>
</svg>
