<svg width="60" height="60" data-name="Layer 1" xmlns="http://www.w3.org/2000/svg" viewBox="0 0 60 60">
  <path fill="#14c5db" d="M15 7h44v52H15z"/>
  <path fill="#fff" opacity=".4" d="M56 7h3v52h-3z"/>
  <path fill="#feed58" d="M52.457 15.3l-6.948 3.83a.984.984 0 0 0-.478.59l-2.26 7.61a8 8 0 1 1 9.685-12.03z"/>
  <path fill="#feed58" d="M51.89 25.393a8.012 8.012 0 0 1-7.2 2.5l1.86-6.27zM53.66 22.278a8.43 8.43 0 0 1-.61 1.488L47.87 20.1l5.547-3.047a7.92 7.92 0 0 1 .242 5.225z"/>
  <path fill="#d66dac" d="M53.43 15.563l1.72 3.626-1.728 5.82-1.97-1.01L46 19.97l7.43-4.407"/>
  <path fill="#e57231" d="M46 19.97l-2.584 8.698 3.07.246 6.034-2.802.902-1.103L46 19.97"/>
  <path opacity=".1" d="M48 8v47a1 1 0 0 1-1 1H15.81V8z"/>
  <path fill="#36b99a" d="M1 1h44v51.516H1z"/>
  <path fill="#fff" opacity=".4" d="M42 1h3v52h-3z"/>
  <path fill="#feed58" d="M12 8.97V11h-2V8.97A.986.986 0 0 1 11.03 8a.97.97 0 0 1 .97.97zM12 17v28.03a.97.97 0 0 1-.97.97h-.06a.97.97 0 0 1-.97-.97V17zM24 33h-2V8.97A.986.986 0 0 1 23.03 8a.97.97 0 0 1 .97.97zM22 39h2v6.03a.97.97 0 0 1-.97.97h-.06a.97.97 0 0 1-.97-.97zM36 19h-2V8.97A.986.986 0 0 1 35.03 8a.97.97 0 0 1 .97.97zM34 25h2v20.03a.97.97 0 0 1-.97.97h-.06a.97.97 0 0 1-.97-.97z"/>
  <rect fill="#14c5db" x="8" y="13" width="6" height="2" rx=".57" ry=".57"/>
  <rect fill="#14c5db" x="20" y="35" width="6" height="2" rx=".57" ry=".57"/>
  <rect fill="#14c5db" x="32" y="21" width="6" height="2" rx=".57" ry=".57"/>
  <path opacity=".1" d="M8 16.94h6v2H8zM20 38.94h6v2h-6zM32 24.94h6v2h-6z"/>
  <path fill="#fff" opacity=".4" d="M12 12h2.248v3.296H12zM36 20h2.248v3.296H36z"/>
  <path fill="#565a5c" d="M38 19.06V8.97a3 3 0 0 0-6 0v10.09a2.573 2.573 0 0 0-2 2.51v.86a2.573 2.573 0 0 0 2 2.51v20.09A2.97 2.97 0 0 0 34.97 48h.06A2.97 2.97 0 0 0 38 45.03V24.94a2.573 2.573 0 0 0 2-2.51v-.86a2.573 2.573 0 0 0-2-2.51zm-2 25.97a.97.97 0 0 1-.97.97h-.06a.97.97 0 0 1-.97-.97V25h2zM37.43 23h-4.86a.576.576 0 0 1-.57-.57v-.86a.576.576 0 0 1 .57-.57h4.86a.576.576 0 0 1 .57.57v.86a.576.576 0 0 1-.57.57zM34 8.97A.986.986 0 0 1 35.03 8a.97.97 0 0 1 .97.97V19h-2z"/>
  <path fill="#fff" opacity=".4" d="M24 34h2.248v3.296H24z"/>
  <path fill="#565a5c" d="M26 33.06V8.97a3 3 0 0 0-6 0v24.09a2.573 2.573 0 0 0-2 2.51v.86a2.573 2.573 0 0 0 2 2.51v6.09A2.97 2.97 0 0 0 22.97 48h.06A2.97 2.97 0 0 0 26 45.03v-6.09a2.573 2.573 0 0 0 2-2.51v-.86a2.573 2.573 0 0 0-2-2.51zm-2 11.97a.97.97 0 0 1-.97.97h-.06a.97.97 0 0 1-.97-.97V39h2zM25.43 37h-4.86a.576.576 0 0 1-.57-.57v-.86a.576.576 0 0 1 .57-.57h4.86a.576.576 0 0 1 .57.57v.86a.576.576 0 0 1-.57.57zM22 8.97A.986.986 0 0 1 23.03 8a.97.97 0 0 1 .97.97V33h-2zM14 11.06V8.97a3 3 0 0 0-6 0v2.09a2.573 2.573 0 0 0-2 2.51v.86a2.573 2.573 0 0 0 2 2.51v28.09A2.97 2.97 0 0 0 10.97 48h.06A2.97 2.97 0 0 0 14 45.03V16.94a2.573 2.573 0 0 0 2-2.51v-.86a2.573 2.573 0 0 0-2-2.51zm-4-2.09A.986.986 0 0 1 11.03 8a.97.97 0 0 1 .97.97V11h-2zm2 36.06a.97.97 0 0 1-.97.97h-.06a.97.97 0 0 1-.97-.97V17h2zm2-30.6a.576.576 0 0 1-.57.57H8.57a.576.576 0 0 1-.57-.57v-.86a.576.576 0 0 1 .57-.57h4.86a.576.576 0 0 1 .57.57z"/>
  <path opacity=".1" d="M8 11.06v5.88a2.573 2.573 0 0 1-2-2.51v-.86a2.573 2.573 0 0 1 2-2.51V8.97a2.962 2.962 0 0 1 1.985-2.79A3.1 3.1 0 0 0 8.97 6 2.97 2.97 0 0 0 6 8.97v2.09a2.573 2.573 0 0 0-2 2.51v.86a2.573 2.573 0 0 0 2 2.51v28.09A2.97 2.97 0 0 0 8.97 48h.06a2.94 2.94 0 0 0 .97-.176 2.96 2.96 0 0 1-2-2.794V11.06zM20 45.03v-6.09a2.573 2.573 0 0 1-2-2.51v-.86a2.573 2.573 0 0 1 2-2.51V8.97a2.962 2.962 0 0 1 1.985-2.79A3.1 3.1 0 0 0 20.97 6 2.97 2.97 0 0 0 18 8.97v24.09a2.573 2.573 0 0 0-2 2.51v.86a2.573 2.573 0 0 0 2 2.51v6.09A2.97 2.97 0 0 0 20.97 48h.06a2.94 2.94 0 0 0 .97-.176 2.96 2.96 0 0 1-2-2.794zM32 45.03V24.94a2.573 2.573 0 0 1-2-2.51v-.86a2.573 2.573 0 0 1 2-2.51V8.97a2.962 2.962 0 0 1 1.985-2.79A3.1 3.1 0 0 0 32.97 6 2.97 2.97 0 0 0 30 8.97v10.09a2.573 2.573 0 0 0-2 2.51v.86a2.573 2.573 0 0 0 2 2.51v20.09A2.97 2.97 0 0 0 32.97 48h.06a2.94 2.94 0 0 0 .97-.176 2.96 2.96 0 0 1-2-2.794z"/>
  <path fill="#565a5c" d="M59 6H46V1a1 1 0 0 0-1-1H1a1 1 0 0 0-1 1v52a1 1 0 0 0 1 1h13v5a1 1 0 0 0 1 1h44a1 1 0 0 0 1-1V7a1 1 0 0 0-1-1zm-13 6a8.15 8.15 0 0 1 2.27.33 7.97 7.97 0 0 1 4.19 2.97L46 18.86zm7.42 5.05a7.98 7.98 0 0 1 .24 5.23 9.306 9.306 0 0 1-.61 1.49l-5.18-3.67zM46 23.48l.55-1.85 5.34 3.76A8.1 8.1 0 0 1 46 28.01zM2 52V2h42v50zm56 6H16v-4h29a1 1 0 0 0 1-1v-1h7a1 1 0 0 0 0-2h-7v-2h9a1 1 0 0 0 0-2h-9v-2h7a1 1 0 0 0 0-2h-7v-2h5a1 1 0 0 0 0-2h-5v-2h9a1 1 0 0 0 0-2h-9v-4a9.99 9.99 0 0 0 8.78-14.76.218.218 0 0 0-.03-.05c0-.02 0-.02-.01-.02A9.95 9.95 0 0 0 46 10V8h12z"/>
</svg>
