<svg width="60" height="60" xmlns="http://www.w3.org/2000/svg" viewBox="0 0 60 60">
  <path fill="#d66dac" d="M33.098 18.002l-.124 14-13.772 2v-4.818l1.48-4.187 1.3-3.002 5.47-3.002 3.007-1 2.638.01"/>
  <path fill="#feed58" d="M42.503 21.995l-4.58-2.968-4.825-1.025-.124 14 9.53-10.007"/>
  <path fill="#fcc02d" d="M27.944 44.943l4.642-11.94h-1.343l-12.258 2 3.92 6.456 5.04 3.483"/>
  <path fill="#e57231" d="M42.503 21.995L33.956 32l13.007.485L46.39 28l-1.96-3.988-1.927-2.017"/>
  <path fill="#ef8d87" d="M44.742 39.877C45 39.7 33.612 33 33.612 33l1.05-.517L46.39 33l.272 2.254-1.92 4.62z"/>
  <path fill="#e9428d" d="M43.87 40.49l-11.015-7.787-4.91 12.24 3.076 1.067h3.436l4.21-1.067 5.204-4.453"/>
  <ellipse fill="#83d5c2" cx="15.988" cy="6.986" rx="5.995" ry="6.004"/>
  <ellipse fill="#b497c4" cx="14.988" cy="52.013" rx="3.997" ry="4.002"/>
  <ellipse fill="#70d070" cx="52.959" cy="53.014" rx="5.995" ry="6.004"/>
  <ellipse fill="#9e9ed7" cx="44.911" cy="6.986" rx="2.998" ry="3.002"/>
  <ellipse fill="#14c5db" cx="5.995" cy="27.999" rx="4.996" ry="5.003"/>
  <path opacity=".4" fill="#fff" d="M43.7 40.386l-1.11 1.66-.808-.54a12.042 12.042 0 0 0 1.37-1.49zM42 21.845l-.41.4a12.71 12.71 0 0 0-1.62-1.22l.64-.62zM41.238 11.78l.02.01.98-1.89zM14.988.983a6 6 0 0 0-1 .09 6 6 0 0 1 0 11.827 6 6 0 1 0 1-11.917zM43.912 3.984a2.966 2.966 0 0 0-1 .184 2.986 2.986 0 0 1 0 5.636 2.966 2.966 0 0 0 1 .184 3 3 0 0 0 0-6zM51.96 47.01a6 6 0 0 0-1 .09 6 6 0 0 1 0 11.827 6 6 0 1 0 1-11.917zM5 23a5.01 5.01 0 0 0-1 .1 5 5 0 0 1 0 9.8A5 5 0 1 0 5 23zM13.99 48.01a3.958 3.958 0 0 0-1 .143 3.985 3.985 0 0 1 0 7.722 3.958 3.958 0 0 0 1 .142 4 4 0 0 0 0-8z"/>
  <path opacity=".4" fill="#fff" d="M32.974 18.993c-.337 0-.668.025-1 .05a13 13 0 0 1 0 25.915c.33.025.662.05 1 .05a13.008 13.008 0 0 0 0-26.015z"/>
  <path fill="#565a5c" d="M52.68 46.02a6.873 6.873 0 0 0-3.608 1.17L44.3 41.8a14.936 14.936 0 0 0 3.6-9.546 1.48 1.48 0 0 0 .01-.21 15.01 15.01 0 0 0-8.034-13.288l2.648-5.133 1.33-2.572.08-.14a4.163 4.163 0 0 0 .938.12 4.008 4.008 0 1 0-2.688-1.09l-.984 1.89-.46.88-2.708 5.223a14.95 14.95 0 0 0-5.116-.9h-.15a14.978 14.978 0 0 0-7.684 2.21l-1.29-1.97-.01-.01-3.226-4.973a6.9 6.9 0 1 0-1.68 1.1l1.07 1.64 2.1 3.213.07.12 1.336 2.037a15.1 15.1 0 0 0-4.666 6.634H11.83v-.03a5.96 5.96 0 1 0 .02 2.03h6.386a14.507 14.507 0 0 0-.3 2.813 1.21 1.21 0 0 0-.01.19 14.923 14.923 0 0 0 4.007 10.2l-4.746 5.353a5 5 0 1 0 2.738 4.463 4.993 4.993 0 0 0-1.17-3.222l4.627-5.222a14.85 14.85 0 0 0 9.533 3.442h.16a14.953 14.953 0 0 0 9.825-3.822l4.686 5.313a6.98 6.98 0 1 0 5.1-2.52zM44.944 5.025a2 2 0 0 1-.05 4h-.01a1.988 1.988 0 0 1-1.71-1.02A2.027 2.027 0 0 1 42.918 7a2 2 0 0 1 2.028-1.975zm-25.5 5.563a4.943 4.943 0 0 1-1.68 1.1 4.872 4.872 0 0 1-2.057.33 5 5 0 1 1 3.737-1.43zM9.8 29.038a4 4 0 1 1 0-2 4.1 4.1 0 0 1 .13.932 3.788 3.788 0 0 1-.13 1.07zm5.126 26.017a3 3 0 1 1 3-3 3.01 3.01 0 0 1-2.998 3zm30.94-23.574l-10.573-.36 7.464-7.273a13.288 13.288 0 0 1 3.108 7.634zM33.913 19.114a13.244 13.244 0 0 1 7.454 3.3l-7.454 7.257zm-13.98 12.7a12.978 12.978 0 0 1 11.98-12.73V31.17l-11.93 1.742c-.03-.36-.05-.73-.05-1.1zm.39 3.072l11.042-1.6-4.027 10.333a13.5 13.5 0 0 1-7.016-8.735zm12.75 10.166a2.17 2.17 0 0 1-.25-.01 12.847 12.847 0 0 1-3.636-.65l4.207-10.826 9.732 6.514a12.985 12.985 0 0 1-10.053 4.97zm3.318-11.886l9.433.33a12.914 12.914 0 0 1-1.59 4.923zM53.14 58.017a5 5 0 0 1-2.72-9.306 4.875 4.875 0 0 1 2.34-.69 5 5 0 0 1 .38 10z"/>
</svg>
