<svg width="60" height="60" xmlns="http://www.w3.org/2000/svg" viewBox="0 0 60 60">
  <path fill="#4885dc" d="M30 1a29 29 0 1 0 29 29A29 29 0 0 0 30 1z"/>
  <path opacity=".4" fill="#fff" d="M30 1q-.755 0-1.5.038a29 29 0 0 1 0 57.923q.745.04 1.5.04a29 29 0 0 0 0-58z"/>
  <path fill="#565a5c" d="M52.36 49.97a29.924 29.924 0 0 0-.06-40.01c-.07-.08-.14-.16-.22-.24A29.942 29.942 0 0 0 8 9.63c-.13.14-.39.44-.4.45a29.906 29.906 0 0 0 0 39.84c.01.01.01.02.02.03.13.14.25.28.38.42a29.934 29.934 0 0 0 44-.01M26.88 2.17a36.15 36.15 0 0 0-10 13.57 27.875 27.875 0 0 1-6.96-5.23 27.97 27.97 0 0 1 16.96-8.34zm-18.3 9.82a29.364 29.364 0 0 0 7.57 5.61 37.022 37.022 0 0 0-1.63 6.23 34.808 34.808 0 0 0-.51 5.17H2.03a27.8 27.8 0 0 1 6.55-17.01zM8.57 48a27.79 27.79 0 0 1-6.54-17h11.98a35.97 35.97 0 0 0 2.14 11.4 29.318 29.318 0 0 0-6.31 4.39c-.43.38-.85.79-1.27 1.21zm1.35 1.49c.41-.42.83-.83 1.26-1.22a27.235 27.235 0 0 1 5.72-4.01 35.745 35.745 0 0 0 3.8 6.82 36.3 36.3 0 0 0 6.17 6.75 27.944 27.944 0 0 1-16.95-8.34zM29 56.98a34.44 34.44 0 0 1-10.3-13.6A27.9 27.9 0 0 1 29 41.03zm0-17.94a29.71 29.71 0 0 0-11.03 2.49A33.666 33.666 0 0 1 16.01 31H29zM29 29H16.01a34.37 34.37 0 0 1 .49-4.83 35.712 35.712 0 0 1 1.47-5.69A29.733 29.733 0 0 0 29 20.98zm0-10.03a27.76 27.76 0 0 1-10.31-2.35A33.98 33.98 0 0 1 29 3.02zm22.42-6.98A27.8 27.8 0 0 1 57.97 29H46a35.643 35.643 0 0 0-2.14-11.4 29.146 29.146 0 0 0 7.56-5.61zm-1.35-1.49a27.006 27.006 0 0 1-6.95 5.23 36.587 36.587 0 0 0-3.81-6.81 35.937 35.937 0 0 0-6.17-6.74 27.92 27.92 0 0 1 16.93 8.32zM31 3.02a33.86 33.86 0 0 1 6.67 7.06 34.745 34.745 0 0 1 3.64 6.54A27.76 27.76 0 0 1 31 18.97zm0 17.96a30.028 30.028 0 0 0 11.04-2.5A33.658 33.658 0 0 1 44 29H31zM31 31h13a34.38 34.38 0 0 1-.49 4.83 35.078 35.078 0 0 1-1.48 5.7A29.805 29.805 0 0 0 31 39.05zm0 10.04a27.62 27.62 0 0 1 10.31 2.35A34.018 34.018 0 0 1 31 56.98zm2.13 16.79a36.17 36.17 0 0 0 9.99-13.56 27.062 27.062 0 0 1 6.95 5.23 27.906 27.906 0 0 1-16.94 8.33zm18.29-9.82a29.346 29.346 0 0 0-7.57-5.61 37.022 37.022 0 0 0 1.63-6.23A36.218 36.218 0 0 0 46 31h11.97a27.8 27.8 0 0 1-6.55 17.01z"/>
</svg>
