<svg xmlns="http://www.w3.org/2000/svg" height="60" width="60" viewBox="0 0 60 60">
  <g style="isolation:isolate;">
    <g>
      <path d="M30 1a29 29 0 1 0 29 29A29 29 0 0 0 30 1z" style="fill:#4885dc;"></path>
      <path d="M30 1q-.755 0-1.5.038a29 29 0 0 1 0 57.923q.745.04 1.5.04a29 29 0 0 0 0-58z" style="fill:#fff;opacity:0.4;mix-blend-mode:lighten;"></path>
      <path d="M30 1a29 29 0 1 0 29 29A29 29 0 0 0 30 1z" style="fill:none;stroke:#565a5c;stroke-width:2px;stroke-miterlimit:10;"></path>
      <path d="M30.006 1.01a35.507 35.507 0 0 0 0 57.98M30 58.99a35.507 35.507 0 0 0 0-57.98" style="fill:none;stroke:#565a5c;stroke-width:2px;stroke-linecap:round;stroke-linejoin:round;"></path>
      <path d="M8.52 10.483A28.925 28.925 0 0 0 30 20a28.925 28.925 0 0 0 21.464-9.5M51.474 49.51a29 29 0 0 0-42.955.007M1 30h58M30 1v58" style="fill:none;stroke:#565a5c;stroke-width:2px;stroke-linecap:round;stroke-linejoin:round;"></path>
    </g>
  </g>
</svg>
