<svg xmlns="http://www.w3.org/2000/svg" height="60" width="60" viewBox="0 0 60 60">
  <g style="isolation:isolate;">
    <g>
      <path d="M15 1h44v32H15z" style="fill:#23b2c4;"></path>
      <path d="M56 1h3v32h-3z" style="fill:#fff;opacity:0.4;mix-blend-mode:lighten;"></path>
      <path d="M15 1h44v32H15z" style="fill:none;stroke:#565a5c;stroke-linecap:round;stroke-linejoin:round;stroke-width:2px;"></path>
      <path d="M16 12h30a2 2 0 0 1 2 2v18H16V12z" style="opacity:0.1;mix-blend-mode:multiply;"></path>
      <path d="M1 15v33h22v11l11-11h11V15H1z" style="fill:#14c5db;"></path>
      <g style="opacity:0.4;mix-blend-mode:lighten;">
        <path d="M22 56v3l11-11h-3l-8 8zM42 15h3v33h-3z" style="fill:#fff;"></path>
      </g>
      <path d="M1 15v33h22v11l11-11h11V15H1zM11 25h24.545M11 29h24.545M11 33h24.545M11 37h14.545" style="fill:none;stroke:#565a5c;stroke-linecap:round;stroke-linejoin:round;stroke-width:2px;"></path>
    </g>
  </g>
</svg>
