<svg width="60" height="60" xmlns="http://www.w3.org/2000/svg" viewBox="0 0 60 60">
  <path fill="#23b2c4" d="M15 1h44v32H15z"/>
  <path opacity=".4" fill="#fff" d="M56 1h3v32h-3z"/>
  <path opacity=".1" d="M16 12h30a2 2 0 0 1 2 2v18H16V12z"/>
  <path fill="#14c5db" d="M1 15v33h22v11l11-11h11V15H1"/>
  <path opacity=".4" fill="#fff" d="M22 56v3l11-11h-3l-8 8M42 15h3v33h-3z"/>
  <path fill="#565a5c" d="M59 0H15a1 1 0 0 0-1 1v13H1a1 1 0 0 0-1 1v33a1 1 0 0 0 1 1h21v10a.987.987 0 0 0 .62.92.84.84 0 0 0 .38.08 1.007 1.007 0 0 0 .71-.29L34.41 49H45a1 1 0 0 0 1-1V34h13a1 1 0 0 0 1-1V1a1 1 0 0 0-1-1zM44 47H34a1.033 1.033 0 0 0-.71.29L24 56.59V48a1 1 0 0 0-1-1H2V16h42zm14-15H46V15a1 1 0 0 0-1-1H16V2h42z"/>
  <path fill="#565a5c" d="M35.545 26H11a1 1 0 0 1 0-2h24.545a1 1 0 0 1 0 2zM35.545 30H11a1 1 0 0 1 0-2h24.545a1 1 0 1 1 0 2zM35.545 34H11a1 1 0 0 1 0-2h24.545a1 1 0 1 1 0 2zM25.545 38H11a1 1 0 0 1 0-2h14.545a1 1 0 1 1 0 2z"/>
</svg>
