<svg width="60" height="60" xmlns="http://www.w3.org/2000/svg" viewBox="0 0 60 60">
  <path fill="#447ac2" d="M30 37l20 10V27L30 17v20"/>
  <path opacity=".1" d="M47 25.5L30 34v3l20-10-3-1.5"/>
  <path fill="#4b87d9" d="M39 9l20 10-9 8-20-10 9-8"/>
  <path fill="#565a5c" d="M50.53 26.15a.356.356 0 0 0-.09-.04.64.64 0 0 1 .14.08.1.1 0 0 0-.05-.04z"/>
  <path fill="#4b87d9" d="M30 59l20-10V27L30 37v22"/>
  <path opacity=".4" fill="#fff" d="M47 28.5V47l-17 8.5V59l20-10V27l-3 1.5"/>
  <path opacity=".1" d="M30 39.98l19-9.5 1 1.11v12.89l-12 6-8-8.89v-1.61"/>
  <path fill="#565a5c" d="M50.53 26.15a.356.356 0 0 0-.09-.04.64.64 0 0 1 .14.08.1.1 0 0 0-.05-.04zm-.76 2.08l-.77.39v12.26l2-1V29.6z"/>
  <path fill="#92b7e8" d="M39 47l20-10-9-10-20 10 9 10"/>
  <path opacity=".4" fill="#fff" d="M50 27l-2.828 1.414L54 36l-17.172 8.586L39 47l20-10-9-10"/>
  <path fill="#565a5c" d="M31.77 16.77L34.89 14H34a1 1 0 0 1-1-1l-3.66 3.25a1.007 1.007 0 0 0-.33.88.982.982 0 0 0 .54.76l4.74 2.37 1.06-1.7z"/>
  <path fill="#3b6aae" d="M30 37L10 47V27l20-10v20"/>
  <path opacity=".1" d="M13 25.5L30 34v3L10 27l3-1.5"/>
  <path fill="#565a5c" d="M27.76 37L15.5 43.13l2.24 1.12 7.99-4 2.65-2.94zM11 45.38v2.24l4.5-2.25-2.24-1.12zm-.77-17.15L9 29.6v10.28l2 1V28.62zm20.3-12.08a1.007 1.007 0 0 0-.98-.04l-4.9 2.45 1.06 1.7L29 18.62v6.89l1 1.6 1-1.6V17a1 1 0 0 0-.47-.85z"/>
  <path fill="#447ac2" d="M21 17L1 27h9l20-10h-9"/>
  <path fill="#565a5c" d="M30.97 16.77A1 1 0 0 0 30 16h-6.95l1.25 2h1.46l-1.11.56 1.06 1.7 4.74-2.37a.99.99 0 0 0 .52-1.12z"/>
  <path fill="#4b87d9" d="M30 59L10 49V27l20 10v22"/>
  <path opacity=".1" d="M30 40.048L11 31l-1 1.11V45l12 6 8-8.89V40.05"/>
  <path fill="#565a5c" d="M10.23 28.23L9 29.6v10.28l2 1V28.62zm-.76-2.08a.1.1 0 0 0-.05.04.64.64 0 0 1 .14-.08.356.356 0 0 0-.09.04z"/>
  <path fill="#92b7e8" d="M21 47L1 37l9-10 20 10-9 10"/>
  <path opacity=".4" fill="#fff" d="M10 27l-2.172 2.414L25 38l-6.828 7.586L21 47l9-10-20-10"/>
  <path fill="#feed58" d="M26 1v12h-6l5 8 5 8 5-8 5-8h-6V1h-8"/>
  <path opacity=".4" fill="#fff" d="M37 13l-5 8-3.5 5.6L30 29l5-8 5-8h-3M31 1h3v12h-3z"/>
  <path fill="#565a5c" d="M51.41 27.08l8.25-7.33a1 1 0 0 0-.21-1.64l-20-10a.984.984 0 0 0-1.11.14L35 11.22V1a1 1 0 0 0-1-1h-8a1 1 0 0 0-1 1v11h-5a1.008 1.008 0 0 0-.85 1.53l1.57 2.52a.493.493 0 0 0-.17.06l-20 10A1 1 0 0 0 1 28h6.76l-7.5 8.33a1 1 0 0 0 .29 1.56L9 42.12V49a.988.988 0 0 0 .55.89l19.92 9.96.08.04A1.03 1.03 0 0 0 30 60a1.014 1.014 0 0 0 .53-.15l19.92-9.96A.988.988 0 0 0 51 49v-6.88l8.45-4.23a1 1 0 0 0 .29-1.56zM39.16 10.2l18.07 9.03-7.39 6.57-12.69-6.34 3.7-5.93A1 1 0 0 0 40 12h-2.86zM47.77 27L31 35.39v-6.1l5.08-8.13zM5.24 26l16-8h.7l.91 1.45L9.76 26zM2.62 36.69L9 29.6l1.23-1.37.77.39 17.38 8.69-2.65 2.94-4.96 5.51-3.03-1.51zM29 57.38l-18-9v-5.26l4.5 2.25 5.05 2.52A.935.935 0 0 0 21 48a1 1 0 0 0 .74-.33L29 39.6zm0-21.99L12.24 27l11.68-5.84L29 29.29zm1-8.28l-1-1.6-3.29-5.25-1.06-1.7-.35-.56-2.5-4H26a1 1 0 0 0 1-1V2h6v11a1 1 0 0 0 1 1h4.2l-2.85 4.56-1.06 1.7L31 25.51zm19 21.27l-18 9V39.6l7.26 8.07A1 1 0 0 0 39 48a.935.935 0 0 0 .45-.11L49 43.12zm0-7.5l-9.77 4.88-7.61-8.45L49 28.62l.77-.39L51 29.6l6.38 7.09z"/>
</svg>
