<svg width="60" height="60" xmlns="http://www.w3.org/2000/svg" viewBox="0 0 60 60">
  <path fill="#fd9727" d="M57.244 11.245l-9.87 9.87a6 6 0 1 1-8.49-8.488l9.87-9.87a17.978 17.978 0 0 0-25.178 20.682L3.626 43.39a9 9 0 0 0 12.727 12.728l19.794-19.794a17.987 17.987 0 0 0 21.1-25.08z"/>
  <path opacity=".4" fill="#fff" d="M35.885 10.627a6.02 6.02 0 0 0 0 8.488 5.913 5.913 0 0 0 2.584 1.49 6 6 0 0 1 .415-7.978l9.87-9.87a17.975 17.975 0 0 0-3.712-1.29zM57.244 11.245l-1.71 1.71a17.976 17.976 0 0 1-22.387 21.37L13.353 54.117A9.033 9.033 0 0 1 3.6 56.086l.03.032a9.027 9.027 0 0 0 12.727 0l19.79-19.794a17.987 17.987 0 0 0 21.1-25.08z"/>
  <path fill="#565a5c" d="M49 34a16.822 16.822 0 0 1-12.4 1.41 5.6 5.6 0 0 0-.1 1.09 5.15 5.15 0 0 0 .08.97 18.81 18.81 0 0 0 12.9-1.46A6.428 6.428 0 0 0 49 34z"/>
  <path opacity=".1" d="M57 59v1H25v-1a16.078 16.078 0 0 1 11.46-15.32 8.5 8.5 0 1 1 9.08 0A16.076 16.076 0 0 1 57 59z"/>
  <circle fill="#36b99a" cx="43" cy="36.5" r="7.5"/>
  <path fill="#565a5c" d="M43 45a8.5 8.5 0 1 1 8.5-8.5A8.51 8.51 0 0 1 43 45zm0-15a6.5 6.5 0 1 0 6.5 6.5A6.508 6.508 0 0 0 43 30z"/>
  <path fill="#36b99a" d="M43 44a15.044 15.044 0 0 0-15 15h30a15.044 15.044 0 0 0-15-15z"/>
  <path fill="#565a5c" d="M27 59a16.082 16.082 0 0 1 16-16 16.083 16.083 0 0 1 16 16zm2.04-1h27.92a14 14 0 0 0-27.92 0z"/>
  <circle fill="#83d5c2" cx="43" cy="36.5" r="7.5"/>
  <path fill="#36b99a" d="M58 59a15.044 15.044 0 0 0-15-15 15.044 15.044 0 0 0-15 15z"/>
  <path opacity=".4" fill="#fff" d="M43 44c-.506 0-1.006.027-1.5.076A15.052 15.052 0 0 1 55 59h3a15.044 15.044 0 0 0-15-15z"/>
  <path opacity=".4" fill="#fff" d="M43 29a7.554 7.554 0 0 0-1.5.15 7.5 7.5 0 0 1 0 14.7A7.5 7.5 0 1 0 43 29z"/>
  <path fill="#565a5c" d="M59.3 24.16a19.013 19.013 0 0 0-1.15-13.35 1.012 1.012 0 0 0-.9-.56h-.01a.967.967 0 0 0-.7.29l-9.87 9.87a5.006 5.006 0 0 1-7.08-7.08l9.87-9.87a1 1 0 0 0-.27-1.61 18.98 18.98 0 0 0-26.72 21.28L2.92 42.68a10 10 0 0 0 14.14 14.15l17.82-17.81a8.527 8.527 0 0 0 3.58 4.66A16.078 16.078 0 0 0 27 59a1.007 1.007 0 0 0 .29.71A1.033 1.033 0 0 0 28 60h30a1.033 1.033 0 0 0 .71-.29A1.007 1.007 0 0 0 59 59a16.078 16.078 0 0 0-11.46-15.32 8.492 8.492 0 0 0 3.96-7.18 8.085 8.085 0 0 0-.15-1.56 18.87 18.87 0 0 0 7.95-10.78zM56.96 58H29.04a14 14 0 0 1 27.92 0zM43 43a6.5 6.5 0 0 1-6.42-5.53 5.15 5.15 0 0 1-.08-.97 5.6 5.6 0 0 1 .1-1.09A6.495 6.495 0 0 1 49 34a6.428 6.428 0 0 1 .48 2.01c.01.16.02.32.02.49A6.513 6.513 0 0 1 43 43zm7.72-10.04A8.5 8.5 0 0 0 34.5 36.5v.06L15.65 55.41A8 8 0 0 1 4.33 44.1l19.95-19.95a1 1 0 0 0 .26-.96A16.98 16.98 0 0 1 47 3.09l-8.82 8.83a7 7 0 0 0 9.9 9.9l8.83-8.83a17.024 17.024 0 0 1 .46 10.63 16.842 16.842 0 0 1-6.65 9.34z"/>
</svg>
