<svg width="60" height="60" xmlns="http://www.w3.org/2000/svg" viewBox="0 0 60 60">
  <path fill="#5d5bc0" d="M.935 10h58.13v40H.934z"/>
  <path opacity=".4" fill="#fff" d="M56.5 10h3v40h-3z"/>
  <path opacity=".1" d="M0 10v3l28.8 25.882a1.777 1.777 0 0 0 2.4 0L60 13v-3z"/>
  <path fill="#8383c6" d="M30 36L.935 10h58.13L30 36"/>
  <path opacity=".4" fill="#fff" d="M55.323 10L28.13 34.267 30 36l29.065-26h-3.742"/>
  <path fill="#565a5c" d="M-.06 10v.11a.813.813 0 0 1 .02-.31 1.23 1.23 0 0 0-.02.2zM0 9.64a.94.94 0 0 0-.04.16.6.6 0 0 1 .06-.19c-.01.01-.02.02-.02.03zm60 0c0-.01-.01-.02-.02-.03a.6.6 0 0 1 .06.19.93.93 0 0 0-.04-.16zm.04.16a.813.813 0 0 1 .02.31V10a1.23 1.23 0 0 0-.02-.2z"/>
  <path fill="#565a5c" d="M60.04 9.8a.6.6 0 0 0-.06-.19.7.7 0 0 0-.09-.17 1.01 1.01 0 0 0-.83-.44H.94a1.01 1.01 0 0 0-.83.44.7.7 0 0 0-.09.17.6.6 0 0 0-.06.19 1.23 1.23 0 0 0-.02.2v40a1.23 1.23 0 0 0 .02.2.6.6 0 0 0 .06.19.7.7 0 0 0 .09.17 1.01 1.01 0 0 0 .83.44h58.12a1.01 1.01 0 0 0 .83-.44.7.7 0 0 0 .09-.17.6.6 0 0 0 .06-.19 1.23 1.23 0 0 0 .02-.2V10a1.23 1.23 0 0 0-.02-.2zM56.45 11L36.71 28.66 35.21 30 30 34.66 24.79 30l-1.5-1.34L3.55 11zM1.94 12.24L21.79 30 1.94 47.76zM3.55 49l19.74-17.66 6.04 5.41a1.023 1.023 0 0 0 1.34 0l6.04-5.41L56.45 49zm34.66-19l19.85-17.76v35.52z"/>
</svg>
