<svg xmlns="http://www.w3.org/2000/svg" height="60" width="60" viewBox="0 0 60 60">
  <g style="isolation:isolate;">
    <g>
      <path d="M.935 10h58.13v40H.934z" style="fill:#5d5bc0;"></path>
      <path d="M56.5 10h3v40h-3z" style="fill:#fff;opacity:0.4;mix-blend-mode:lighten;"></path>
      <path d="M30 24L.935 50h58.13L30 24z" style="fill:#5d5bc0;stroke:#565a5c;stroke-linecap:round;stroke-linejoin:round;stroke-width:2px;"></path>
      <path d="M0 10v3l28.8 25.882a1.777 1.777 0 0 0 2.4 0L60 13v-3z" style="opacity:0.1;mix-blend-mode:multiply;"></path>
      <path d="M30 36L.935 10h58.13L30 36z" style="fill:#8383c6;"></path>
      <path d="M55.323 10L28.13 34.267 30 36l29.065-26h-3.742z" style="fill:#fff;opacity:0.4;mix-blend-mode:lighten;"></path>
      <path d="M30 36L.935 10h58.13L30 36z" style="stroke:#565a5c;stroke-linecap:round;stroke-linejoin:round;stroke-width:2px;fill:none;"></path>
      <path d="M.935 10h58.13v40H.934z" style="stroke:#565a5c;stroke-linecap:round;stroke-linejoin:round;stroke-width:2px;fill:none;"></path>
    </g>
  </g>
</svg>
