<svg width="60" height="60" xmlns="http://www.w3.org/2000/svg" viewBox="0 0 60 60">
  <path fill="#70d070" d="M53 13h-8V7a6 6 0 0 0-6-6H21a6 6 0 0 0-6 6v6H7a6 6 0 0 0-6 6v34a6 6 0 0 0 6 6h46a6 6 0 0 0 6-6V19a6 6 0 0 0-6-6zM21 8a1 1 0 0 1 1-1h16a1 1 0 0 1 1 1v5H21z"/>
  <path opacity=".4" fill="#fff" d="M21 18V8a1 1 0 0 1 1-1h-3a1 1 0 0 0-1 1v10a1 1 0 0 0 1 1h3a1 1 0 0 1-1-1zM39 1h-3a6 6 0 0 1 6 6v12a6 6 0 0 1-6 6h3a6 6 0 0 0 6-6V7a6 6 0 0 0-6-6zM53 13h-3a6 6 0 0 1 6 6v34a6 6 0 0 1-6 6h3a6 6 0 0 0 6-6V19a6 6 0 0 0-6-6z"/>
  <path fill="#565a5c" d="M2.01 18.72a.01.01 0 0 0 .01.01.06.06 0 0 0-.01-.04z"/>
  <path opacity=".1" d="M2 15v9.423l21.737 21.053a9.114 9.114 0 0 0 12.582 0l21.68-21V15z"/>
  <path fill="#a9e4a8" d="M53 13H7a6 6 0 0 0-6 6 5.687 5.687 0 0 0 .886 1.136L25.824 43.32a6.1 6.1 0 0 0 8.408 0l23.82-23.07A5.66 5.66 0 0 0 59 19a6 6 0 0 0-6-6z"/>
  <path opacity=".4" fill="#fff" d="M53.342 13.017A6 6 0 0 1 56 18a5.66 5.66 0 0 1-.947 1.25l-23.82 23.07a6.022 6.022 0 0 1-4.594 1.644 6.1 6.1 0 0 0 7.592-.644l23.82-23.07A5.66 5.66 0 0 0 59 19a6 6 0 0 0-5.658-5.983z"/>
  <path fill="#565a5c" d="M53 12h-7V7a7.008 7.008 0 0 0-7-7H21a7.008 7.008 0 0 0-7 7v5H7a7.008 7.008 0 0 0-7 7v34a7.008 7.008 0 0 0 7 7h46a7.008 7.008 0 0 0 7-7V19a7.008 7.008 0 0 0-7-7zM16 7a5 5 0 0 1 5-5h18a5 5 0 0 1 5 5v5h-4V8a2.006 2.006 0 0 0-2-2H22a2.006 2.006 0 0 0-2 2v4h-4zm22 5H22V8h16zM2.01 18.69a.253.253 0 0 1 .02-.12.975.975 0 0 1 .01-.17 2.33 2.33 0 0 1 .04-.26 2.57 2.57 0 0 1 .08-.38 2.592 2.592 0 0 1 .11-.37 2.406 2.406 0 0 1 .08-.25.77.77 0 0 0 .07-.16c.04-.09.09-.18.14-.27a3.572 3.572 0 0 1 .18-.32 2.2 2.2 0 0 1 .21-.32 3.833 3.833 0 0 1 .37-.45c.07-.08.15-.16.23-.24a4.242 4.242 0 0 1 .39-.33 2.8 2.8 0 0 1 .35-.25 5.556 5.556 0 0 1 .53-.3c.1-.05.2-.09.3-.13a3.886 3.886 0 0 1 .44-.16c.16-.05.31-.08.47-.12A5.147 5.147 0 0 1 7 14h46a4.81 4.81 0 0 1 1.01.1c.14.03.29.07.43.11s.3.1.45.16a2.925 2.925 0 0 1 .4.19 4.206 4.206 0 0 1 .64.39l.24.18c.09.08.19.16.28.25.11.11.22.22.32.34a2.608 2.608 0 0 1 .26.32.174.174 0 0 0 .04.05 3.038 3.038 0 0 1 .24.38 2.784 2.784 0 0 1 .22.42 3.264 3.264 0 0 1 .18.43 4.36 4.36 0 0 1 .22.88.674.674 0 0 1 .02.14 1.267 1.267 0 0 1 .03.28.486.486 0 0 1 .01.12v.01a5.37 5.37 0 0 1-.63.78L33.54 42.6a5.093 5.093 0 0 1-7.02 0L2.59 19.43a4.25 4.25 0 0 1-.57-.7.01.01 0 0 1-.01-.01zM58 53a5 5 0 0 1-5 5H7a5 5 0 0 1-5-5V21.63l23.14 22.41a7.092 7.092 0 0 0 9.79 0L58 21.7z"/>
  <path opacity=".1" d="M16 10h4v2h-4zM40 10h4v2h-4z"/>
  <path fill="#fcc02d" d="M30 35a3 3 0 0 1 3 3 3 3 0 0 1-3 3 3 3 0 0 1-3-3 3 3 0 0 1 3-3z"/>
  <path opacity=".4" fill="#fff" d="M30 35a2.956 2.956 0 0 0-1.5.42 2.97 2.97 0 0 1 0 5.16A2.956 2.956 0 0 0 30 41a3 3 0 0 0 0-6z"/>
  <path fill="#565a5c" d="M30 42a4 4 0 1 1 4-4 4 4 0 0 1-4 4zm0-6a2 2 0 1 0 2 2 2 2 0 0 0-2-2z"/>
</svg>
