<svg xmlns="http://www.w3.org/2000/svg" height="60" width="60" viewBox="0 0 60 60">
  <g style="isolation:isolate;">
    <g>
      <path d="M39 1H21a6 6 0 0 0-6 6v12a6 6 0 0 0 6 6h18a6 6 0 0 0 6-6V7a6 6 0 0 0-6-6zm0 17a1 1 0 0 1-1 1H22a1 1 0 0 1-1-1V8a1 1 0 0 1 1-1h16a1 1 0 0 1 1 1z" style="fill:#64bd65;"></path>
      <g style="opacity:0.4;mix-blend-mode:lighten;">
        <path d="M21 18V8a1 1 0 0 1 1-1h-3a1 1 0 0 0-1 1v10a1 1 0 0 0 1 1h3a1 1 0 0 1-1-1zM39 1h-3a6 6 0 0 1 6 6v12a6 6 0 0 1-6 6h3a6 6 0 0 0 6-6V7a6 6 0 0 0-6-6z" style="fill:#fff;"></path>
      </g>
      <path d="M39 1H21a6 6 0 0 0-6 6v12a6 6 0 0 0 6 6h18a6 6 0 0 0 6-6V7a6 6 0 0 0-6-6zm0 17a1 1 0 0 1-1 1H22a1 1 0 0 1-1-1V8a1 1 0 0 1 1-1h16a1 1 0 0 1 1 1z" style="fill:none;stroke:#565a5c;stroke-linecap:round;stroke-linejoin:round;stroke-width:2px;"></path>
      <rect x="1" y="13" width="58" height="46" rx="6" ry="6" style="fill:#70d070;"></rect>
      <path d="M53 13h-3a6 6 0 0 1 6 6v34a6 6 0 0 1-6 6h3a6 6 0 0 0 6-6V19a6 6 0 0 0-6-6z" style="opacity:0.4;mix-blend-mode:lighten;fill:#fff;"></path>
      <rect x="1" y="13" width="58" height="46" rx="6" ry="6" style="fill:none;stroke:#565a5c;stroke-linecap:round;stroke-linejoin:round;stroke-width:2px;"></rect>
      <path d="M2 15v9.423l21.737 21.053a9.114 9.114 0 0 0 12.582 0l21.68-21V15z" style="opacity:0.1;mix-blend-mode:multiply;"></path>
      <path d="M53 13H7a6 6 0 0 0-6 6 5.687 5.687 0 0 0 .886 1.136L25.824 43.32a6.1 6.1 0 0 0 8.408 0l23.82-23.07A5.66 5.66 0 0 0 59 19a6 6 0 0 0-6-6z" style="fill:#a9e4a8;"></path>
      <path d="M53.342 13.017A6 6 0 0 1 56 18a5.66 5.66 0 0 1-.947 1.25l-23.82 23.07a6.022 6.022 0 0 1-4.594 1.644 6.1 6.1 0 0 0 7.592-.644l23.82-23.07A5.66 5.66 0 0 0 59 19a6 6 0 0 0-5.658-5.983z" style="opacity:0.4;mix-blend-mode:lighten;fill:#fff;"></path>
      <path d="M53 13H7a6 6 0 0 0-6 6 5.687 5.687 0 0 0 .886 1.136L25.824 43.32a6.1 6.1 0 0 0 8.408 0l23.82-23.07A5.66 5.66 0 0 0 59 19a6 6 0 0 0-6-6z" style="fill:none;stroke:#565a5c;stroke-linecap:round;stroke-linejoin:round;stroke-width:2px;"></path>
      <path d="M16 10h4v2h-4zM40 10h4v2h-4z" style="opacity:0.1;mix-blend-mode:multiply;"></path>
      <rect x="27" y="35" width="6" height="6" rx="3" ry="3" style="fill:#fcc02d;"></rect>
      <path d="M30 35a2.956 2.956 0 0 0-1.5.42 2.97 2.97 0 0 1 0 5.16A2.956 2.956 0 0 0 30 41a3 3 0 0 0 0-6z" style="opacity:0.4;mix-blend-mode:lighten;fill:#fff;"></path>
      <rect x="27" y="35" width="6" height="6" rx="3" ry="3" style="fill:none;stroke:#565a5c;stroke-linecap:round;stroke-linejoin:round;stroke-width:2px;"></rect>
    </g>
  </g>
</svg>
