<svg xmlns="http://www.w3.org/2000/svg" height="60" width="60" viewBox="0 0 60 60">
  <g style="isolation:isolate;">
    <g>
      <path d="M11 7h44v52H11z" style="fill:#e48722;"></path>
      <path d="M52 7h3v52h-3z" style="fill:#fff;opacity:0.4;mix-blend-mode:lighten;"></path>
      <path d="M12 8h40v48H12z" style="opacity:0.1;mix-blend-mode:multiply;"></path>
      <path d="M11 7h44v52H11z" style="fill:none;stroke:#565a5c;stroke-linecap:round;stroke-linejoin:round;stroke-width:2px;"></path>
      <path d="M5 1h44v52H5z" style="fill:#fcc02d;"></path>
      <path d="M46 1h3v52h-3z" style="fill:#fff;opacity:0.4;mix-blend-mode:lighten;"></path>
      <circle cx="13" cy="9" r="2" style="stroke:#565a5c;stroke-linecap:round;stroke-linejoin:round;stroke-width:2px;fill:#b497c4;"></circle>
      <circle cx="13" cy="18" r="2" style="stroke:#565a5c;stroke-linecap:round;stroke-linejoin:round;stroke-width:2px;fill:#b497c4;"></circle>
      <circle cx="13" cy="27" r="2" style="stroke:#565a5c;stroke-linecap:round;stroke-linejoin:round;stroke-width:2px;fill:#b497c4;"></circle>
      <circle cx="13" cy="36" r="2" style="stroke:#565a5c;stroke-linecap:round;stroke-linejoin:round;stroke-width:2px;fill:#b497c4;"></circle>
      <circle cx="13" cy="45" r="2" style="stroke:#565a5c;stroke-linecap:round;stroke-linejoin:round;stroke-width:2px;fill:#b497c4;"></circle>
      <circle cx="33" cy="45" r="2" style="stroke:#565a5c;stroke-linecap:round;stroke-linejoin:round;stroke-width:2px;fill:#b497c4;"></circle>
      <path d="M19 7h20M19 11h15M19 43h8M19 47h8M19 34h8M19 38h8M19 25h1M19 20h1M19 29h2M19 16h3" style="fill:none;stroke:#565a5c;stroke-linecap:round;stroke-linejoin:round;stroke-width:2px;"></path>
      <path d="M33 15a10 10 0 0 0-10 10 2 2 0 1 0 4 0 6 6 0 1 1 6 6 2.006 2.006 0 0 0-2 2v4a2 2 0 0 0 4 0v-2.2A10 10 0 0 0 33 15z" style="stroke:#565a5c;stroke-linecap:round;stroke-linejoin:round;stroke-width:2px;fill:#b497c4;"></path>
      <path d="M5 1h44v52H5z" style="fill:none;stroke:#565a5c;stroke-linecap:round;stroke-linejoin:round;stroke-width:2px;"></path>
    </g>
  </g>
</svg>
