<svg width="60" height="60" xmlns="http://www.w3.org/2000/svg" viewBox="0 0 60 60">
  <path fill="#e48722" d="M11 7h44v52H11z"/>
  <path opacity=".4" fill="#fff" d="M52 7h3v52h-3z"/>
  <path opacity=".1" d="M12 8h40v48H12z"/>
  <path fill="#fcc02d" d="M5 1h44v52H5z"/>
  <path opacity=".4" fill="#fff" d="M46 1h3v52h-3z"/>
  <circle fill="#b497c4" cx="13" cy="9" r="2"/>
  <path fill="#565a5c" d="M13 12a3 3 0 1 1 3-3 3 3 0 0 1-3 3zm0-4a1 1 0 1 0 1 1 1 1 0 0 0-1-1z"/>
  <circle fill="#b497c4" cx="13" cy="18" r="2"/>
  <path fill="#565a5c" d="M13 21a3 3 0 1 1 3-3 3 3 0 0 1-3 3zm0-4a1 1 0 1 0 1 1 1 1 0 0 0-1-1z"/>
  <circle fill="#b497c4" cx="13" cy="27" r="2"/>
  <path fill="#565a5c" d="M13 30a3 3 0 1 1 3-3 3 3 0 0 1-3 3zm0-4a1 1 0 1 0 1 1 1 1 0 0 0-1-1z"/>
  <circle fill="#b497c4" cx="13" cy="36" r="2"/>
  <path fill="#565a5c" d="M13 39a3 3 0 1 1 3-3 3 3 0 0 1-3 3zm0-4a1 1 0 1 0 1 1 1 1 0 0 0-1-1z"/>
  <circle fill="#b497c4" cx="13" cy="45" r="2"/>
  <path fill="#565a5c" d="M13 48a3 3 0 1 1 3-3 3 3 0 0 1-3 3zm0-4a1 1 0 1 0 1 1 1 1 0 0 0-1-1z"/>
  <circle fill="#b497c4" cx="33" cy="45" r="2"/>
  <path fill="#565a5c" d="M33 48a3 3 0 1 1 3-3 3 3 0 0 1-3 3zm0-4a1 1 0 1 0 1 1 1 1 0 0 0-1-1zM39 8H19a1 1 0 0 1 0-2h20a1 1 0 0 1 0 2zM34 12H19a1 1 0 0 1 0-2h15a1 1 0 0 1 0 2zM27 44h-8a1 1 0 0 1 0-2h8a1 1 0 0 1 0 2zM27 48h-8a1 1 0 0 1 0-2h8a1 1 0 0 1 0 2zM27 35h-8a1 1 0 0 1 0-2h8a1 1 0 0 1 0 2zM27 39h-8a1 1 0 0 1 0-2h8a1 1 0 0 1 0 2zM20 26h-1a1 1 0 0 1 0-2h1a1 1 0 0 1 0 2zM20 21h-1a1 1 0 0 1 0-2h1a1 1 0 0 1 0 2zM21 30h-2a1 1 0 0 1 0-2h2a1 1 0 0 1 0 2zM22 17h-3a1 1 0 0 1 0-2h3a1 1 0 0 1 0 2zM33 15a10 10 0 0 0-10 10 2 2 0 0 0 4 0 6 6 0 1 1 6 6 2.006 2.006 0 0 0-2 2v4a2 2 0 0 0 4 0v-2.2A10 10 0 0 0 33 15z"/>
  <path fill="#565a5c" d="M33 40a3 3 0 0 1-3-3v-4a3.01 3.01 0 0 1 3-3 5 5 0 1 0-5-5 3 3 0 0 1-6 0 11.013 11.013 0 0 1 11-11h.012A11 11 0 0 1 36 35.587V37a3 3 0 0 1-3 3zm0-22a7 7 0 0 1 0 14 1.006 1.006 0 0 0-1 1v4a1 1 0 0 0 2 0v-2.2a1 1 0 0 1 .8-.98 9 9 0 0 0 7.028-10.61A9.025 9.025 0 0 0 33.01 16H33a9.01 9.01 0 0 0-9 9 1 1 0 0 0 2 0 7.008 7.008 0 0 1 7-7zM10 52v2h2v-2z"/>
  <path fill="#565a5c" d="M56 7v52a1 1 0 0 1-1 1H11a1 1 0 0 1-1-1v-5h2v4h42V8h-4v45a1 1 0 0 1-1 1H12v-2h36V2H6v50h4v2H5a1 1 0 0 1-1-1V1a1 1 0 0 1 1-1h44a1 1 0 0 1 1 1v5h5a1 1 0 0 1 1 1z"/>
</svg>
