<svg width="60" height="60" xmlns="http://www.w3.org/2000/svg" viewBox="0 0 60 60">
  <path fill="#5d5bc0" d="M11 7h44v52H11z"/>
  <path opacity=".4" fill="#fff" d="M52 7h3v52h-3z"/>
  <path opacity=".1" d="M11 7.39h41V56H11z"/>
  <path fill="#565a5c" d="M55 60H11a1 1 0 0 1-1-1V7a1 1 0 0 1 1-1h44a1 1 0 0 1 1 1v52a1 1 0 0 1-1 1zm-43-2h42V8H12z"/>
  <path opacity=".4" fill="#fff" d="M46 1h3v52h-3z"/>
  <path fill="#9ac965" d="M5 2h44v51H5z"/>
  <path fill="#565a5c" d="M24.32 7h-15a1 1 0 0 1 0-2h15a1 1 0 0 1 0 2zM19.32 21h-10a1 1 0 0 1 0-2h10a1 1 0 0 1 0 2zM16.32 35h-7a1 1 0 0 1 0-2h7a1 1 0 0 1 0 2z"/>
  <path fill="#feed58" d="M9 10h25.534v3.842H9z"/>
  <path fill="#565a5c" d="M37.32 35h-7a1 1 0 0 1 0-2h7a1 1 0 0 1 0 2z"/>
  <path fill="#feed58" d="M9 24h35.82v3.842H9zM9 38.516h14.598v3.326H9zM30 38.516h14.598v3.326H30z"/>
  <path fill="#565a5c" d="M24.32 49h-15a1 1 0 0 1 0-2h15a1 1 0 0 1 0 2zM43.32 49h-15a1 1 0 0 1 0-2h15a1 1 0 0 1 0 2z"/>
  <path opacity=".4" fill="#fff" d="M46 1h3v52h-3z"/>
  <path fill="#565a5c" d="M49 54H5a1 1 0 0 1-1-1V1a1 1 0 0 1 1-1h44a1 1 0 0 1 1 1v52a1 1 0 0 1-1 1zM6 52h42V2H6z"/>
  <path opacity=".1" d="M21 37.515h3v3.97h-3z"/>
  <path fill="#565a5c" d="M23 43H10a2 2 0 0 1-2-2v-2a2 2 0 0 1 2-2h13a2 2 0 0 1 2 2v2a2 2 0 0 1-2 2zm0-2zm-13-2v2h13v-2z"/>
  <path opacity=".1" d="M42 37.515h3v3.97h-3z"/>
  <path fill="#565a5c" d="M44 43H31a2 2 0 0 1-2-2v-2a2 2 0 0 1 2-2h13a2 2 0 0 1 2 2v2a2 2 0 0 1-2 2zm0-2zm-13-2v2h13v-2z"/>
  <path opacity=".1" d="M42 24.515h3v3.97h-3z"/>
  <path fill="#565a5c" d="M44 29H10a2 2 0 0 1-2-2v-2a2 2 0 0 1 2-2h34a2 2 0 0 1 2 2v2a2 2 0 0 1-2 2zm0-2zm-34-2v2h34v-2z"/>
  <path opacity=".1" d="M32 10.515h3v3.97h-3z"/>
  <path fill="#565a5c" d="M34 15H10a2 2 0 0 1-2-2v-2a2 2 0 0 1 2-2h24a2 2 0 0 1 2 2v2a2 2 0 0 1-2 2zm0-2zm-24-2v2h24v-2z"/>
</svg>
