<svg xmlns="http://www.w3.org/2000/svg" height="60" width="60" viewBox="0 0 60 60">
  <g style="isolation:isolate;">
    <g>
      <path d="M1 5h58v54H1z" style="fill:#d66dac;"></path>
      <path d="M1 5h58v54H1z" style="fill:none;stroke:#565a5c;stroke-linecap:round;stroke-linejoin:round;stroke-width:2px;"></path>
      <path d="M5 51h50v8H5z" style="stroke:#565a5c;stroke-linecap:round;stroke-linejoin:round;stroke-width:2px;fill:#d3e057;"></path>
      <path d="M26 1H5v50h21a4 4 0 0 1 4 4V5a4 4 0 0 0-4-4z" style="fill:#e5ed97;"></path>
      <path d="M26 1h-3a4 4 0 0 1 4 4v46.14A3.99 3.99 0 0 1 30 55V5a4 4 0 0 0-4-4z" style="fill:#fff;opacity:0.4;mix-blend-mode:lighten;"></path>
      <path d="M34 1h21v50H34a4 4 0 0 0-4 4V5a4 4 0 0 1 4-4z" style="fill:#e5ed97;"></path>
      <path d="M33 5a4 4 0 0 1 4-4h-3a4 4 0 0 0-4 4v50a3.99 3.99 0 0 1 3-3.86z" style="opacity:0.1;mix-blend-mode:multiply;"></path>
      <g style="opacity:0.4;mix-blend-mode:lighten;">
        <path d="M30 51.14V55a4 4 0 0 1 4-4h-3a3.966 3.966 0 0 0-1 .14zM52 1h3v50h-3z" style="fill:#fff;"></path>
      </g>
      <path d="M5 55h21M11 8h13M11 12h13M11 16h13M11 20h13M11 24h13M11 28h13M11 32h13M11 36h13M11 40h13M11 44h13M36 8h13M36 12h13M36 16h13M36 20h13M36 24h13M36 28h13M36 32h13M36 36h13M36 40h13M36 44h13M34 55h21M26 1H5v50h21a4 4 0 0 1 4 4V5a4 4 0 0 0-4-4zM34 1h21v50H34a4 4 0 0 0-4 4V5a4 4 0 0 1 4-4z" style="fill:none;stroke:#565a5c;stroke-linecap:round;stroke-linejoin:round;stroke-width:2px;"></path>
    </g>
  </g>
</svg>
