<svg width="60" height="60" xmlns="http://www.w3.org/2000/svg" viewBox="0 0 60 60">
  <path fill="#d66dac" d="M1 5h58v54H1z"/>
  <path fill="#d3e057" d="M5 51h50v8H5z"/>
  <path fill="#565a5c" d="M31 50v1a4.985 4.985 0 0 1 3-1z"/>
  <path fill="#e5ed97" d="M26 1H5v50h21a4 4 0 0 1 4 4V5a4 4 0 0 0-4-4z"/>
  <path opacity=".4" fill="#fff" d="M26 1h-3a4 4 0 0 1 4 4v46.14A3.99 3.99 0 0 1 30 55V5a4 4 0 0 0-4-4z"/>
  <path fill="#e5ed97" d="M34 1h21v50H34a4 4 0 0 0-4 4V5a4 4 0 0 1 4-4z"/>
  <path opacity=".1" d="M33 5a4 4 0 0 1 4-4h-3a4 4 0 0 0-4 4v50a3.99 3.99 0 0 1 3-3.86z"/>
  <path opacity=".4" fill="#fff" d="M30 51.14V55a4 4 0 0 1 4-4h-3a3.966 3.966 0 0 0-1 .14zM52 1h3v50h-3z"/>
  <path fill="#565a5c" d="M24 9H11a1 1 0 0 1 0-2h13a1 1 0 0 1 0 2zM24 13H11a1 1 0 0 1 0-2h13a1 1 0 0 1 0 2zM24 17H11a1 1 0 0 1 0-2h13a1 1 0 0 1 0 2zM24 21H11a1 1 0 0 1 0-2h13a1 1 0 0 1 0 2zM24 25H11a1 1 0 0 1 0-2h13a1 1 0 0 1 0 2zM24 29H11a1 1 0 0 1 0-2h13a1 1 0 0 1 0 2zM24 33H11a1 1 0 0 1 0-2h13a1 1 0 0 1 0 2zM24 37H11a1 1 0 0 1 0-2h13a1 1 0 0 1 0 2zM24 41H11a1 1 0 0 1 0-2h13a1 1 0 0 1 0 2zM24 45H11a1 1 0 0 1 0-2h13a1 1 0 0 1 0 2zM49 9H36a1 1 0 0 1 0-2h13a1 1 0 0 1 0 2zM49 13H36a1 1 0 0 1 0-2h13a1 1 0 0 1 0 2zM49 17H36a1 1 0 0 1 0-2h13a1 1 0 0 1 0 2zM49 21H36a1 1 0 0 1 0-2h13a1 1 0 0 1 0 2zM49 25H36a1 1 0 0 1 0-2h13a1 1 0 0 1 0 2zM49 29H36a1 1 0 0 1 0-2h13a1 1 0 0 1 0 2zM49 33H36a1 1 0 0 1 0-2h13a1 1 0 0 1 0 2zM49 37H36a1 1 0 0 1 0-2h13a1 1 0 0 1 0 2zM49 41H36a1 1 0 0 1 0-2h13a1 1 0 0 1 0 2zM49 45H36a1 1 0 0 1 0-2h13a1 1 0 0 1 0 2z"/>
  <path fill="#565a5c" d="M59 4h-3V1a1 1 0 0 0-1-1H34a5.01 5.01 0 0 0-4 2 5 5 0 0 0-4-2H5a1 1 0 0 0-1 1v3H1a1 1 0 0 0-1 1v54a1 1 0 0 0 1 1h58a1 1 0 0 0 1-1V5a1 1 0 0 0-1-1zM4 58H2V6h2zM6 2h20a3 3 0 0 1 2.82 2A2.772 2.772 0 0 1 29 5v46a4.985 4.985 0 0 0-3-1H6zm48 52H34a1 1 0 0 0 0 2h20v2H6v-2h20a1 1 0 0 0 0-2H6v-2h20a3.01 3.01 0 0 1 3 3 1 1 0 0 0 2 0 3.01 3.01 0 0 1 3-3h20zm0-4H34a4.985 4.985 0 0 0-3 1V5a2.772 2.772 0 0 1 .18-1A3 3 0 0 1 34 2h20zm4 8h-2V6h2z"/>
</svg>
