<svg xmlns="http://www.w3.org/2000/svg" height="60" width="60" viewBox="0 0 60 60">
  <g style="isolation:isolate;">
    <g>
      <path d="M19.404 13.777L5.62 51.647l13.315-5.16L25.818 59l13.785-37.87-20.2-7.353z" style="fill:#e5d64f;"></path>
      <g style="opacity:0.4;mix-blend-mode:lighten;">
        <path d="M15.936 46.488l-9.823 3.807-.493 1.353 10.842-4.202-.526-.958zM19.404 13.777l-.35.964 17.55 6.388-12.59 34.59L25.817 59l13.785-37.872-20.2-7.35z" style="fill:#fff;"></path>
      </g>
      <path d="M28.5 17.088l-11.103 4.04L28.5 51.632l1.5-4.12-9.603-26.384L30 17.634l-1.5-.546z" style="opacity:0.1;mix-blend-mode:multiply;"></path>
      <path d="M19.404 13.777L5.62 51.647l13.315-5.16L25.818 59l13.785-37.87-20.2-7.353z" style="fill:none;stroke:#565a5c;stroke-linecap:round;stroke-linejoin:round;stroke-width:2px;"></path>
      <path d="M40.596 13.777l13.784 37.87-13.315-5.16L34.182 59 20.398 21.13l20.198-7.353z" style="fill:#feed58;"></path>
      <g style="opacity:0.4;mix-blend-mode:lighten;">
        <path d="M50.887 50.295l3.493 1.353-13.784-37.87-2.65.963 12.94 35.555zM38.064 46.488l-5.077 9.23L34.182 59l6.356-11.554-2.474-.958z" style="fill:#fff;"></path>
      </g>
      <path d="M40.596 13.777l13.784 37.87-13.315-5.16L34.182 59 20.398 21.13l20.198-7.353z" style="fill:none;stroke:#565a5c;stroke-linecap:round;stroke-linejoin:round;stroke-width:2px;"></path>
      <path d="M47.265 21.464a6.706 6.706 0 0 0-3.425-5.815 6.648 6.648 0 0 0-8.224-8.224A6.706 6.706 0 0 0 29.8 4a6.706 6.706 0 0 0-5.815 3.426 6.7 6.7 0 0 0-6.534 1.69 6.706 6.706 0 0 0-1.69 6.533 6.65 6.65 0 0 0 0 11.63 6.706 6.706 0 0 0 1.69 6.533 6.705 6.705 0 0 0 6.536 1.687 6.707 6.707 0 0 0 5.814 3.428 6.707 6.707 0 0 0 5.816-3.428 6.648 6.648 0 0 0 8.224-8.223 6.706 6.706 0 0 0 3.425-5.813z" class="cls-5" style="opacity:0.1;mix-blend-mode:multiply;"></path>
      <path d="M47.265 18.464a6.706 6.706 0 0 0-3.425-5.815 6.648 6.648 0 0 0-8.224-8.224A6.706 6.706 0 0 0 29.8 1a6.706 6.706 0 0 0-5.815 3.426 6.7 6.7 0 0 0-6.534 1.69 6.706 6.706 0 0 0-1.69 6.533 6.65 6.65 0 0 0 0 11.63 6.706 6.706 0 0 0 1.69 6.533 6.705 6.705 0 0 0 6.536 1.687 6.707 6.707 0 0 0 5.814 3.428 6.707 6.707 0 0 0 5.816-3.428 6.648 6.648 0 0 0 8.224-8.223 6.706 6.706 0 0 0 3.425-5.813z" style="fill:#86509e;"></path>
      <g style="opacity:0.4;mix-blend-mode:lighten;">
        <path d="M20.986 32.5c-.11.03-.224.044-.335.07.144.032.288.053.432.076-.03-.046-.067-.093-.096-.146zM32.616 4.426a6.866 6.866 0 0 1 2.9-.146A6.69 6.69 0 0 0 29.8 1a6.548 6.548 0 0 0-1.5.187 6.76 6.76 0 0 1 4.316 3.24zM21.083 4.28c-.144.022-.29.043-.43.076.11.025.224.04.334.07.028-.05.065-.097.096-.147zM32.616 32.5a6.762 6.762 0 0 1-4.316 3.242 6.548 6.548 0 0 0 1.5.187 6.69 6.69 0 0 0 5.72-3.28 6.878 6.878 0 0 1-2.904-.15zM47.265 18.464a6.706 6.706 0 0 0-3.425-5.815 6.63 6.63 0 0 0-7.89-8.293 6.558 6.558 0 0 1 3.2 1.76 6.706 6.706 0 0 1 1.69 6.533 6.65 6.65 0 0 1 0 11.63 6.706 6.706 0 0 1-1.69 6.534 6.568 6.568 0 0 1-3.2 1.76 6.63 6.63 0 0 0 7.89-8.294 6.706 6.706 0 0 0 3.425-5.816z" style="fill:#fff;"></path>
      </g>
      <circle cx="29.801" cy="18.464" r="6.717" style="fill:#d3e057;"></circle>
      <path d="M29.8 11.747a6.718 6.718 0 0 0-1.5.174 6.71 6.71 0 0 1 0 13.087 6.715 6.715 0 1 0 1.5-13.26z" style="opacity:0.4;mix-blend-mode:lighten;fill:#fff;"></path>
      <circle cx="29.801" cy="18.464" r="6.717" style="stroke:#565a5c;stroke-linecap:round;stroke-linejoin:round;stroke-width:2px;fill:#feed58;"></circle>
      <path d="M47.265 18.464a6.706 6.706 0 0 0-3.425-5.815 6.648 6.648 0 0 0-8.224-8.224A6.706 6.706 0 0 0 29.8 1a6.706 6.706 0 0 0-5.815 3.426 6.7 6.7 0 0 0-6.534 1.69 6.706 6.706 0 0 0-1.69 6.533 6.65 6.65 0 0 0 0 11.63 6.706 6.706 0 0 0 1.69 6.533 6.705 6.705 0 0 0 6.536 1.687 6.707 6.707 0 0 0 5.814 3.428 6.707 6.707 0 0 0 5.816-3.428 6.648 6.648 0 0 0 8.224-8.223 6.706 6.706 0 0 0 3.425-5.813z" style="fill:none;stroke:#565a5c;stroke-linecap:round;stroke-linejoin:round;stroke-width:2px;"></path>
    </g>
  </g>
</svg>
