<svg xmlns="http://www.w3.org/2000/svg" height="60" width="60" viewBox="0 0 60 60">
  <g style="isolation:isolate;">
    <g>
      <path d="M31 36a15.044 15.044 0 0 0-15-15A15.044 15.044 0 0 0 1 36z" style="fill:#5554ab;"></path>
      <path d="M16 21c-.506 0-1.006.027-1.5.076A15.052 15.052 0 0 1 28 36h3a15.044 15.044 0 0 0-15-15z" style="fill:#fff;opacity:0.4;mix-blend-mode:lighten;"></path>
      <path d="M31 36a15.044 15.044 0 0 0-15-15A15.044 15.044 0 0 0 1 36z" style="fill:none;stroke:#565a5c;stroke-width:2px;stroke-linecap:round;stroke-linejoin:round;"></path>
      <circle cx="16" cy="13.5" r="7.5" style="fill:#9e9ed7;"></circle>
      <circle cx="44" cy="13.5" r="7.5" style="fill:#9e9ed7;"></circle>
      <path d="M59 36a15.044 15.044 0 0 0-15-15 15.044 15.044 0 0 0-15 15z" style="fill:#5554ab;"></path>
      <path d="M16 6a7.554 7.554 0 0 0-1.5.15 7.5 7.5 0 0 1 0 14.7A7.5 7.5 0 1 0 16 6z" style="fill:#fff;opacity:0.4;mix-blend-mode:lighten;"></path>
      <circle cx="16" cy="13.5" r="7.5" style="fill:none;stroke:#565a5c;stroke-width:2px;stroke-miterlimit:10;"></circle>
      <path d="M44 21c-.506 0-1.006.027-1.5.076A15.052 15.052 0 0 1 56 36h3a15.044 15.044 0 0 0-15-15z" style="fill:#fff;opacity:0.4;mix-blend-mode:lighten;"></path>
      <path d="M59 36a15.044 15.044 0 0 0-15-15 15.044 15.044 0 0 0-15 15z" style="fill:none;stroke:#565a5c;stroke-width:2px;stroke-linecap:round;stroke-linejoin:round;"></path>
      <path d="M44 6a7.554 7.554 0 0 0-1.5.15 7.5 7.5 0 0 1 0 14.7A7.5 7.5 0 1 0 44 6z" style="fill:#fff;opacity:0.4;mix-blend-mode:lighten;"></path>
      <circle cx="44" cy="13.5" r="7.5" style="fill:none;stroke:#565a5c;stroke-width:2px;stroke-miterlimit:10;"></circle>
      <path d="M50 54a20.06 20.06 0 0 0-20-20 20.06 20.06 0 0 0-20 20z" style="fill:#5d5bc0;"></path>
      <path d="M30 34c-.675 0-1.342.036-2 .1A20.07 20.07 0 0 1 46 54h4a20.06 20.06 0 0 0-20-20z" style="fill:#fff;opacity:0.4;mix-blend-mode:lighten;"></path>
      <path d="M50 54a20.06 20.06 0 0 0-20-20 20.06 20.06 0 0 0-20 20z" style="fill:none;stroke:#565a5c;stroke-width:2px;stroke-linecap:round;stroke-linejoin:round;"></path>
      <circle cx="30" cy="24" r="10" style="fill:#9e9ed7;"></circle>
      <path d="M30 14a10.072 10.072 0 0 0-2 .2 10 10 0 0 1 0 19.6A10 10 0 1 0 30 14z" style="fill:#fff;opacity:0.4;mix-blend-mode:lighten;"></path>
      <circle cx="30" cy="24" r="10" style="fill:none;stroke:#565a5c;stroke-width:2px;stroke-miterlimit:10;"></circle>
    </g>
  </g>
</svg>
