<svg xmlns="http://www.w3.org/2000/svg" height="60" width="60" viewBox="0 0 60 60">
  <g style="isolation:isolate;">
    <g>
      <circle cx="30" cy="30" r="29" style="fill:#70d070;"></circle>
      <path d="M30 1q-.755 0-1.5.038a29 29 0 0 1 0 57.923q.745.04 1.5.04a29 29 0 1 0 0-58z" style="fill:#fff;opacity:0.4;mix-blend-mode:lighten;"></path>
      <circle cx="30" cy="30" r="29" style="fill:none;stroke:#565a5c;stroke-linecap:round;stroke-linejoin:round;stroke-width:2px;"></circle>
      <rect x="27" y="47" width="6" height="6" rx="3" ry="3" style="fill:#fcc02d;"></rect>
      <path d="M30 47a2.956 2.956 0 0 0-1.5.42 2.97 2.97 0 0 1 0 5.16A2.956 2.956 0 0 0 30 53a3 3 0 1 0 0-6z" style="fill:#fff;opacity:0.4;mix-blend-mode:lighten;"></path>
      <rect x="27" y="47" width="6" height="6" rx="3" ry="3" style="fill:none;stroke:#565a5c;stroke-linecap:round;stroke-linejoin:round;stroke-width:2px;"></rect>
      <path d="M44 21a14 14 0 0 0-28 0 3 3 0 0 0 6 0 8 8 0 1 1 8 8 3.01 3.01 0 0 0-3 3v8a3 3 0 1 0 6 0v-5.33A14 14 0 0 0 44 21z" style="fill:#fcc02d;"></path>
      <g style="opacity:0.4;mix-blend-mode:lighten;">
        <path d="M28.5 13.146A7.983 7.983 0 0 0 19 21a3 3 0 0 1-1.5 2.58A2.958 2.958 0 0 0 19 24a3.01 3.01 0 0 0 3-3 8 8 0 0 1 6.5-7.854zM30 7a14.16 14.16 0 0 0-1.5.083A14 14 0 0 1 30 34.67V40a3 3 0 0 1-1.5 2.58A2.956 2.956 0 0 0 30 43a3.01 3.01 0 0 0 3-3v-5.33A14 14 0 0 0 30 7z" style="fill:#fff;"></path>
      </g>
      <path d="M44 21a14 14 0 0 0-28 0 3 3 0 0 0 6 0 8 8 0 1 1 8 8 3.01 3.01 0 0 0-3 3v8a3 3 0 1 0 6 0v-5.33A14 14 0 0 0 44 21z" style="fill:none;stroke:#565a5c;stroke-linecap:round;stroke-linejoin:round;stroke-width:2px;"></path>
    </g>
  </g>
</svg>
