<svg width="60" height="60" xmlns="http://www.w3.org/2000/svg" viewBox="0 0 60 60">
  <circle fill="#70d070" cx="30" cy="30" r="29"/>
  <path opacity=".4" fill="#fff" d="M30 1q-.755 0-1.5.038a29 29 0 0 1 0 57.923q.745.04 1.5.04a29 29 0 0 0 0-58z"/>
  <path fill="#565a5c" d="M30 60a30 30 0 1 1 30-30 30.034 30.034 0 0 1-30 30zm0-58a28 28 0 1 0 28 28A28.03 28.03 0 0 0 30 2z"/>
  <path fill="#fcc02d" d="M30 47a3 3 0 0 1 3 3 3 3 0 0 1-3 3 3 3 0 0 1-3-3 3 3 0 0 1 3-3z"/>
  <path opacity=".4" fill="#fff" d="M30 47a2.956 2.956 0 0 0-1.5.42 2.97 2.97 0 0 1 0 5.16A2.956 2.956 0 0 0 30 53a3 3 0 0 0 0-6z"/>
  <path fill="#565a5c" d="M30 54a4 4 0 1 1 4-4 4 4 0 0 1-4 4zm0-6a2 2 0 1 0 2 2 2 2 0 0 0-2-2z"/>
  <path fill="#fcc02d" d="M44 21a14 14 0 0 0-28 0 3 3 0 0 0 6 0 8 8 0 1 1 8 8 3.01 3.01 0 0 0-3 3v8a3 3 0 0 0 6 0v-5.33A14 14 0 0 0 44 21z"/>
  <path opacity=".4" fill="#fff" d="M28.5 13.146A7.983 7.983 0 0 0 19 21a3 3 0 0 1-1.5 2.58A2.958 2.958 0 0 0 19 24a3.01 3.01 0 0 0 3-3 8 8 0 0 1 6.5-7.854zM30 7a14.16 14.16 0 0 0-1.5.083A14 14 0 0 1 30 34.67V40a3 3 0 0 1-1.5 2.58A2.956 2.956 0 0 0 30 43a3.01 3.01 0 0 0 3-3v-5.33A14 14 0 0 0 30 7z"/>
  <path fill="#565a5c" d="M30 44a4 4 0 0 1-4-4v-8a4.018 4.018 0 0 1 4-4 7 7 0 1 0-7-7 4 4 0 0 1-8 0 15 15 0 0 1 30 0 15.1 15.1 0 0 1-11 14.452V40a4 4 0 0 1-4 4zm0-32a9 9 0 0 1 0 18 2.013 2.013 0 0 0-2 2v8a2 2 0 0 0 4 0v-5.33a1 1 0 0 1 .786-.977A13 13 0 1 0 17 21a2 2 0 0 0 4 0 9.01 9.01 0 0 1 9-9zm14 9z"/>
</svg>
