<svg xmlns="http://www.w3.org/2000/svg" width="24" height="24">
  <path d="M17.5 0h-11a6.5 6.5 0 0 0 0 13 6.45 6.45 0 0 0 3.35-.95 4.56 4.56 0 0 1 4.25 0A6.49 6.49 0 1 0 17.5 0zM7 8c-1.1 0-2-.67-2-1.5S5.9 5 7 5s2 .67 2 1.5S8.1 8 7 8zm10 0c-1.1 0-2-.67-2-1.5S15.9 5 17 5s2 .67 2 1.5S18.1 8 17 8zM6.41 17H9a1 1 0 0 0 0-2H4a1 1 0 0 0-.38.08 1 1 0 0 0-.54.54A1 1 0 0 0 3 16v5a1 1 0 0 0 2 0v-2.59l5.29 5.3a1 1 0 0 0 1.42 0 1 1 0 0 0 0-1.42zM21 18a1 1 0 0 0-2 0v2.59l-5.29-5.3a1 1 0 0 0-1.42 1.42l5.3 5.29H15a1 1 0 0 0 0 2h5a1 1 0 0 0 .38-.08 1 1 0 0 0 .54-.54A1 1 0 0 0 21 23z" fill="#fff"/>
</svg>
