<svg width="60" height="60" xmlns="http://www.w3.org/2000/svg" viewBox="0 0 60 60">
  <path fill="#5554ab" d="M28.688 30.66L53.33 57.576c.827.824 2.906.348 3.676-.42l.148-.15a3.447 3.447 0 0 0 .82-1.907 2.168 2.168 0 0 0-.432-1.8l-26.85-24.58z"/>
  <path fill="#565a5c" d="M15.148 22.854a1 1 0 0 1-.82-.426l-2.674-3.816-4.75.15a1.017 1.017 0 0 1-.918-.54 1 1 0 0 1 .09-1.062l2.916-3.88L7.535 8.8a1 1 0 0 1 1.258-1.262l4.486 1.445 3.874-2.927a1 1 0 0 1 1.6.827l-.137 4.747 3.825 2.663a1 1 0 0 1-.26 1.77L17.59 17.57l-1.49 4.593a1 1 0 0 1-.8.68.96.96 0 0 1-.152.01zm-2.985-6.26a1 1 0 0 1 .82.427l1.834 2.62 1.03-3.172a1 1 0 0 1 .64-.64l3.17-1.04-2.624-1.826a1 1 0 0 1-.43-.85l.094-3.2-2.627 1.98a.994.994 0 0 1-.91.154l-3.117-1 1.013 3.114a1 1 0 0 1-.152.91L8.926 16.7l3.206-.1zM5 6a1 1 0 0 1-.707-.293l-4-4A1 1 0 0 1 1.707.293l4 4A1 1 0 0 1 5 6zM1 23a1 1 0 0 1-.52-1.854l2.19-1.336a1 1 0 1 1 1.04 1.707l-2.19 1.336A.993.993 0 0 1 1 23zM20.522 4.214a1 1 0 0 1-.86-1.51L21.015.426a1 1 0 0 1 1.72 1.02l-1.35 2.278a1 1 0 0 1-.862.49zM16.294 31.258a1 1 0 0 1-.992-.883l-.532-4.516a1 1 0 0 1 1.986-.235l.532 4.516a1 1 0 0 1-.876 1.11.97.97 0 0 1-.118.008zM30.273 15.757h-4.545a1 1 0 0 1 0-2h4.546a1 1 0 0 1 0 2z"/>
  <circle fill="#565a5c" cx="13" cy="4" r="1"/>
  <circle fill="#565a5c" cx="4" cy="13" r="1"/>
  <circle fill="#565a5c" cx="23" cy="9" r="1"/>
  <circle fill="#565a5c" cx="9" cy="23" r="1"/>
  <path fill="#fcc02d" d="M12.163 16.595a1 1 0 0 1 .818.426l1.837 2.62 1.03-3.173a1 1 0 0 1 .64-.64l3.17-1.04-2.624-1.826a1 1 0 0 1-.43-.848l.097-3.205-2.63 1.986a1 1 0 0 1-.91.154l-3.117-1 1.013 3.113a1 1 0 0 1-.152.91L8.926 16.7l3.206-.1z"/>
  <path fill="#feed58" d="M22.045 21.254a.6.6 0 0 0-.448.22l-.152.152c-.257.256-.647.644 1.027 2.31l6.18 6.72 2.04-1.98-6.72-6.126c-1.03-1.026-1.592-1.296-1.927-1.296z"/>
  <path opacity=".4" fill="#fff" d="M17.033 12.96a1 1 0 0 1-.43-.848l.097-3.205-2.045 1.545-.048 1.66a1 1 0 0 0 .43.85l2.622 1.826-3.17 1.038a1 1 0 0 0-.64.64l-.4 1.224 1.367 1.95 1.03-3.173a1 1 0 0 1 .64-.64l3.17-1.04zM57.543 53.3L30.69 28.72 55.544 55.3a2.168 2.168 0 0 1 .43 1.8 3.978 3.978 0 0 1-.162.713 3.038 3.038 0 0 0 1.2-.656l.15-.148a3.447 3.447 0 0 0 .818-1.91 2.168 2.168 0 0 0-.435-1.8z"/>
  <path fill="#565a5c" d="M58.92 51.86L25.5 21.26c-.76-.76-3.07-3.07-5.12-1.02l-.14.15c-2.05 2.04.25 4.34.97 5.06l30.68 33.51a3.83 3.83 0 0 0 2.76 1.03 5.617 5.617 0 0 0 3.77-1.42l.15-.15a5.4 5.4 0 0 0 1.39-3.08 4.06 4.06 0 0 0-1.04-3.48zM22.66 24.07a6.373 6.373 0 0 1-1.23-1.71.93.93 0 0 1 .81-.93c.33 0 .87.27 1.88 1.28l5.79 5.3-1.9 1.9zM57.97 55.1a3.43 3.43 0 0 1-.82 1.91l-.14.15c-.77.76-2.85 1.24-3.68.42l-23.97-26.2 2.02-2.02L57.54 53.3a2.144 2.144 0 0 1 .43 1.8z"/>
</svg>
