<svg width="60" height="60" xmlns="http://www.w3.org/2000/svg" viewBox="0 0 60 60">
  <path fill="#fd9727" d="M30 1C13.984 1 1 11.745 1 25c0 7.33 3.976 13.89 10.236 18.292L9 59l13.56-10.8A34.768 34.768 0 0 0 30 49c16.016 0 29-10.745 29-24S46.016 1 30 1z"/>
  <path opacity=".4" fill="#fff" d="M30 1q-.755 0-1.5.032C43.82 1.678 56 12.162 56 25c0 12.81-12.128 23.274-27.4 23.962.465.02.93.038 1.4.038 16.016 0 29-10.745 29-24S46.016 1 30 1z"/>
  <path fill="#565a5c" d="M9 60a1 1 0 0 1-.99-1.14l2.15-15.11C3.695 39 0 32.2 0 25 0 11.215 13.458 0 30 0s30 11.215 30 25-13.458 25-30 25h-.028a35.844 35.844 0 0 1-7.157-.724L9.623 59.782A1 1 0 0 1 9 60zM30 2C14.56 2 2 12.318 2 25c0 6.72 3.576 13.09 9.81 17.474a1 1 0 0 1 .416.96L10.344 56.65l11.594-9.232a.993.993 0 0 1 .836-.194 33.88 33.88 0 0 0 7.2.776H30c15.44 0 28-10.317 28-23S45.44 2 30 2z"/>
  <path fill="#fcc02d" d="M30 23a3 3 0 0 1 3 3 3 3 0 0 1-3 3 3 3 0 0 1-3-3 3 3 0 0 1 3-3z"/>
  <path opacity=".4" fill="#fff" d="M30 23a2.956 2.956 0 0 0-1.5.42 2.97 2.97 0 0 1 0 5.16A2.956 2.956 0 0 0 30 29a3 3 0 0 0 0-6z"/>
  <path fill="#565a5c" d="M30 30a4 4 0 1 1 4-4 4 4 0 0 1-4 4zm0-6a2 2 0 1 0 2 2 2 2 0 0 0-2-2z"/>
  <path fill="#fcc02d" d="M42 23a3 3 0 0 1 3 3 3 3 0 0 1-3 3 3 3 0 0 1-3-3 3 3 0 0 1 3-3z"/>
  <path opacity=".4" fill="#fff" d="M42 23a2.956 2.956 0 0 0-1.5.42 2.97 2.97 0 0 1 0 5.16A2.956 2.956 0 0 0 42 29a3 3 0 0 0 0-6z"/>
  <path fill="#565a5c" d="M42 30a4 4 0 1 1 4-4 4 4 0 0 1-4 4zm0-6a2 2 0 1 0 2 2 2 2 0 0 0-2-2z"/>
  <path fill="#fcc02d" d="M18 23a3 3 0 0 1 3 3 3 3 0 0 1-3 3 3 3 0 0 1-3-3 3 3 0 0 1 3-3z"/>
  <path opacity=".4" fill="#fff" d="M18 23a2.956 2.956 0 0 0-1.5.42 2.97 2.97 0 0 1 0 5.16A2.956 2.956 0 0 0 18 29a3 3 0 0 0 0-6z"/>
  <path fill="#565a5c" d="M18 30a4 4 0 1 1 4-4 4 4 0 0 1-4 4zm0-6a2 2 0 1 0 2 2 2 2 0 0 0-2-2z"/>
</svg>
