<svg width="60" height="60" xmlns="http://www.w3.org/2000/svg" viewBox="0 0 60 60">
  <path fill="#4885dc" d="M31.343 28.657l4.537-4.537a10.726 10.726 0 0 0-15.124 0l-4.537 4.537 4.536 4.537 4.537-4.537a4.29 4.29 0 0 1 6.05 0z"/>
  <path fill="#4885dc" d="M20.756 24.12L4.12 40.755A10.695 10.695 0 0 0 19.243 55.88L35.88 39.245A10.695 10.695 0 0 0 20.757 24.12zm10.587 10.586L14.706 51.343A4.278 4.278 0 1 1 8.648 45.3l.008-.008 16.638-16.635A4.278 4.278 0 1 1 31.35 34.7l-.006.007z"/>
  <path opacity=".1" d="M33.55 41.6l5.694-5.723A10.723 10.723 0 0 1 27.86 38.29l-2.36 2.366a10.782 10.782 0 0 0 8.05.944z"/>
  <path opacity=".4" fill="#fff" d="M37.5 37.28a11.475 11.475 0 0 1-1.62 1.96L19.24 55.88a10.582 10.582 0 0 1-16.05-1.07 10.724 10.724 0 0 0 14.05-.93l14.89-14.89a10.71 10.71 0 0 0 5.37-1.71z"/>
  <path opacity=".1" d="M32.488 32.59a4.244 4.244 0 0 0 2.214-1.17l3.555-3.554a10.62 10.62 0 0 0-1.4-2.523l-1.615 1.615a10.593 10.593 0 0 1-3.466 2.31 4.292 4.292 0 0 1 .712 3.323z"/>
  <path fill="#565a5c" d="M31.68 33.6a3.888 3.888 0 0 1-.68-.05 2.4 2.4 0 0 1-.32.41c-.02.01-.03.03-.04.04l-3.1 3.1a9.534 9.534 0 0 0 2.11.71l2.36-2.36c.02-.01.03-.03.05-.04a5.252 5.252 0 0 0 1.27-2.08 5.14 5.14 0 0 1-1.65.27zm0 0a3.888 3.888 0 0 1-.68-.05 2.4 2.4 0 0 1-.32.41c-.02.01-.03.03-.04.04l-3.1 3.1a9.534 9.534 0 0 0 2.11.71l2.36-2.36c.02-.01.03-.03.05-.04a5.252 5.252 0 0 0 1.27-2.08 5.14 5.14 0 0 1-1.65.27zm0 0a3.888 3.888 0 0 1-.68-.05 2.4 2.4 0 0 1-.32.41c-.02.01-.03.03-.04.04l-3.1 3.1a9.534 9.534 0 0 0 2.11.71l2.36-2.36c.02-.01.03-.03.05-.04a5.252 5.252 0 0 0 1.27-2.08 5.14 5.14 0 0 1-1.65.27zm0 0a3.888 3.888 0 0 1-.68-.05 2.4 2.4 0 0 1-.32.41c-.02.01-.03.03-.04.04l-3.1 3.1a9.534 9.534 0 0 0 2.11.71l2.36-2.36c.02-.01.03-.03.05-.04a5.252 5.252 0 0 0 1.27-2.08 5.14 5.14 0 0 1-1.65.27zm0 0a3.888 3.888 0 0 1-.68-.05 2.4 2.4 0 0 1-.32.41c-.02.01-.03.03-.04.04l-3.1 3.1a9.534 9.534 0 0 0 2.11.71l2.36-2.36c.02-.01.03-.03.05-.04a5.252 5.252 0 0 0 1.27-2.08 5.14 5.14 0 0 1-1.65.27zm0 0a3.888 3.888 0 0 1-.68-.05 2.4 2.4 0 0 1-.32.41c-.02.01-.03.03-.04.04l-3.1 3.1a9.534 9.534 0 0 0 2.11.71l2.36-2.36c.02-.01.03-.03.05-.04a5.252 5.252 0 0 0 1.27-2.08 5.14 5.14 0 0 1-1.65.27zm0 0a3.888 3.888 0 0 1-.68-.05 2.4 2.4 0 0 1-.32.41c-.02.01-.03.03-.04.04l-3.1 3.1a9.534 9.534 0 0 0 2.11.71l2.36-2.36c.02-.01.03-.03.05-.04a5.252 5.252 0 0 0 1.27-2.08 5.14 5.14 0 0 1-1.65.27zm0 0a3.888 3.888 0 0 1-.68-.05 2.4 2.4 0 0 1-.32.41c-.02.01-.03.03-.04.04l-3.1 3.1a9.534 9.534 0 0 0 2.11.71l2.36-2.36c.02-.01.03-.03.05-.04a5.252 5.252 0 0 0 1.27-2.08 5.14 5.14 0 0 1-1.65.27zm7.74-5.56l-1.63 1.63a9.682 9.682 0 0 1-1.16 6.98 9.03 9.03 0 0 0 1.89-1.46l1.27-1.27a11.89 11.89 0 0 0 .21-2.24 11.416 11.416 0 0 0-.58-3.64zM28.31 20a11.864 11.864 0 0 0-2.23.21v.01a12.053 12.053 0 0 1 4.48 0 11.37 11.37 0 0 0-2.25-.22zm3.37 13.6a3.888 3.888 0 0 1-.68-.05 2.4 2.4 0 0 1-.32.41c-.02.01-.03.03-.04.04l-3.1 3.1a9.534 9.534 0 0 0 2.11.71l2.36-2.36c.02-.01.03-.03.05-.04a5.252 5.252 0 0 0 1.27-2.08 5.14 5.14 0 0 1-1.65.27zm0 0a3.888 3.888 0 0 1-.68-.05 2.4 2.4 0 0 1-.32.41c-.02.01-.03.03-.04.04l-3.1 3.1a9.534 9.534 0 0 0 2.11.71l2.36-2.36c.02-.01.03-.03.05-.04a5.252 5.252 0 0 0 1.27-2.08 5.14 5.14 0 0 1-1.65.27zm0 0a3.888 3.888 0 0 1-.68-.05 2.4 2.4 0 0 1-.32.41c-.02.01-.03.03-.04.04l-3.1 3.1a9.534 9.534 0 0 0 2.11.71l2.36-2.36c.02-.01.03-.03.05-.04a5.252 5.252 0 0 0 1.27-2.08 5.14 5.14 0 0 1-1.65.27zm0 0a3.888 3.888 0 0 1-.68-.05 2.4 2.4 0 0 1-.32.41c-.02.01-.03.03-.04.04l-3.1 3.1a9.534 9.534 0 0 0 2.11.71l2.36-2.36c.02-.01.03-.03.05-.04a5.252 5.252 0 0 0 1.27-2.08 5.14 5.14 0 0 1-1.65.27zm0 0a3.888 3.888 0 0 1-.68-.05 2.4 2.4 0 0 1-.32.41c-.02.01-.03.03-.04.04l-3.1 3.1a9.534 9.534 0 0 0 2.11.71l2.36-2.36c.02-.01.03-.03.05-.04a5.252 5.252 0 0 0 1.27-2.08 5.14 5.14 0 0 1-1.65.27zm0 0a3.888 3.888 0 0 1-.68-.05 2.4 2.4 0 0 1-.32.41c-.02.01-.03.03-.04.04l-3.1 3.1a9.534 9.534 0 0 0 2.11.71l2.36-2.36c.02-.01.03-.03.05-.04a5.252 5.252 0 0 0 1.27-2.08 5.14 5.14 0 0 1-1.65.27zm0 0a3.888 3.888 0 0 1-.68-.05 2.4 2.4 0 0 1-.32.41c-.02.01-.03.03-.04.04l-3.1 3.1a9.534 9.534 0 0 0 2.11.71l2.36-2.36c.02-.01.03-.03.05-.04a5.252 5.252 0 0 0 1.27-2.08 5.14 5.14 0 0 1-1.65.27zm0 0a3.888 3.888 0 0 1-.68-.05 2.4 2.4 0 0 1-.32.41c-.02.01-.03.03-.04.04l-3.1 3.1a9.534 9.534 0 0 0 2.11.71l2.36-2.36c.02-.01.03-.03.05-.04a5.252 5.252 0 0 0 1.27-2.08 5.14 5.14 0 0 1-1.65.27zm0 0a3.888 3.888 0 0 1-.68-.05 2.4 2.4 0 0 1-.32.41c-.02.01-.03.03-.04.04l-3.1 3.1a9.534 9.534 0 0 0 2.11.71l2.36-2.36c.02-.01.03-.03.05-.04a5.252 5.252 0 0 0 1.27-2.08 5.14 5.14 0 0 1-1.65.27zm0 0a3.888 3.888 0 0 1-.68-.05 2.4 2.4 0 0 1-.32.41c-.02.01-.03.03-.04.04l-3.1 3.1a9.534 9.534 0 0 0 2.11.71l2.36-2.36c.02-.01.03-.03.05-.04a5.252 5.252 0 0 0 1.27-2.08 5.14 5.14 0 0 1-1.65.27z"/>
  <path fill="#4885dc" d="M40.756 4.12L24.12 20.755A10.695 10.695 0 1 0 39.223 35.9l.02-.02L55.88 19.244A10.7 10.7 0 0 0 40.777 4.1zm10.587 10.586L34.706 31.343a4.278 4.278 0 1 1-6.058-6.043l.008-.008L45.294 8.657a4.278 4.278 0 1 1 6.058 6.043l-.008.008z"/>
  <path opacity=".1" d="M26.693 18.332L21 24.055a10.723 10.723 0 0 1 11.383-2.413l2.366-2.366a10.782 10.782 0 0 0-8.057-.944zM27.508 27.486a4.244 4.244 0 0 0-2.214 1.17L21.74 32.21a10.62 10.62 0 0 0 1.4 2.524l1.614-1.615a10.593 10.593 0 0 1 3.466-2.31 4.292 4.292 0 0 1-.712-3.324z"/>
  <path opacity=".4" fill="#fff" d="M55.88 19.24L39.24 35.88a10.472 10.472 0 0 1-1.74 1.4 10.716 10.716 0 0 1-10.69.55 10.683 10.683 0 0 0 9.43-2.95l16.64-16.64a10.72 10.72 0 0 0 0-15.12 10.514 10.514 0 0 0-2.69-1.95 10.557 10.557 0 0 1 5.69 2.95 10.72 10.72 0 0 1 0 15.12z"/>
  <path fill="#4885dc" d="M31.343 28.657l4.537-4.537a10.726 10.726 0 0 0-15.124 0l-4.537 4.537 4.536 4.537 4.537-4.537a4.29 4.29 0 0 1 6.05 0z"/>
  <path fill="#565a5c" d="M56.61 3.41a11.61 11.61 0 0 0-8.27-3.43h-.01a11.627 11.627 0 0 0-8.26 3.41L23.41 20.05a11.666 11.666 0 0 0-1.52 1.86.01.01 0 0 1-.01.01 11.7 11.7 0 0 0-1.83 1.49l-4.54 4.54-12.1 12.1a11.7 11.7 0 0 0 16.54 16.54l16.64-16.64a12.17 12.17 0 0 0 1.51-1.86 11.465 11.465 0 0 0 1.85-1.5l16.64-16.64a11.71 11.71 0 0 0 .02-16.54zM18.54 55.17A9.694 9.694 0 0 1 4.83 41.46l12.1-12.1 3.26-3.26 1.27-1.27a10.136 10.136 0 0 1 1.12-.96 9.04 9.04 0 0 1 .76-.5.215.215 0 0 1 .05-.03 10.59 10.59 0 0 1 1.17-.58 8.517 8.517 0 0 1 1.07-.38c.1-.02.19-.05.29-.07a5.634 5.634 0 0 1 .69-.14 9.65 9.65 0 0 1 3.71.04.142.142 0 0 1 .06.02c.03.01.06.01.08.02l.15.03a.03.03 0 0 1 .02.01c.29.07.59.15.88.25.31.11.63.24.93.38.13.06.26.12.39.19a10.044 10.044 0 0 1 2.32 1.72 9.777 9.777 0 0 1 1.93 2.73L34 30.64a2.6 2.6 0 0 1-.45.37 5.235 5.235 0 0 0-4.57-4.56 3.6 3.6 0 0 0-.66-.05 5.157 5.157 0 0 0-1.66.27 5.215 5.215 0 0 0-2.07 1.28l-2.4 2.4L7.94 44.6a5.275 5.275 0 0 0 7.47 7.45l12.61-12.61a11.415 11.415 0 0 0 3.64.58h.01a11.71 11.71 0 0 0 2.23-.21zm15.39-33.74L46 9.36a3.278 3.278 0 0 1 4.67 4.6c-.01.01-.02.03-.03.04L38.57 26.07a11.293 11.293 0 0 0-1.84-2.49c-.01 0-.01-.01-.01-.02l-.15-.15c-.17-.17-.35-.34-.53-.51h-.01a13.36 13.36 0 0 0-1.76-1.28c-.12-.07-.23-.13-.34-.19zm-2.34 10.16a3.2 3.2 0 0 1-2.23-.95 3.248 3.248 0 0 1-.96-2.23 3.245 3.245 0 0 1 3.19 3.18zm-8.2 5a11.894 11.894 0 0 0 2.66 2L14 50.64A3.28 3.28 0 0 1 9.36 46l12.05-12.05a11.476 11.476 0 0 0 1.98 2.64zm31.78-18.05L39.79 33.92l-1.27 1.27a9.03 9.03 0 0 1-1.89 1.46 9.682 9.682 0 0 1-6.98 1.16 9.534 9.534 0 0 1-2.11-.71 9.835 9.835 0 0 1-4.64-4.63v-.01l3.1-3.1a2.6 2.6 0 0 1 .45-.37 5.2 5.2 0 0 0 1.5 3.07A5.276 5.276 0 0 0 31 33.55a3.888 3.888 0 0 0 .68.05 5.14 5.14 0 0 0 1.65-.27 5.276 5.276 0 0 0 2.08-1.28l16.64-16.64a.01.01 0 0 0 .01-.01 5.275 5.275 0 0 0-3.74-9 5.217 5.217 0 0 0-3.73 1.55L31.95 20.58q-.42-.135-.84-.24c-.19-.04-.37-.08-.55-.12a12.053 12.053 0 0 0-4.48 0v-.01L41.46 4.83l.02-.02a9.7 9.7 0 0 1 13.71.02 9.693 9.693 0 0 1-.02 13.71z"/>
</svg>
