<svg xmlns="http://www.w3.org/2000/svg" height="60" width="60" viewBox="0 0 60 60">
  <g style="isolation:isolate;">
    <g>
      <path d="M31.343 28.657l4.537-4.537a10.726 10.726 0 0 0-15.124 0l-4.537 4.537 4.536 4.537 4.537-4.537a4.29 4.29 0 0 1 6.05 0z" style="fill:#4885dc;"></path>
      <path d="M20.756 24.12L4.12 40.755A10.695 10.695 0 0 0 19.243 55.88L35.88 39.245A10.695 10.695 0 0 0 20.757 24.12zm10.587 10.586L14.706 51.343a4.278 4.278 0 1 1-6.05-6.05l16.638-16.636a4.278 4.278 0 1 1 6.05 6.05z" style="fill:#4885dc;"></path>
      <path d="M33.55 41.6l5.694-5.723A10.723 10.723 0 0 1 27.86 38.29l-2.365 2.366a10.782 10.782 0 0 0 8.056.944z" style="opacity:0.1;mix-blend-mode:multiply;"></path>
      <path d="M33.88 37.244L17.245 53.88a10.725 10.725 0 0 1-14.05.926 10.615 10.615 0 0 0 16.05 1.074L35.88 39.244c4.16-4.16 1.82-5.82-2-2z" style="opacity:0.4;mix-blend-mode:lighten;fill:#fff;"></path>
      <path d="M32.488 32.59a4.244 4.244 0 0 0 2.214-1.17l3.555-3.554a10.62 10.62 0 0 0-1.4-2.523l-1.615 1.615a10.593 10.593 0 0 1-3.466 2.31 4.292 4.292 0 0 1 .712 3.323z" class="cls-3" style="opacity:0.1;mix-blend-mode:multiply;"></path>
      <path d="M20.756 24.12L4.12 40.755A10.695 10.695 0 0 0 19.243 55.88L35.88 39.245A10.695 10.695 0 0 0 20.757 24.12zm10.587 10.586L14.706 51.343a4.278 4.278 0 1 1-6.05-6.05l16.638-16.636a4.278 4.278 0 1 1 6.05 6.05z" style="fill:none;stroke:#565a5c;stroke-linecap:round;stroke-linejoin:round;stroke-width:2px;"></path>
      <path d="M40.756 4.12L24.12 20.755A10.695 10.695 0 1 0 39.243 35.88L55.88 19.245A10.695 10.695 0 1 0 40.757 4.12zm10.587 10.586L34.706 31.343a4.278 4.278 0 1 1-6.05-6.05L45.294 8.657a4.278 4.278 0 1 1 6.05 6.05z" style="fill:#4885dc;"></path>
      <path d="M26.693 18.332L21 24.055a10.723 10.723 0 0 1 11.383-2.413l2.366-2.366a10.782 10.782 0 0 0-8.057-.944zM27.508 27.486a4.244 4.244 0 0 0-2.214 1.17L21.74 32.21a10.62 10.62 0 0 0 1.4 2.524l1.614-1.615a10.593 10.593 0 0 1 3.466-2.31 4.292 4.292 0 0 1-.712-3.324z" style="opacity:0.1;mix-blend-mode:multiply;"></path>
      <path d="M55.88 4.12a10.613 10.613 0 0 0-5.688-2.95 10.6 10.6 0 0 1 2.688 1.95 10.726 10.726 0 0 1 0 15.123L36.244 34.88a10.7 10.7 0 0 1-9.436 2.95 10.732 10.732 0 0 0 12.436-1.95L55.88 19.244a10.726 10.726 0 0 0 0-15.125z" style="opacity:0.4;mix-blend-mode:lighten;fill:#fff;"></path>
      <path d="M40.756 4.12L24.12 20.755A10.695 10.695 0 1 0 39.243 35.88L55.88 19.245A10.695 10.695 0 1 0 40.757 4.12zm10.587 10.586L34.706 31.343a4.278 4.278 0 1 1-6.05-6.05L45.294 8.657a4.278 4.278 0 1 1 6.05 6.05z" style="fill:none;stroke:#565a5c;stroke-linecap:round;stroke-linejoin:round;stroke-width:2px;"></path>
      <path d="M31.343 28.657l4.537-4.537a10.726 10.726 0 0 0-15.124 0l-4.537 4.537 4.536 4.537 4.537-4.537a4.29 4.29 0 0 1 6.05 0z" style="fill:#4885dc;"></path>
      <path d="M20.756 33.194l4.537-4.537a4.272 4.272 0 0 1 7.29 2.743M35.88 24.12a10.726 10.726 0 0 0-15.123 0l-4.537 4.536" style="fill:none;stroke:#565a5c;stroke-linecap:round;stroke-linejoin:round;stroke-width:2px;"></path>
    </g>
  </g>
</svg>
