<svg width="60" height="60" xmlns="http://www.w3.org/2000/svg" viewBox="0 0 60 60">
  <path fill="#e5423b" d="M30 1c-9.37 0-17 8.216-17 18.307a19.11 19.11 0 0 0 .5 4.372 17.223 17.223 0 0 0 .98 3.09L30 59l15.52-32.23a17.223 17.223 0 0 0 .98-3.092 19.11 19.11 0 0 0 .5-4.372C47 9.216 39.37 1 30 1zm0 28c-4.96 0-9-4.35-9-9.692s4.04-9.692 9-9.692 9 4.35 9 9.692S34.96 29 30 29z"/>
  <path fill="#565a5c" d="M30 30a11 11 0 1 1 11-11 11.012 11.012 0 0 1-11 11zm0-20a9 9 0 1 0 9 9 9.01 9.01 0 0 0-9-9z"/>
  <path opacity=".4" fill="#fff" d="M30 2c-.338 0-.648.013-.98.035C37.376 2.6 44 10.13 44 19.307a18.11 18.11 0 0 1-.478 4.16 16.1 16.1 0 0 1-.9 2.87L29 54.618l1 2.08 14.618-30.36a16.1 16.1 0 0 0 .9-2.868A18.11 18.11 0 0 0 46 19.307C46 9.764 38.822 2 30 2z"/>
  <path opacity=".1" d="M30.01 2.137C22.13 3.205 16 10.5 16 19.307a18.11 18.11 0 0 0 .478 4.16 16.1 16.1 0 0 0 .9 2.87L30 52.544l-1 2.076-13.618-28.285a16.1 16.1 0 0 1-.9-2.868 18.11 18.11 0 0 1-.482-4.16c0-9.18 6.64-16.712 15-17.273z"/>
  <path fill="#565a5c" d="M30 25a6 6 0 1 1 6-6 6.007 6.007 0 0 1-6 6zm0-10a4 4 0 1 0 4 4 4 4 0 0 0-4-4z"/>
  <path fill="#e5423b" d="M30 15a4 4 0 1 0 4 4 4 4 0 0 0-4-4z"/>
  <path opacity=".4" fill="#fff" d="M30 15a3.954 3.954 0 0 0-1 .142 3.98 3.98 0 0 1 0 7.716A3.954 3.954 0 0 0 30 23a4 4 0 0 0 0-8z"/>
  <path fill="#565a5c" d="M30 0c-9.92 0-18 8.66-18 19.31a20.283 20.283 0 0 0 .52 4.58 17.685 17.685 0 0 0 1.06 3.31l15.5 32.2a1.005 1.005 0 0 0 1.84 0l15.52-32.24a17.272 17.272 0 0 0 1.03-3.25 20.027 20.027 0 0 0 .53-4.6C48 8.66 39.92 0 30 0zm15.52 23.47a15.98 15.98 0 0 1-.9 2.87L30 56.7 15.4 26.38a16.38 16.38 0 0 1-.93-2.93 18.31 18.31 0 0 1-.47-4.14C14 9.76 21.18 2 30 2s16 7.76 16 17.31a18.058 18.058 0 0 1-.48 4.16z"/>
</svg>
