<svg width="60" height="60" xmlns="http://www.w3.org/2000/svg" viewBox="0 0 60 60">
  <path fill="#d3e057" d="M1 1h58v54H1z"/>
  <path fill="#565a5c" d="M59 0H1a1 1 0 0 0-1 1v58a1 1 0 0 0 2 0v-3h56v3a1 1 0 0 0 2 0V1a1 1 0 0 0-1-1zM19 54H2V2h17zm20 0H21V2h18zm2 0V2h17v52z"/>
  <path fill="#565a5c" d="M16 6H5a1 1 0 0 1 0-2h11a1 1 0 0 1 0 2zM16 10H5a1 1 0 0 1 0-2h11a1 1 0 0 1 0 2zM16 14H5a1 1 0 0 1 0-2h11a1 1 0 0 1 0 2zM36 6H24a1 1 0 0 1 0-2h12a1 1 0 0 1 0 2zM36 10H24a1 1 0 0 1 0-2h12a1 1 0 0 1 0 2zM36 14H24a1 1 0 0 1 0-2h12a1 1 0 0 1 0 2zM55 6H44a1 1 0 0 1 0-2h11a1 1 0 0 1 0 2zM55 10H44a1 1 0 0 1 0-2h11a1 1 0 0 1 0 2zM55 14H44a1 1 0 0 1 0-2h11a1 1 0 0 1 0 2zM16 52H5a1 1 0 0 1 0-2h11a1 1 0 0 1 0 2zM36 52H24a1 1 0 0 1 0-2h12a1 1 0 0 1 0 2zM55 52H44a1 1 0 0 1 0-2h11a1 1 0 0 1 0 2z"/>
  <circle fill="#a9b445" cx="7" cy="28" r="2"/>
  <path fill="#565a5c" d="M7 25a3 3 0 0 0-1 5.82V34a1 1 0 0 0 2 0v-3.18A3 3 0 0 0 7 25zm0 4a1 1 0 1 1 1-1 1 1 0 0 1-1 1z"/>
  <circle fill="#a9b445" cx="26" cy="28" r="2"/>
  <path fill="#565a5c" d="M26 25a3 3 0 0 0-1 5.82V34a1 1 0 0 0 2 0v-3.18A3 3 0 0 0 26 25zm0 4a1 1 0 1 1 1-1 1 1 0 0 1-1 1z"/>
  <circle fill="#a9b445" cx="46" cy="28" r="2"/>
  <path fill="#565a5c" d="M46 25a3 3 0 0 0-1 5.82V34a1 1 0 0 0 2 0v-3.18A3 3 0 0 0 46 25zm0 4a1 1 0 1 1 1-1 1 1 0 0 1-1 1z"/>
  <path opacity=".4" fill="#fff" d="M17 2h2v52h-2zM37 2h2v52h-2zM56 2h2v52h-2z"/>
</svg>
