<svg xmlns="http://www.w3.org/2000/svg" height="60" width="60" viewBox="0 0 60 60">
  <g style="isolation:isolate;">
    <g>
      <path d="M1 1h58v54H1z" style="fill:#d3e057;"></path>
      <path d="M1 1h58v54H1zM20 1v54M40 1v54M1 55v4M59 55v4M5 5h11M5 9h11M5 13h11M24 5h12M24 9h12M24 13h12M44 5h11M44 9h11M44 13h11M5 51h11M24 51h12M44 51h11" style="fill:none;stroke:#565a5c;stroke-linecap:round;stroke-linejoin:round;stroke-width:2px;"></path>
      <circle cx="7" cy="28" r="2" style="stroke:#565a5c;stroke-linecap:round;stroke-linejoin:round;stroke-width:2px;fill:#a9b445;"></circle>
      <path d="M7 30v4" style="fill:none;stroke:#565a5c;stroke-linecap:round;stroke-linejoin:round;stroke-width:2px;"></path>
      <circle cx="26" cy="28" r="2" style="stroke:#565a5c;stroke-linecap:round;stroke-linejoin:round;stroke-width:2px;fill:#a9b445;"></circle>
      <path d="M26 30v4" style="fill:none;stroke:#565a5c;stroke-linecap:round;stroke-linejoin:round;stroke-width:2px;"></path>
      <circle cx="46" cy="28" r="2" style="stroke:#565a5c;stroke-linecap:round;stroke-linejoin:round;stroke-width:2px;fill:#a9b445;"></circle>
      <path d="M46 30v4" style="fill:none;stroke:#565a5c;stroke-linecap:round;stroke-linejoin:round;stroke-width:2px;"></path>
      <path d="M17 2h2v52h-2zM37 2h2v52h-2zM56 2h2v52h-2z" style="fill:#fff;opacity:0.4;mix-blend-mode:lighten;"></path>
    </g>
  </g>
</svg>
