<svg xmlns="http://www.w3.org/2000/svg" height="60" width="60" viewBox="0 0 60 60">
  <g style="isolation:isolate;">
    <g>
      <path d="M30 26H17v-6l-8 5-8 5 8 5 8 5v-6h13a4 4 0 0 0 0-8z" style="fill:#feed58;stroke:#565a5c;stroke-linecap:round;stroke-linejoin:round;stroke-width:2px;"></path>
      <path d="M29 1h30v58H29z" style="fill:#e9428d;"></path>
      <path d="M56 1h3v58h-3z" style="fill:#fff;opacity:0.4;mix-blend-mode:lighten;"></path>
      <path d="M29 1h30v58H29z" style="stroke:#565a5c;stroke-linecap:round;stroke-linejoin:round;stroke-width:2px;fill:none;"></path>
      <circle cx="35" cy="30" r="2" style="stroke:#565a5c;stroke-linecap:round;stroke-linejoin:round;stroke-width:2px;fill:#f08fbb;"></circle>
      <path d="M46 5h9v23h-9z" style="fill:#d03f7f;"></path>
      <path d="M52 5h3v23h-3z" style="opacity:0.1;mix-blend-mode:multiply;"></path>
      <path d="M46 32h9v23h-9z" style="fill:#d03f7f;"></path>
      <path d="M52 32h3v23h-3z" style="opacity:0.1;mix-blend-mode:multiply;"></path>
      <path d="M40.65 28H42V5h-9v19.35A5.973 5.973 0 0 1 40.65 28z" style="fill:#d03f7f;"></path>
      <g style="opacity:0.1;mix-blend-mode:multiply;">
        <path d="M39 5v20.552A6.008 6.008 0 0 1 40.65 28H42V5zM33 24.086v.262c.167-.06.344-.092.516-.137-.17-.043-.34-.094-.516-.124z"></path>
      </g>
      <path d="M40.65 32A5.973 5.973 0 0 1 33 35.65V55h9V32z" style="fill:#d03f7f;"></path>
      <g style="opacity:0.1;mix-blend-mode:multiply;">
        <path d="M33.516 35.788c-.172-.045-.35-.078-.516-.137v.263c.177-.03.345-.08.516-.125zM40.65 32A6.008 6.008 0 0 1 39 34.448V55h3V32z"></path>
      </g>
      <path d="M46 5h9v23h-9zM46 32h9v23h-9zM40.65 28H42V5h-9v19.35A5.973 5.973 0 0 1 40.65 28zM40.65 32A5.973 5.973 0 0 1 33 35.65V55h9V32z" style="stroke:#565a5c;stroke-linecap:round;stroke-linejoin:round;stroke-width:2px;fill:none;"></path>
      <path d="M26 27h2v6h-2z" style="opacity:0.1;mix-blend-mode:multiply;"></path>
    </g>
  </g>
</svg>
