<svg width="60" height="60" xmlns="http://www.w3.org/2000/svg" viewBox="0 0 60 60">
  <path fill="#feed58" d="M30 26H17v-6l-8 5-8 5 8 5 8 5v-6h13a4 4 0 0 0 0-8z"/>
  <path fill="#e9428d" d="M30 1h29v58H30z"/>
  <path opacity=".4" fill="#fff" d="M56 1h3v58h-3z"/>
  <path fill="#565a5c" d="M59 0H29a1 1 0 0 0-1 1v24H18v-5a1.008 1.008 0 0 0-1.53-.85l-16 10a1 1 0 0 0 0 1.7l16 10A1 1 0 0 0 18 40v-5h10v24a1 1 0 0 0 1 1h30a1 1 0 0 0 1-1V1a1 1 0 0 0-1-1zM17 33a1 1 0 0 0-1 1v4.2L2.89 30 16 21.8V26a1 1 0 0 0 1 1h11v6zm41 25H30V2h28z"/>
  <circle fill="#f08fbb" cx="35" cy="30" r="2"/>
  <path fill="#565a5c" d="M35 33a3 3 0 1 1 3-3 3 3 0 0 1-3 3zm0-4a1 1 0 1 0 1 1 1 1 0 0 0-1-1z"/>
  <path fill="#d03f7f" d="M46 5h9v23h-9z"/>
  <path opacity=".1" d="M52 5h3v23h-3z"/>
  <path fill="#d03f7f" d="M46 32h9v23h-9z"/>
  <path opacity=".1" d="M52 32h3v23h-3z"/>
  <path fill="#d03f7f" d="M40.65 28H42V5h-9v19.35a5.973 5.973 0 0 1 7.635 3.612z"/>
  <path opacity=".1" d="M39 5v20.552A6.008 6.008 0 0 1 40.65 28H42V5z"/>
  <path d="M33 24.086v.262c.167-.06.344-.092.516-.137-.17-.043-.34-.094-.516-.124z"/>
  <path fill="#d03f7f" d="M40.65 32a5.973 5.973 0 0 1-7.612 3.665L33 35.65V55h9V32z"/>
  <path opacity=".1" d="M33.516 35.788c-.172-.045-.35-.078-.516-.137v.263c.177-.03.345-.08.516-.125zM40.65 32A6.008 6.008 0 0 1 39 34.448V55h3V32z"/>
  <path fill="#565a5c" d="M55 29h-9a1 1 0 0 1-1-1V5a1 1 0 0 1 1-1h9a1 1 0 0 1 1 1v23a1 1 0 0 1-1 1zm-8-2h7V6h-7zM55 56h-9a1 1 0 0 1-1-1V32a1 1 0 0 1 1-1h9a1 1 0 0 1 1 1v23a1 1 0 0 1-1 1zm-8-2h7V33h-7zM42 29h-1.35a1 1 0 0 1-.935-.64l-.036-.1a4.972 4.972 0 0 0-6.344-2.966A1 1 0 0 1 32 24.35V5a1 1 0 0 1 1-1h9a1 1 0 0 1 1 1v23a1 1 0 0 1-1 1zm-7-6a7 7 0 0 1 6 3.4V6h-7v17.073A6.91 6.91 0 0 1 35 23zM42 56h-9a1 1 0 0 1-1-1V35.65a1 1 0 0 1 1.294-.955 5 5 0 0 0 6.412-3.025 1 1 0 0 1 .943-.67H42a1 1 0 0 1 1 1v23a1 1 0 0 1-1 1zm-8-2h7V33.6a6.985 6.985 0 0 1-7 3.324z"/>
  <path opacity=".1" d="M26 27h2v6h-2z"/>
</svg>
