<svg width="60" height="60" xmlns="http://www.w3.org/2000/svg" viewBox="0 0 60 60">
  <path fill="#b497c4" d="M5 53h50v6H5z"/>
  <path opacity=".4" fill="#fff" d="M52 53h3v6h-3z"/>
  <path fill="#86509e" d="M9 47h42v6H9z"/>
  <path opacity=".4" fill="#fff" d="M48 47h3v6h-3z"/>
  <path fill="#86509e" d="M26 17h8v30h-8zM39 17h8v30h-8zM13 17h8v30h-8z"/>
  <path opacity=".4" fill="#fff" d="M18 17h3v30h-3zM31 17h3v30h-3zM44 17h3v30h-3z"/>
  <path opacity=".1" d="M14 22h6v2h-6zM27 22h6v2h-6zM40 22h6v2h-6z"/>
  <path fill="#86509e" d="M30 1L5 21h50L30 1"/>
  <path opacity=".4" fill="#fff" d="M30 1l-2.5 2L50 21h5L30 1"/>
  <path fill="#b497c4" d="M43.75 21L30 10 16.25 21h27.5"/>
  <path opacity=".4" fill="#fff" d="M30 10l-2.5 2 11.25 9h5L30 10"/>
  <path fill="#565a5c" d="M55 52h-3v-5a1 1 0 0 0-1-1h-3V22h7a1 1 0 0 0 .94-.67.983.983 0 0 0-.32-1.11l-25-20a.992.992 0 0 0-1.24 0l-25 20a.983.983 0 0 0-.32 1.11A1 1 0 0 0 5 22h7v24H9a1 1 0 0 0-1 1v5H5a1 1 0 0 0-1 1v6a1 1 0 0 0 1 1h50a1 1 0 0 0 1-1v-6a1 1 0 0 0-1-1zM22 22h3v24h-3zm-2.9-2l.9-.72 2-1.6 8-6.4 8 6.4 2 1.6.9.72zm7.9 2h6v24h-6zm8 0h3v24h-3zm5 0h6v24h-6zM7.85 20L30 2.28 52.15 20H44.1l-5-4-8.48-6.78a.992.992 0 0 0-1.24 0L20.91 16l-5 4zM20 22v24h-6V22zM10 48h40v4H10zm44 10H6v-4h48z"/>
</svg>
