<svg width="60" height="60" xmlns="http://www.w3.org/2000/svg" viewBox="0 0 60 60">
  <path fill="#fcc02d" d="M54.958 43.737H2V14h52.958z"/>
  <path opacity=".1" d="M55.586 42.324l-1.244-.72c.052-.177.1-.355.142-.536h1.44a2.042 2.042 0 0 0 2.03-2.034v-2.072a2.04 2.04 0 0 0-2.03-2.03h-1.44q-.066-.27-.143-.538l1.25-.72a2.045 2.045 0 0 0 .74-2.774l-1.036-1.8a2.04 2.04 0 0 0-2.775-.742l-1.25.72q-.19-.2-.39-.39l.723-1.253a2.046 2.046 0 0 0-.746-2.776l-1.794-1.037a2.04 2.04 0 0 0-2.774.747l-.72 1.246q-.265-.077-.535-.143V24.03A2.043 2.043 0 0 0 43 22h-2.07a2.043 2.043 0 0 0-2.03 2.035v1.44q-.27.064-.537.142l-.72-1.247a2.04 2.04 0 0 0-2.775-.743l-1.793 1.036a2.043 2.043 0 0 0-.742 2.778l.72 1.25q-.2.192-.39.392l-1.252-.722a2.042 2.042 0 0 0-2.773.746L27.6 30.9a2.043 2.043 0 0 0 .745 2.776l1.244.72c-.053.177-.1.356-.143.536H28.01a2.042 2.042 0 0 0-2.03 2.034v2.073a2.042 2.042 0 0 0 2.033 2.03h1.438c.045.18.092.36.143.537l-1.247.72A2.04 2.04 0 0 0 27.56 45h28.817a2.04 2.04 0 0 0-.79-2.676zm-11.62 1.47a6 6 0 1 1 6-6 6 6 0 0 1-6 6z"/>
  <path fill="#fcc02d" d="M52.96 12H4V7h16.984v2a1 1 0 0 0 1 1H52.96z"/>
  <path opacity=".1" d="M3.997 10H52.96v2H3.996z"/>
  <path opacity=".4" fill="#fff" d="M52.96 14h1.997v15.264H52.96zM22.413 10h-2.428a1 1 0 0 1-1-1V7h2v1h.56l.44 1.01zM50.96 10h2v2h-2z"/>
  <path opacity=".1" d="M43.966 43a5.016 5.016 0 0 1-1-.1 5 5 0 0 0 0-9.8 5 5 0 1 1 1 9.9z"/>
  <path fill="#d66daC" d="M57.967 35.747h-2.25a11.818 11.818 0 0 0-.53-2l1.944-1.124a1.038 1.038 0 0 0 .38-1.413l-1.035-1.79a1.036 1.036 0 0 0-1.412-.38l-1.95 1.127a11.965 11.965 0 0 0-1.46-1.46l1.126-1.952a1.038 1.038 0 0 0-.38-1.413l-1.79-1.034a1.036 1.036 0 0 0-1.41.38l-1.124 1.945a11.8 11.8 0 0 0-2-.53V23.85a1.037 1.037 0 0 0-1.034-1.034H42.98a1.037 1.037 0 0 0-1.035 1.034v2.25a11.8 11.8 0 0 0-2 .53l-1.123-1.945a1.036 1.036 0 0 0-1.412-.38l-1.79 1.035a1.038 1.038 0 0 0-.378 1.413l1.125 1.95a11.964 11.964 0 0 0-1.46 1.462l-1.95-1.126a1.036 1.036 0 0 0-1.41.378L30.51 31.21a1.038 1.038 0 0 0 .378 1.413l1.945 1.124a11.817 11.817 0 0 0-.53 2h-2.25a1.037 1.037 0 0 0-1.034 1.034v2.07a1.037 1.037 0 0 0 1.035 1.034h2.25a11.817 11.817 0 0 0 .53 2l-1.945 1.124a1.038 1.038 0 0 0-.378 1.413l1.034 1.793a1.036 1.036 0 0 0 1.412.38l1.95-1.127a11.964 11.964 0 0 0 1.46 1.46L35.24 48.88a1.038 1.038 0 0 0 .378 1.413l1.79 1.035a1.036 1.036 0 0 0 1.412-.38L39.948 49a11.8 11.8 0 0 0 2 .53v2.253a1.037 1.037 0 0 0 1.034 1.034h2.067a1.037 1.037 0 0 0 1.033-1.034V49.53a11.8 11.8 0 0 0 2-.532l1.117 1.946a1.036 1.036 0 0 0 1.412.38l1.79-1.035a1.038 1.038 0 0 0 .378-1.414l-1.125-1.95a11.965 11.965 0 0 0 1.46-1.462l1.95 1.126a1.036 1.036 0 0 0 1.41-.38l1.035-1.79a1.038 1.038 0 0 0-.378-1.414l-1.945-1.123a11.818 11.818 0 0 0 .53-2h2.25A1.037 1.037 0 0 0 59 38.85v-2.07a1.037 1.037 0 0 0-1.033-1.033zm-13.955 8.276a6.207 6.207 0 1 1 6.2-6.207 6.2 6.2 0 0 1-6.2 6.207z"/>
  <path fill="#565a5c" d="M43.966 45a7 7 0 1 1 6.995-7 7.005 7.005 0 0 1-6.994 7zm0-12a5 5 0 1 0 5 5 5 5 0 0 0-5-5z"/>
  <path opacity=".4" fill="#fff" d="M42.967 44.92a6.626 6.626 0 0 1-1 .08 7.005 7.005 0 0 1-6.995-7 6.784 6.784 0 0 1 .11-1.2v-.02A7.008 7.008 0 0 1 41.968 31a6.626 6.626 0 0 1 1 .08 6.99 6.99 0 0 0 0 13.84zM49.782 26.755l-1.125 1.95a11.963 11.963 0 0 1 1.46 1.462l1.307-.755q-.37-.37-.768-.706l1.125-1.95a1.038 1.038 0 0 0-.377-1.414l-1.79-1.034a1.032 1.032 0 0 0-1.39.352l1.182.682a1.038 1.038 0 0 1 .377 1.413zM54.51 31.21a1.038 1.038 0 0 1-.377 1.414l-1.945 1.124a11.81 11.81 0 0 1 .53 2h2a11.81 11.81 0 0 0-.53-2l1.945-1.124a1.038 1.038 0 0 0 .378-1.413l-1.034-1.79a1.036 1.036 0 0 0-1.412-.38l-.61.353c.006.01.017.016.023.026zM48.657 46.925l1.125 1.95a1.038 1.038 0 0 1-.378 1.414l-1.18.68a1.032 1.032 0 0 0 1.388.353l1.79-1.034a1.038 1.038 0 0 0 .378-1.414l-1.125-1.95q.4-.337.768-.707l-1.307-.756a11.96 11.96 0 0 1-1.46 1.46zM56.132 43.006l-1.945-1.123a11.82 11.82 0 0 0 .53-2h-2a11.82 11.82 0 0 1-.53 2l1.945 1.123a1.038 1.038 0 0 1 .378 1.413l-1.034 1.79c-.006.012-.017.017-.023.027l.61.352a1.036 1.036 0 0 0 1.412-.38l1.034-1.792a1.038 1.038 0 0 0-.378-1.412zM56.968 35.747h-2A1.037 1.037 0 0 1 56 36.78v2.07a1.037 1.037 0 0 1-1.034 1.034h2A1.037 1.037 0 0 0 58 38.85v-2.07a1.037 1.037 0 0 0-1.032-1.033zM40.946 51.78v-2.25a11.8 11.8 0 0 1-2-.532l-.272.47c.09.02.18.044.27.06v2.252a1.037 1.037 0 0 0 1.034 1.034h2a1.037 1.037 0 0 1-1.032-1.033z"/>
  <path fill="#565a5c" d="M42.98 54a2.043 2.043 0 0 1-2.035-2.03v-1.444c-.18-.044-.36-.09-.537-.143l-.718 1.245a2.04 2.04 0 0 1-2.775.746l-1.79-1.034a2.045 2.045 0 0 1-.747-2.777l.72-1.25q-.2-.193-.39-.393l-1.248.72a2.04 2.04 0 0 1-2.775-.74l-1.036-1.8a2.044 2.044 0 0 1 .74-2.777l1.248-.72c-.052-.18-.1-.358-.142-.538h-1.44a2.042 2.042 0 0 1-2.032-2.03v-2.07a2.042 2.042 0 0 1 2.03-2.034H31.5c.044-.18.09-.358.142-.536l-1.244-.72a2.043 2.043 0 0 1-.746-2.775l1.03-1.8a2.042 2.042 0 0 1 2.775-.746l1.25.722q.193-.2.392-.392l-.72-1.25a2.043 2.043 0 0 1 .74-2.777l1.794-1.036a2.04 2.04 0 0 1 2.776.744l.72 1.247q.267-.076.536-.142v-1.433A2.043 2.043 0 0 1 42.976 22h2.07a2.043 2.043 0 0 1 2.034 2.03v1.444q.27.065.536.143l.718-1.246a2.04 2.04 0 0 1 2.774-.746L52.9 24.66a2.046 2.046 0 0 1 .746 2.777l-.723 1.252q.2.19.39.39l1.25-.72a2.04 2.04 0 0 1 2.774.742l1.037 1.798a2.045 2.045 0 0 1-.74 2.777l-1.25.72q.08.268.144.538h1.442A2.04 2.04 0 0 1 60 36.962v2.073a2.042 2.042 0 0 1-2.03 2.034h-1.44c-.045.18-.092.358-.143.536l1.244.72a2.045 2.045 0 0 1 .747 2.776L57.342 46.9a2.043 2.043 0 0 1-2.773.747l-1.253-.724q-.192.2-.39.393l.72 1.248a2.044 2.044 0 0 1-.743 2.777l-1.793 1.037a2.042 2.042 0 0 1-2.775-.742l-.72-1.248q-.266.078-.536.143v1.44A2.043 2.043 0 0 1 45.05 54zm-3.032-5.817a1.01 1.01 0 0 1 .34.06 10.72 10.72 0 0 0 1.828.486 1 1 0 0 1 .828.984v2.252l2.1.034.035-2.286a1 1 0 0 1 .826-.985 10.936 10.936 0 0 0 1.83-.487 1 1 0 0 1 1.205.44l1.124 1.946 1.836-1.024-1.112-2a1 1 0 0 1 .222-1.266A10.97 10.97 0 0 0 52.35 45a1 1 0 0 1 1.265-.223l1.95 1.126 1.08-1.8-1.957-1.17a1 1 0 0 1-.44-1.207 10.734 10.734 0 0 0 .486-1.83 1 1 0 0 1 .985-.828h2.25V36.93h-2.25a1 1 0 0 1-.986-.827 10.94 10.94 0 0 0-.486-1.83 1 1 0 0 1 .44-1.207l1.945-1.124L55.61 30.1l-2 1.114A1 1 0 0 1 52.35 31a11.09 11.09 0 0 0-1.34-1.34 1 1 0 0 1-.22-1.266l1.125-1.95-1.8-1.08-1.17 1.958a1 1 0 0 1-1.204.44 10.847 10.847 0 0 0-1.827-.486 1 1 0 0 1-.828-.985v-2.255L42.98 24l-.036 2.287a1 1 0 0 1-.828.985 10.847 10.847 0 0 0-1.828.486 1 1 0 0 1-1.205-.44l-1.123-1.946-1.836 1.02 1.112 2a1 1 0 0 1-.222 1.266 10.973 10.973 0 0 0-1.338 1.34 1 1 0 0 1-1.265.222l-1.95-1.126-1.08 1.8 1.958 1.17a1 1 0 0 1 .44 1.208 10.734 10.734 0 0 0-.486 1.83 1 1 0 0 1-.985.828h-2.25l-.034 2.1 2.284.034a1 1 0 0 1 .985.83 10.734 10.734 0 0 0 .486 1.828 1 1 0 0 1-.44 1.207l-1.945 1.123 1.02 1.847 2-1.113a1 1 0 0 1 1.266.224 10.953 10.953 0 0 0 1.336 1.34 1 1 0 0 1 .223 1.265l-1.13 1.946 1.8 1.082 1.17-1.96a1 1 0 0 1 .868-.5z"/>
  <path fill="#565a5c" d="M55.957 12h-1V9a1 1 0 0 0-1-1H22.982V6a1 1 0 0 0-1-1H3a1 1 0 0 0-1 1v6H1a1 1 0 0 0-1 1v31.01a1 1 0 0 0 1 1h28.977V43L2 43.01V14h52.958v15h2V13a1 1 0 0 0-1-1zm-3 0H4V7h16.984v2a.993.993 0 0 0 .56.89.925.925 0 0 0 .44.11H52.96z"/>
</svg>
