<svg width="60" height="60" xmlns="http://www.w3.org/2000/svg" viewBox="0 0 60 60">
  <path fill="#d56534" d="M7 1h10v30H7z"/>
  <path opacity=".4" fill="#fff" d="M6 30h48v30H6z"/>
  <path opacity=".1" d="M6 30h48v4H6zM7 24l10-11v-3L7 21v3"/>
  <path opacity=".4" fill="#fff" d="M14 1h3v30h-3z"/>
  <path fill="#b9c2d0" d="M25 46h10v14H25zM13 38h6v6h-6z"/>
  <path fill="#565a5c" d="M19 45h-6a1 1 0 0 1-1-1v-6a1 1 0 0 1 1-1h6a1 1 0 0 1 1 1v6a1 1 0 0 1-1 1zm-5-2h4v-4h-4z"/>
  <path fill="#b9c2d0" d="M41 38h6v6h-6z"/>
  <path fill="#565a5c" d="M47 45h-6a1 1 0 0 1-1-1v-6a1 1 0 0 1 1-1h6a1 1 0 0 1 1 1v6a1 1 0 0 1-1 1zm-5-2h4v-4h-4z"/>
  <path fill="#ec703a" d="M30 1L1 31h58L30 1"/>
  <path fill="#565a5c" d="M59.71 30.32l-29-30a1.008 1.008 0 0 0-1.42 0L18 12V1a1 1 0 0 0-1-1H7a1 1 0 0 0-1 1v23.41L.29 30.32a.966.966 0 0 0-.19 1.06.967.967 0 0 0 .9.6h4V59a1 1 0 0 0 1 1h48a1 1 0 0 0 1-1V31.98h4a.98.98 0 0 0 .71-1.66zM8 2h8v12.07l-8 8.27zm26 56h-8V46h8zm19 0H36V45a1 1 0 0 0-1-1H25a1 1 0 0 0-1 1v13H7V32a1.23 1.23 0 0 1-.2-.02H53zM3.32 30.02L6 27.25l2-2.07 8-8.28L30 2.41l26.68 27.61z"/>
</svg>
