<svg xmlns="http://www.w3.org/2000/svg" height="60" width="60" viewBox="0 0 60 60">
  <g style="isolation:isolate;">
    <g>
      <path d="M49 54.143V1H1v51a7 7 0 0 0 7 7h44.86A4.993 4.993 0 0 1 49 54.143z" style="fill:#28c5d9;"></path>
      <path d="M49 54.143V1h-3v53.143A4.993 4.993 0 0 0 49.86 59h3A4.993 4.993 0 0 1 49 54.143z" style="fill:#fff;opacity:0.4;mix-blend-mode:lighten;"></path>
      <path d="M49 54.143V1H1v51a7 7 0 0 0 7 7h44.86A4.993 4.993 0 0 1 49 54.143z" style="fill:none;stroke:#565a5c;stroke-linecap:round;stroke-linejoin:round;stroke-width:2px;"></path>
      <path d="M7 7h36v10H7z" style="fill:#f08fbb;"></path>
      <path d="M40 7h3v10h-3z" style="fill:#fff;opacity:0.4;mix-blend-mode:lighten;"></path>
      <path d="M7 7h36v10H7z" style="fill:none;stroke:#565a5c;stroke-linecap:round;stroke-linejoin:round;stroke-width:2px;"></path>
      <path d="M7 33h15v10H7z" style="fill:#feed58;"></path>
      <path d="M18 33h4v10h-4z" style="fill:#fff;opacity:0.4;mix-blend-mode:lighten;"></path>
      <path d="M7 33h14v10H7z" style="fill:none;stroke:#565a5c;stroke-linecap:round;stroke-linejoin:round;stroke-width:2px;"></path>
      <path d="M30 41h13v10H30z" style="fill:#feed58;"></path>
      <path d="M40 41h3v10h-3z" style="fill:#fff;opacity:0.4;mix-blend-mode:lighten;"></path>
      <path d="M29 41h14v10H29zM7 21h36M7 25h36M7 29h18" style="fill:none;stroke:#565a5c;stroke-linecap:round;stroke-linejoin:round;stroke-width:2px;"></path>
      <path d="M49 54.026a5 5 0 0 0 10 0V32H49z" style="fill:#23b2c4;"></path>
      <path d="M52 54.026V32h-3v22.026a4.94 4.94 0 0 0 6.5 4.72 4.96 4.96 0 0 1-3.5-4.72z" style="opacity:0.1;mix-blend-mode:multiply;"></path>
      <path d="M25 33v20M7 47h14M7 51h14M29 33h14M29 37h14M49 54.026a5 5 0 0 0 10 0V32H49z" style="fill:none;stroke:#565a5c;stroke-linecap:round;stroke-linejoin:round;stroke-width:2px;"></path>
    </g>
  </g>
</svg>
