<svg width="60" height="60" xmlns="http://www.w3.org/2000/svg" viewBox="0 0 60 60">
  <path fill="#28c5d9" d="M49 54.143V1H1v51a7 7 0 0 0 7 7h44.86A4.993 4.993 0 0 1 49 54.143z"/>
  <path opacity=".4" fill="#fff" d="M49 54.143V1h-3v53.143A4.993 4.993 0 0 0 49.86 59h3A4.993 4.993 0 0 1 49 54.143z"/>
  <path fill="#f08fbb" d="M7 7h36v10H7z"/>
  <path opacity=".4" fill="#fff" d="M40 7h3v10h-3z"/>
  <path fill="#565a5c" d="M43 18H7a1 1 0 0 1-1-1V7a1 1 0 0 1 1-1h36a1 1 0 0 1 1 1v10a1 1 0 0 1-1 1zM8 16h34V8H8z"/>
  <path fill="#feed58" d="M7 33h15v10H7z"/>
  <path opacity=".4" fill="#fff" d="M18 33h4v10h-4z"/>
  <path fill="#565a5c" d="M21 44H7a1 1 0 0 1-1-1V33a1 1 0 0 1 1-1h14a1 1 0 0 1 1 1v10a1 1 0 0 1-1 1zM8 42h12v-8H8z"/>
  <path fill="#feed58" d="M30 41h13v10H30z"/>
  <path opacity=".4" fill="#fff" d="M40 41h3v10h-3z"/>
  <path fill="#565a5c" d="M43 52H29a1 1 0 0 1-1-1V41a1 1 0 0 1 1-1h14a1 1 0 0 1 1 1v10a1 1 0 0 1-1 1zm-13-2h12v-8H30zM43 22H7a1 1 0 0 1 0-2h36a1 1 0 0 1 0 2zM43 26H7a1 1 0 0 1 0-2h36a1 1 0 0 1 0 2zM25 30H7a1 1 0 0 1 0-2h18a1 1 0 0 1 0 2z"/>
  <path fill="#23b2c4" d="M49 54.026a5 5 0 0 0 10 0V32H49z"/>
  <path opacity=".1" d="M52 54.026V32h-3v22.026a4.94 4.94 0 0 0 6.5 4.72 4.96 4.96 0 0 1-3.5-4.72z"/>
  <path fill="#565a5c" d="M25 54a1 1 0 0 1-1-1V33a1 1 0 0 1 2 0v20a1 1 0 0 1-1 1zM21 48H7a1 1 0 0 1 0-2h14a1 1 0 0 1 0 2zM21 52H7a1 1 0 0 1 0-2h14a1 1 0 0 1 0 2zM43 34H29a1 1 0 0 1 0-2h14a1 1 0 0 1 0 2zM43 38H29a1 1 0 0 1 0-2h14a1 1 0 0 1 0 2z"/>
  <path fill="#565a5c" d="M8 58a6 6 0 0 1-6-6V2h46v52.14A5.99 5.99 0 0 0 49.4 58zm50-3.97a4 4 0 0 1-8 0V33h8zM59 31h-9V1a1 1 0 0 0-1-1H1a1 1 0 0 0-1 1v51a8.01 8.01 0 0 0 8 8h44.86a.746.746 0 0 0 .26-.04 5.14 5.14 0 0 0 .88.07 6.01 6.01 0 0 0 6-6V32a1 1 0 0 0-1-1z"/>
</svg>
