<svg width="60" height="60" xmlns="http://www.w3.org/2000/svg" viewBox="0 0 60 60">
  <path fill="#14c5db" d="M15 1h30v58H15z"/>
  <path fill="#fff" opacity=".4" d="M42 1h3v58h-3z"/>
  <path fill="#565a5c" d="M45 60H15a1 1 0 0 1-1-1V1a1 1 0 0 1 1-1h30a1 1 0 0 1 1 1v58a1 1 0 0 1-1 1zm-29-2h28V2H16z"/>
  <circle fill="#fcc02d" cx="21" cy="30" r="1"/>
  <path fill="#565a5c" d="M21 29a1 1 0 1 1-1 1 1 1 0 0 1 1-1m0-2a3 3 0 1 0 3 3 3 3 0 0 0-3-3z"/>
  <path fill="#14c5db" d="M32 5h9v23h-9zM32 32h9v23h-9zM26.65 28H28V5h-9v19.35a5.973 5.973 0 0 1 7.635 3.612z"/>
  <path opacity=".1" d="M25 5v20.552A6.008 6.008 0 0 1 26.65 28H28V5zM19 24.086v.262c.167-.06.344-.092.516-.137-.17-.043-.34-.094-.516-.124z"/>
  <path fill="#14c5db" d="M26.65 32a5.973 5.973 0 0 1-7.612 3.665L19 35.65V55h9V32z"/>
  <path opacity=".1" d="M19.516 35.788c-.172-.045-.35-.078-.516-.137v.263c.177-.03.345-.08.516-.125zM26.65 32A6.008 6.008 0 0 1 25 34.448V55h3V32z"/>
  <path fill="#565a5c" d="M41 29h-9a1 1 0 0 1-1-1V5a1 1 0 0 1 1-1h9a1 1 0 0 1 1 1v23a1 1 0 0 1-1 1zm-8-2h7V6h-7zM41 56h-9a1 1 0 0 1-1-1V32a1 1 0 0 1 1-1h9a1 1 0 0 1 1 1v23a1 1 0 0 1-1 1zm-8-2h7V33h-7zM28 29h-1.35a1 1 0 0 1-.935-.64l-.036-.1a4.972 4.972 0 0 0-6.344-2.966A1 1 0 0 1 18 24.35V5a1 1 0 0 1 1-1h9a1 1 0 0 1 1 1v23a1 1 0 0 1-1 1zm-7-6a7 7 0 0 1 6 3.4V6h-7v17.073A6.91 6.91 0 0 1 21 23zM28 56h-9a1 1 0 0 1-1-1V35.65a1 1 0 0 1 1.36-.932 4.972 4.972 0 0 0 6.345-3.048 1 1 0 0 1 .944-.67H28a1 1 0 0 1 1 1v23a1 1 0 0 1-1 1zm-8-2h7V33.6a6.987 6.987 0 0 1-7 3.325zM11.17 34.242a.988.988 0 0 1-1.357.042.17.17 0 0 1-.057-.042 6 6 0 0 1 0-8.485 1 1 0 1 1 1.414 1.414 4 4 0 0 0 0 5.658.17.17 0 0 1 .042.057.988.988 0 0 1-.04 1.357z"/>
  <path fill="#565a5c" d="M8.342 37.07a.988.988 0 0 1-1.358.043.17.17 0 0 1-.057-.042 10 10 0 0 1 0-14.14 1 1 0 0 1 1.414 1.413 8.01 8.01 0 0 0 0 11.314.17.17 0 0 1 .043.057.988.988 0 0 1-.04 1.357z"/>
  <path fill="#565a5c" d="M5.514 39.9a.988.988 0 0 1-1.358.042.17.17 0 0 1-.056-.042 14 14 0 0 1 0-19.8 1 1 0 0 1 1.414 1.414 12.01 12.01 0 0 0 0 16.97.17.17 0 0 1 .042.058.988.988 0 0 1-.042 1.358zM48.83 34.242a.988.988 0 0 0 1.357.042.17.17 0 0 0 .057-.042 6 6 0 0 0 0-8.485 1 1 0 0 0-1.414 1.414 4 4 0 0 1 0 5.658.17.17 0 0 0-.042.057.988.988 0 0 0 .04 1.357z"/>
  <path fill="#565a5c" d="M51.658 37.07a.988.988 0 0 0 1.358.043.17.17 0 0 0 .057-.042 10 10 0 0 0 0-14.14 1 1 0 0 0-1.414 1.413 8.01 8.01 0 0 1 0 11.314.17.17 0 0 0-.043.057.988.988 0 0 0 .04 1.357z"/>
  <path fill="#565a5c" d="M54.486 39.9a.988.988 0 0 0 1.358.042.17.17 0 0 0 .056-.042 14 14 0 0 0 0-19.8 1 1 0 0 0-1.414 1.414 12.01 12.01 0 0 1 0 16.97.17.17 0 0 0-.042.058.988.988 0 0 0 .042 1.358z"/>
</svg>
