<svg width="60" height="60" xmlns="http://www.w3.org/2000/svg" viewBox="0 0 60 60">
  <path opacity=".1" d="M57.05 1.463a.732.732 0 0 1 .486.486c.074.24 7.158 24.393-10.517 42.068S5.19 54.61 4.95 54.538a.73.73 0 0 1-.486-.487A41.133 41.133 0 0 1 15 11.98C32.675-5.693 56.808 1.39 57.05 1.464z"/>
  <path fill="#d3e057" d="M57.533 2.558S41.66-2.262 26.318 5.613v28.16z"/>
  <path fill="#d66dac" d="M54.478 33.774c7.877-15.34 3.055-31.216 3.055-31.216L26.318 33.774z"/>
  <path fill="#14c5db" d="M26.318 5.613a39.217 39.217 0 0 0-9.87 7.216C-1.014 30.29 6.176 53.914 6.176 53.914l20.142-20.14z"/>
  <path fill="#feed58" d="M47.262 43.644a39.217 39.217 0 0 0 7.216-9.87h-28.16L6.176 53.914S29.8 61.1 47.262 43.645z"/>
  <path opacity=".4" fill="#fff" d="M57.944 4.2c-.232-1.056-.41-1.644-.41-1.644s-.59-.18-1.645-.41c.1.476.22 1.058.336 1.717 1.252 7.137 2.45 24.26-11.018 37.727S14.616 53.86 7.483 52.608c-.658-.116-1.24-.23-1.718-.337.232 1.057.41 1.645.41 1.645s.59.18 1.645.41c5.647 1.244 24.73 4.03 39.442-10.68S59.187 9.848 57.944 4.2z"/>
  <path opacity=".1" d="M18.5 14.884C33.214.174 52.3 2.96 57.944 4.2c-.232-1.056-.41-1.644-.41-1.644S33.908-4.632 16.447 12.83 6.176 53.915 6.176 53.915s.588.18 1.644.41C6.577 48.68 3.79 29.6 18.5 14.886z"/>
  <path fill="#565a5c" d="M58.54 2.17a.076.076 0 0 0-.02-.04.723.723 0 0 0-.09-.2 1.364 1.364 0 0 0-.15-.21 1.364 1.364 0 0 0-.21-.15.723.723 0 0 0-.2-.09.076.076 0 0 0-.04-.02A43.122 43.122 0 0 0 4.86 53.72L.29 58.29a1.008 1.008 0 0 0 0 1.42 1.014 1.014 0 0 0 1.42 0l4.57-4.57a43.136 43.136 0 0 0 10.66 1.34 42.954 42.954 0 0 0 21.5-5.79 42.87 42.87 0 0 0 20.1-26.19 43.35 43.35 0 0 0 0-22.33zm-2.94.81L27.64 30.94V6.87a1.23 1.23 0 0 0-.02-.2A40.725 40.725 0 0 1 55.6 2.98zM6.94 32.48a40.82 40.82 0 0 1 18.7-24.7v25.16L6.52 52.06a41.047 41.047 0 0 1 .42-19.58zm30.5 16.48a40.9 40.9 0 0 1-29.5 4.52l19.12-19.12h25.19a40.9 40.9 0 0 1-14.81 14.6zM56.6 23.98a41.66 41.66 0 0 1-3.26 8.41.78.78 0 0 0-.22-.03H29.06L57.02 4.4a41.047 41.047 0 0 1-.42 19.58z"/>
</svg>
