<svg xmlns="http://www.w3.org/2000/svg" height="60" width="60" viewBox="0 0 60 60">
  <g style="isolation:isolate;">
    <g>
      <path d="M57.05 1.463a.732.732 0 0 1 .486.486c.074.24 7.158 24.393-10.517 42.068S5.19 54.61 4.95 54.538a.73.73 0 0 1-.486-.487A41.133 41.133 0 0 1 15 11.98C32.675-5.693 56.808 1.39 57.05 1.464z" style="opacity:0.1;mix-blend-mode:multiply;"></path>
      <path d="M57.533 2.558S41.66-2.262 26.318 5.613v28.16z" style="fill:#d3e057;"></path>
      <path d="M54.478 33.774c7.877-15.34 3.055-31.216 3.055-31.216L26.318 33.774z" style="fill:#d66dac;"></path>
      <path d="M26.318 5.613a39.217 39.217 0 0 0-9.87 7.216C-1.014 30.29 6.176 53.914 6.176 53.914l20.142-20.14z" style="fill:#14c5db;"></path>
      <path d="M47.262 43.644a39.217 39.217 0 0 0 7.216-9.87h-28.16L6.176 53.914s23.624 7.19 41.086-10.27z" style="fill:#feed58;"></path>
      <path d="M57.944 4.2c-.232-1.056-.41-1.644-.41-1.644s-.59-.18-1.645-.41c.104.476.22 1.058.336 1.717 1.252 7.137 2.45 24.26-11.018 37.727S14.616 53.86 7.483 52.608c-.658-.116-1.24-.23-1.718-.337.232 1.057.41 1.645.41 1.645s.59.18 1.645.41c5.647 1.244 24.73 4.03 39.442-10.68S59.187 9.848 57.944 4.2z" style="fill:#fff;opacity:0.5;"></path>
      <path d="M18.5 14.884C33.214.174 52.3 2.96 57.944 4.2c-.232-1.056-.41-1.644-.41-1.644S33.908-4.632 16.447 12.83 6.176 53.915 6.176 53.915s.588.18 1.644.41C6.577 48.68 3.79 29.6 18.5 14.886z" style="opacity:0.1;"></path>
      <path d="M57.57 2.43a42.13 42.13 0 0 0-51.6 51.6 42.13 42.13 0 0 0 51.6-51.6zM1 59L57.57 2.43M26.636 33.364h26.487M26.636 33.364V6.866" style="fill:none;stroke:#565a5c;stroke-linecap:round;stroke-linejoin:round;stroke-width:2px;"></path>
    </g>
  </g>
</svg>
