<svg xmlns="http://www.w3.org/2000/svg" height="60" width="60" viewBox="0 0 60 60">
  <g style="isolation:isolate;">
    <g>
      <path d="M29 59a2.99 2.99 0 0 1-2.12-.88l-8-8a3 3 0 0 1 4.24-4.24L29 51.757l10.88-10.88a3 3 0 0 1 4.24 4.243l-13 13A2.99 2.99 0 0 1 29 59z" style="fill:#d3e057;"></path>
      <path d="M44.12 40.88a2.987 2.987 0 0 0-2.824-.786 2.99 2.99 0 0 1-.175 4.027l-13 13a2.973 2.973 0 0 1-1.447.795l.206.206a3 3 0 0 0 4.24 0l13-13a3 3 0 0 0 0-4.24z" style="opacity:0.4;mix-blend-mode:lighten;fill:#fff;"></path>
      <path d="M29 59a2.99 2.99 0 0 1-2.12-.88l-8-8a3 3 0 0 1 4.24-4.24L29 51.757l10.88-10.88a3 3 0 0 1 4.24 4.243l-13 13A2.99 2.99 0 0 1 29 59z" style="fill:none;stroke:#565a5c;stroke-linecap:round;stroke-linejoin:round;stroke-width:2px;"></path>
      <path d="M43 14.5A13.772 13.772 0 0 0 29 1a13.772 13.772 0 0 0-14 13.5 3.113 3.113 0 0 0 6.222 0 7.783 7.783 0 0 1 15.556 0A7.65 7.65 0 0 1 29 22a3.057 3.057 0 0 0-3.11 3v5a3.113 3.113 0 0 0 6.22 0v-2.348A13.633 13.633 0 0 0 43 14.5z" style="fill:#4885dc;"></path>
      <g style="opacity:0.4;mix-blend-mode:lighten;">
        <path d="M29 1a14.6 14.6 0 0 0-1.556.088A13.705 13.705 0 0 1 39.89 14.5 13.633 13.633 0 0 1 29 27.652V30a2.97 2.97 0 0 1-1.556 2.584A3.167 3.167 0 0 0 29 33a3.057 3.057 0 0 0 3.11-3v-2.348A13.633 13.633 0 0 0 43 14.5 13.772 13.772 0 0 0 29 1z" style="fill:#fff;"></path>
        <path d="M27.444 7.15A8.056 8.056 0 0 0 25.89 7a7.65 7.65 0 0 0-7.78 7.5 2.97 2.97 0 0 1-1.555 2.584 3.167 3.167 0 0 0 1.556.416 3.057 3.057 0 0 0 3.112-3 7.586 7.586 0 0 1 6.222-7.35z" style="fill:#fff;"></path>
      </g>
      <circle cx="29" cy="40" r="3" style="fill:#4885dc;"></circle>
      <path d="M29 37a2.97 2.97 0 0 0-1.5.416 2.976 2.976 0 0 1 0 5.168A2.995 2.995 0 1 0 29 37z" style="opacity:0.4;mix-blend-mode:lighten;fill:#fff;"></path>
      <path d="M43 14.5A13.772 13.772 0 0 0 29 1a13.772 13.772 0 0 0-14 13.5 3.113 3.113 0 0 0 6.222 0 7.783 7.783 0 0 1 15.556 0A7.65 7.65 0 0 1 29 22a3.057 3.057 0 0 0-3.11 3v5a3.113 3.113 0 0 0 6.22 0v-2.348A13.633 13.633 0 0 0 43 14.5z" style="fill:none;stroke:#565a5c;stroke-linecap:round;stroke-linejoin:round;stroke-width:2px;"></path>
      <circle cx="29" cy="40" r="3" style="fill:none;stroke:#565a5c;stroke-linecap:round;stroke-linejoin:round;stroke-width:2px;"></circle>
    </g>
  </g>
</svg>
