<svg width="60" height="60" xmlns="http://www.w3.org/2000/svg" viewBox="0 0 60 60">
  <path fill="#d3e057" d="M29 59a2.99 2.99 0 0 1-2.12-.88l-8-8a3 3 0 0 1 4.24-4.24L29 51.757l10.88-10.88a3 3 0 0 1 4.24 4.243l-13 13A2.99 2.99 0 0 1 29 59z"/>
  <path opacity=".4" fill="#fff" d="M44.12 40.88a2.987 2.987 0 0 0-2.824-.786 2.99 2.99 0 0 1-.175 4.027l-13 13a2.973 2.973 0 0 1-1.447.795l.206.206a3 3 0 0 0 4.24 0l13-13a3 3 0 0 0 0-4.24z"/>
  <path fill="#565a5c" d="M29 60a4.015 4.015 0 0 1-2.826-1.173l-8-8a4 4 0 0 1 5.644-5.67L29 50.345l10.172-10.172a4.063 4.063 0 0 1 2.86-1.135 4 4 0 0 1 2.81 6.778L31.827 58.828A4.016 4.016 0 0 1 29 60zm-7.958-13.968a2 2 0 0 0-1.442 3.395l7.988 7.987A1.98 1.98 0 0 0 29 58a2 2 0 0 0 1.41-.585l13-13A2 2 0 0 0 42 41.037a2.044 2.044 0 0 0-1.423.56l-10.87 10.868a1 1 0 0 1-1.414 0l-5.88-5.88a1.972 1.972 0 0 0-1.37-.553z"/>
  <path fill="#4885dc" d="M43 14.5A13.772 13.772 0 0 0 29 1a13.772 13.772 0 0 0-14 13.5 3.113 3.113 0 0 0 6.222 0 7.783 7.783 0 0 1 15.556 0A7.65 7.65 0 0 1 29 22a3.057 3.057 0 0 0-3.11 3v5a3.113 3.113 0 0 0 6.22 0v-2.348A13.633 13.633 0 0 0 43 14.5z"/>
  <path opacity=".4" fill="#fff" d="M29 1a14.6 14.6 0 0 0-1.556.088A13.7 13.7 0 0 1 39.89 14.5 13.633 13.633 0 0 1 29 27.652V30a2.97 2.97 0 0 1-1.556 2.584A3.167 3.167 0 0 0 29 33a3.057 3.057 0 0 0 3.11-3v-2.348A13.633 13.633 0 0 0 43 14.5 13.772 13.772 0 0 0 29 1z"/>
  <path opacity=".4" fill="#fff" d="M27.444 7.15A8.056 8.056 0 0 0 25.89 7a7.65 7.65 0 0 0-7.78 7.5 2.97 2.97 0 0 1-1.555 2.584 3.167 3.167 0 0 0 1.556.416 3.057 3.057 0 0 0 3.112-3 7.586 7.586 0 0 1 6.222-7.35z"/>
  <circle fill="#4885dc" cx="29" cy="40" r="3"/>
  <path opacity=".4" fill="#fff" d="M29 37a2.97 2.97 0 0 0-1.5.416 2.976 2.976 0 0 1 0 5.168A2.995 2.995 0 1 0 29 37z"/>
  <path fill="#565a5c" d="M28.994 34a4.112 4.112 0 0 1-4.1-3.965V25a4.07 4.07 0 0 1 4.13-4h.112a6.663 6.663 0 0 0 6.647-6.52 6.784 6.784 0 0 0-13.557.054A4.113 4.113 0 0 1 15.31 17.4 4.087 4.087 0 0 1 14 14.536 14.8 14.8 0 0 1 29.017 0 14.784 14.784 0 0 1 44 14.48v.034a14.535 14.535 0 0 1-10.89 13.93V30a4.134 4.134 0 0 1-3.964 4zm-.048-11a2.06 2.06 0 0 0-2.057 2.02V30a2.114 2.114 0 0 0 2.185 2 2.12 2.12 0 0 0 2.037-2.036v-2.312a1 1 0 0 1 .8-.98A12.555 12.555 0 0 0 42 14.5 12.8 12.8 0 0 0 29.233 2H28.8A12.8 12.8 0 0 0 16 14.52a2.117 2.117 0 0 0 2.187 1.98 2.12 2.12 0 0 0 2.036-2.036A8.783 8.783 0 0 1 29.315 6a8.815 8.815 0 0 1 8.462 8.463A8.7 8.7 0 0 1 28.983 23zM29 44a4 4 0 1 1 4-4 4 4 0 0 1-4 4zm0-6a2 2 0 1 0 2 2 2 2 0 0 0-2-2z"/>
</svg>
