<svg width="60" height="60" xmlns="http://www.w3.org/2000/svg" viewBox="0 0 60 60">
  <path fill="#9E9ED7" d="M10 2h22v12H10V2z"/>
  <path fill="#565A5C" d="M17 11h-3c-1.1 0-2-.9-2-2V7c0-1.1.9-2 2-2h3c1.1 0 2 .9 2 2v2c0 1.1-.9 2-2 2zm-3-4v2h3V7h-3zM28 11h-3c-1.1 0-2-.9-2-2V7c0-1.1.9-2 2-2h3c1.1 0 2 .9 2 2v2c0 1.1-.9 2-2 2zm-3-4v2h3V7h-3z"/>
  <path fill="#5D5BC0" d="M35 38.5c0 3-3.5 5.5-7.6 5.5H14.6C10.5 44 7 41.5 7 38.5V16h28v22.5zM18 46h6v2h-6z"/>
  <path fill="#FEED58" d="M14 7h3v2h-3zM25 7h3v2h-3z"/>
  <path opacity=".4" fill="#fff" d="M30 2h2v12h-2zM27.4 45c1.9 0 3.7-.6 5.1-1.5 1.5-1.3 2.5-3.1 2.5-5.1V16h-2v22.5c0 3-3.5 5.5-7.6 5.5H12.6c-1.1 0-2.2-.2-3.2-.5 1.4.9 3.2 1.5 5.2 1.5h12.8z"/>
  <path opacity=".1" d="M10 12h22v2H10zM18 46h4v2h-4z"/>
  <path fill="#565A5C" d="M55 24h-3.1c-1.7 0-3.4.4-4.9 1.1-3.4 1.7-5.7 5.1-6.1 8.9v1c0 1.6.3 3.1 1 4.5 0 .1.1.2.1.3.6 1.3.9 2.7.9 4.1 0 5.5-4.5 10-10 10-3.3 0-6.3-1.6-8.1-4.1.7-.3 1.2-1 1.2-1.8v-2h1.4c5.3 0 9.6-3.4 9.6-7.5V15.3c0-.7-.7-1.3-1.6-1.3H34V1.2c0-.7-.7-1.2-1.6-1.2H9.6C8.7 0 8 .5 8 1.2V14H6.6c-.9 0-1.6.6-1.6 1.3v23.2c0 4.2 4.3 7.5 9.6 7.5H16v2c0 1.1.9 2 2 2h.1c2.4 5.8 8.1 10 14.8 10 8.8 0 16-7.2 16-16 0-.6 0-1.2-.1-1.8-.2-1.7-.6-3.3-1.3-4.8l-.1-.2c-.3-.6-.5-1.4-.5-2.1 0-2.8 2.2-5 5-5H55c.5 0 1-.5 1-1v-4c0-.6-.5-1.1-1-1.1zM10 2h22v12H10V2zm4.6 42C10.5 44 7 41.5 7 38.5V16h28v22.5c0 3-3.5 5.5-7.6 5.5H14.6zm3.4 4v-2h6v2h-6zm33.9-20c-3.9 0-7 3.1-7 7 0 1 .2 2.1.7 3l.1.2c.6 1.3 1 2.7 1.2 4.2.1.5.1 1 .1 1.6 0 7.7-6.3 14-14 14-5.6 0-10.4-3.2-12.6-8h2.3c2.1 3.6 5.9 6 10.4 6 6.6 0 12-5.4 12-12 0-1.8-.4-3.5-1.1-5 0-.1-.1-.1-.1-.2-.5-1.1-.8-2.4-.8-3.7v-.8c.3-3.2 2.2-5.9 5-7.3 1.2-.6 2.6-.9 4-.9H54v2h-2.1z"/>
  <path fill="#9E9ED7" d="M51.9 28c-3.9 0-7 3.1-7 7 0 1 .2 2.1.7 3l.1.2c.6 1.3 1 2.7 1.2 4.2.1.5.1 1 .1 1.6 0 7.7-6.3 14-14 14-5.6 0-10.4-3.2-12.6-8h2.3c2.1 3.6 5.9 6 10.4 6 6.6 0 12-5.4 12-12 0-1.8-.4-3.5-1.1-5 0-.1-.1-.1-.1-.2-.5-1.1-.8-2.4-.8-3.7v-.8c.3-3.2 2.2-5.9 5-7.3 1.2-.6 2.6-.9 4-.9H54v2h-2.1z"/>
  <path opacity=".4" fill="#fff" d="M49.9 26.9c-2.7 1.4-4.7 4.1-5 7.3v.8c0-3.9 3.1-7 7-7H54v-2h-.1c-1.5 0-2.8.3-4 .9zM22.5 50h-.3c2.1 4.4 6.4 7.5 11.5 7.9 6.3-.4 11.5-5 12.8-11 .1-.5.2-.9.2-1.4.1-.5 0 .5-.3 1.4-1.3 5.2-6 9-11.6 9-.3 0-.6 0-.9-.1-.4 0-.8.1-1.1.1-4.4.1-8.2-2.3-10.3-5.9z"/>
</svg>
