<svg xmlns="http://www.w3.org/2000/svg" height="60" width="60" viewBox="0 0 60 60">
  <g style="isolation:isolate;">
    <g>
      <path d="M3 3h18v18H3z" style="fill:#fcc02d;"></path>
      <path d="M21 3h18v18H21z" style="fill:#e9428d;"></path>
      <path d="M39 3h18v18H39z" style="fill:#70d070;"></path>
      <path d="M3 21h18v18H3z" style="fill:#14c5db;"></path>
      <path d="M21 21h18v18H21z" style="fill:#d3e057;"></path>
      <path d="M39 21h18v18H39z" style="fill:#86509e;"></path>
      <path d="M3 39h18v18H3z" style="fill:#feed58;"></path>
      <path d="M21 39h18v18H21z" style="fill:#5d5bc0;"></path>
      <path d="M39 39h18v18H39z" style="fill:#fd9727;"></path>
      <path d="M54 3h3v54h-3zM36 3h3v54h-3zM18 3h3v54h-3z" style="fill:#fff;opacity:0.4;mix-blend-mode:lighten;"></path>
      <path d="M3 3h18v18H3zM21 3h18v18H21zM39 3h18v18H39zM3 21h18v18H3zM21 21h18v18H21zM39 21h18v18H39zM3 39h18v18H3zM21 39h18v18H21zM39 39h18v18H39z" style="fill:none;stroke:#565a5c;stroke-linecap:round;stroke-linejoin:round;stroke-width:2px;"></path>
    </g>
  </g>
</svg>
