<svg width="60" height="60" xmlns="http://www.w3.org/2000/svg" viewBox="0 0 60 60">
  <path fill="#fcc02d" d="M3 3h18v18H3z"/>
  <path fill="#e9428d" d="M21 3h18v18H21z"/>
  <path fill="#70d070" d="M39 3h18v18H39z"/>
  <path fill="#14c5db" d="M3 21h18v18H3z"/>
  <path fill="#d3e057" d="M21 21h18v18H21z"/>
  <path fill="#86509e" d="M39 21h18v18H39z"/>
  <path fill="#feed58" d="M3 39h18v18H3z"/>
  <path fill="#5d5bc0" d="M21 39h18v18H21z"/>
  <path fill="#fd9727" d="M39 39h18v18H39z"/>
  <path opacity=".4" fill="#fff" d="M54 3h3v54h-3zM36 3h3v54h-3zM18 3h3v54h-3z"/>
  <path fill="#565a5c" d="M57 2H3a1 1 0 0 0-1 1v54a1 1 0 0 0 1 1h54a1 1 0 0 0 1-1V3a1 1 0 0 0-1-1zM20 56H4V40h16zm0-18H4V22h16zm0-18H4V4h16zm18 36H22V40h16zm0-18H22V22h16zm0-18H22V4h16zm18 36H40V40h16zm0-18H40V22h16zm0-18H40V4h16z"/>
</svg>
