<svg width="60" height="60" xmlns="http://www.w3.org/2000/svg" viewBox="0 0 60 60">
  <path fill="#f2f3f5" d="M1 10.545h58V59H1z"/>
  <path fill="#e5423b" d="M2 10h58v16H2z"/>
  <path opacity=".4" fill="#fff" d="M56 10h3v16h-3z"/>
  <path fill="#ef8d87" d="M7 32h46v20H7z"/>
  <path opacity=".4" fill="#fff" d="M50.545 32.364h4v21.182h-4z"/>
  <path fill="#565a5c" d="M6.04 41.77v.46a.9.9 0 0 1 0-.46zM53.99 42a.854.854 0 0 1-.03.23v-.46a.854.854 0 0 1 .03.23zM30.1 31.04h-.2a.507.507 0 0 1 .2 0zM30.1 52.96a.507.507 0 0 1-.2 0zM53 31.04H7a.96.96 0 0 0-.96.96v20a.96.96 0 0 0 .96.96h46a.96.96 0 0 0 .96-.96V32a.96.96 0 0 0-.96-.96zm-35.97 20H7.96v-8.05h9.07zm0-10.03H7.96v-8.05h9.07zm12 10.03H18.97v-8.05h10.06zm0-10.03H18.97v-8.05h10.06zm1.94-8.05h10.06v8.05H30.97zm0 18.08v-8.05h10.06v8.05zm21.07 0h-9.07v-8.05h9.07zm0-10.03h-9.07v-8.05h9.07zM42.1 31.04h-.2a.507.507 0 0 1 .2 0zM42.1 52.96a.507.507 0 0 1-.2 0zM18.1 31.04h-.2a.507.507 0 0 1 .2 0zM18.1 52.96a.507.507 0 0 1-.2 0zM44.02 9.01v1.98h3.96V9.01zm-32 0v1.98h3.96V9.01z"/>
  <path opacity=".1" d="M14 3.037a3 3 0 0 1 3 3v12a3 3 0 0 1-3 3 3 3 0 0 1-3-3v-12a3 3 0 0 1 3-3z"/>
  <path opacity=".1" d="M14 22.056a4.023 4.023 0 0 1-4.02-4.02v-12a4.02 4.02 0 0 1 8.038 0v12A4.023 4.023 0 0 1 14 22.057zm0-18a1.983 1.983 0 0 0-1.98 1.98v12a1.98 1.98 0 1 0 3.962 0v-12A1.983 1.983 0 0 0 14 4.057z"/>
  <path fill="#f2f3f5" d="M14 1a3 3 0 0 1 3 3v12a3 3 0 0 1-3 3 3 3 0 0 1-3-3V4a3 3 0 0 1 3-3z"/>
  <path opacity=".1" d="M46 3.037a3 3 0 0 1 3 3v12a3 3 0 0 1-3 3 3 3 0 0 1-3-3v-12a3 3 0 0 1 3-3z"/>
  <path opacity=".1" d="M46 22.056a4.023 4.023 0 0 1-4.02-4.02v-12a4.02 4.02 0 0 1 8.038 0v12A4.023 4.023 0 0 1 46 22.057zm0-18a1.983 1.983 0 0 0-1.98 1.98v12a1.98 1.98 0 1 0 3.962 0v-12A1.983 1.983 0 0 0 46 4.057z"/>
  <path fill="#f2f3f5" d="M46 1a3 3 0 0 1 3 3v12a3 3 0 0 1-3 3 3 3 0 0 1-3-3V4a3 3 0 0 1 3-3z"/>
  <path fill="#565a5c" d="M59.99 10.44V10a.986.986 0 0 0-.99-.99h-8.98V4a4.02 4.02 0 1 0-8.04 0v5.01H18.02V4a4.02 4.02 0 1 0-8.04 0v5.01H1a.986.986 0 0 0-.99.99v.44a.34.34 0 0 0-.01.1V59a1 1 0 0 0 1 1h58a1 1 0 0 0 1-1V10.54a.34.34 0 0 0-.01-.1zM44.02 4a1.98 1.98 0 0 1 3.96 0v12a1.98 1.98 0 0 1-3.96 0zm-32 0a1.98 1.98 0 0 1 3.96 0v12a1.98 1.98 0 0 1-3.96 0zM58 58H2V26.99h56zm.01-32.99H1.99V10.99h7.99V16a4.02 4.02 0 0 0 8.04 0v-5.01h23.96V16a4.02 4.02 0 0 0 8.04 0v-5.01h7.99z"/>
</svg>
