<svg xmlns="http://www.w3.org/2000/svg" height="60" width="60" viewBox="0 0 60 60">
  <g style="isolation:isolate;">
    <g>
      <path d="M1 10.545h58V59H1z" style="fill:#f2f3f5;stroke:#565a5c;stroke-linecap:round;stroke-linejoin:round;stroke-width:2px;"></path>
      <path d="M1 10h58v16H1z" style="fill:#e5423b;"></path>
      <path d="M56 10h3v16h-3z" style="fill:#fff;opacity:0.4;mix-blend-mode:lighten;"></path>
      <path d="M7 32h46v20H7z" style="fill:#ef8d87;"></path>
      <path d="M50.545 32.364h4v21.182h-4z" style="fill:#fff;opacity:0.4;mix-blend-mode:lighten;"></path>
      <path d="M7 32h46v20H7z" style="stroke:#565a5c;stroke-linecap:round;stroke-linejoin:round;fill:none;stroke-width:1.921px;"></path>
      <path d="M7 42h46" style="stroke:#565a5c;stroke-linecap:round;stroke-linejoin:round;fill:none;stroke-width:1.977px;"></path>
      <path d="M30 32v20M42 32v20M18 32v20" style="stroke:#565a5c;stroke-linecap:round;stroke-linejoin:round;fill:none;stroke-width:1.943px;"></path>
      <path d="M1 10h58v16H1z" style="stroke:#565a5c;stroke-linecap:round;stroke-linejoin:round;fill:none;stroke-width:1.978px;"></path>
      <g style="opacity:0.1;mix-blend-mode:multiply;">
        <rect x="11" y="3.037" width="6" height="18" rx="3" ry="3"></rect>
        <rect x="11" y="3.037" width="6" height="18" rx="3" ry="3" style="stroke-linecap:round;stroke-linejoin:round;fill:none;stroke:#000;stroke-width:2.037px;"></rect>
      </g>
      <rect x="11" y="1" width="6" height="18" rx="3" ry="3" style="fill:#f2f3f5;"></rect>
      <rect x="11" y="1" width="6" height="18" rx="3" ry="3" style="stroke:#565a5c;stroke-linecap:round;stroke-linejoin:round;fill:none;stroke-width:2.037px;"></rect>
      <g style="opacity:0.1;mix-blend-mode:multiply;">
        <rect x="43" y="3.037" width="6" height="18" rx="3" ry="3"></rect>
        <rect x="43" y="3.037" width="6" height="18" rx="3" ry="3" style="stroke-linecap:round;stroke-linejoin:round;fill:none;stroke:#000;stroke-width:2.037px;"></rect>
      </g>
      <rect x="43" y="1" width="6" height="18" rx="3" ry="3" style="fill:#f2f3f5;"></rect>
      <rect x="43" y="1" width="6" height="18" rx="3" ry="3" style="stroke:#565a5c;stroke-linecap:round;stroke-linejoin:round;fill:none;stroke-width:2.037px;"></rect>
    </g>
  </g>
</svg>
