<svg width="60" height="60" xmlns="http://www.w3.org/2000/svg" viewBox="0 0 60 60">
  <path fill="#5554ab" d="M24.5 18.9h-21a11.557 11.557 0 0 1 1.252-2.6A11.08 11.08 0 0 1 14 11.1a10.326 10.326 0 0 1 1.81.156 11.206 11.206 0 0 1 7.438 5.044 11.4 11.4 0 0 1 .83 1.545c.013.013.013.04.026.052A8.738 8.738 0 0 1 24.5 18.9z"/>
  <path fill="#9e9ed7" d="M19 6a4.918 4.918 0 0 1-.687 2.513A4.976 4.976 0 0 1 14.038 11h-.163A5 5 0 0 1 10.7 2.25 5.052 5.052 0 0 1 13.875 1h.15A5.024 5.024 0 0 1 17.3 2.25a4.89 4.89 0 0 1 1.037 1.275A4.92 4.92 0 0 1 19 6z"/>
  <rect fill="#e57231" y="42" width="28" height="9" rx="2" ry="2"/>
  <path fill="#e57231" d="M26 20v5h-8.69a5.978 5.978 0 0 0-6.62 0H2v-5z"/>
  <path opacity=".4" fill="#fff" d="M22.42 18h-2a9.45 9.45 0 0 0-.89-2 9.946 9.946 0 0 0-4.07-3.88 9.062 9.062 0 0 1 6 3.88 8.245 8.245 0 0 1 .69 1.23c.1.25.19.51.27.77zM17.9 6.99a5.076 5.076 0 0 1-.62 1.6A3.982 3.982 0 0 1 14.23 10a1.768 1.768 0 0 0-.23.01c.01-.01.02-.02.03-.02a5.056 5.056 0 0 0 1.88-3 4.988 4.988 0 0 0-1.89-4.98 1.476 1.476 0 0 1 .21-.01 3.946 3.946 0 0 1 3.04 1.41 4.96 4.96 0 0 1 .63 3.58z"/>
  <path fill="#565a5c" d="M13.8 9.99c-.01 0-.02.01-.03.02A1.768 1.768 0 0 1 14 10a1.34 1.34 0 0 1-.2-.01z"/>
  <path fill="#36b99a" d="M56 21a10.03 10.03 0 0 0-10-10 10.03 10.03 0 0 0-10 10z"/>
  <path opacity=".4" fill="#fff" d="M44.89 11c-.338 0-.672.018-1 .05a10.035 10.035 0 0 1 9 9.95h2a10.03 10.03 0 0 0-10-10z"/>
  <circle fill="#83d5c2" cx="46" cy="6" r="5"/>
  <path opacity=".4" fill="#fff" d="M44.89 1a5.036 5.036 0 0 0-1 .1 5 5 0 0 1 0 9.8 5 5 0 1 0 1-9.9z"/>
  <rect fill="#e57231" x="32" y="18" width="28" height="9" rx="2" ry="2"/>
  <path fill="#70d070" d="M17 51v6.12a.875.875 0 0 1-.88.88h-.24a.875.875 0 0 1-.88-.88V51z"/>
  <path fill="#5554ab" d="M56 45a10.03 10.03 0 0 0-10-10 10.03 10.03 0 0 0-10 10z"/>
  <path opacity=".4" fill="#fff" d="M44.89 35c-.338 0-.672.018-1 .05a10.035 10.035 0 0 1 9 9.95h2a10.03 10.03 0 0 0-10-10z"/>
  <path fill="#14c5db" d="M56 45a10.03 10.03 0 0 0-10-10 10.03 10.03 0 0 0-10 10z"/>
  <circle fill="#72dce9" cx="46" cy="30" r="5"/>
  <path opacity=".4" fill="#fff" d="M44.89 25a5.036 5.036 0 0 0-1 .1 5 5 0 0 1 0 9.8 5 5 0 1 0 1-9.9z"/>
  <rect fill="#14c5db" x="41" y="48" width="4" height="11" rx="1.877" ry="1.877"/>
  <rect fill="#14c5db" x="46" y="49" width="4" height="10" rx="1.877" ry="1.877"/>
  <path opacity=".4" fill="#fff" d="M24 20h2v5h-2zM56 20h2v5h-2zM24 44h2v5h-2zM56 44h2v5h-2z"/>
  <path opacity=".1" d="M22.47 18H5.53a8.732 8.732 0 0 1 1.01-2h14.99a8.856 8.856 0 0 1 .62 1.23 6.55 6.55 0 0 1 .32.77zM22.61 42H5.25a8.653 8.653 0 0 1 1.036-2h15.362a8.755 8.755 0 0 1 .615 1.19c.01.01.01.03.02.04a6.464 6.464 0 0 1 .328.77zM37 16h17.863v2H37zM37 40h17.863v2H37zM41 51h10v2H41zM14 24a5.9 5.9 0 0 1 3.31 1h1.88a5.99 5.99 0 0 0-10.38 0h1.88A5.9 5.9 0 0 1 14 24zM49.31 25h1.88a5.99 5.99 0 0 0-10.38 0h1.88"/>
  <path fill="#70d070" d="M12 51v6.12a.875.875 0 0 1-.88.88h-.24a.875.875 0 0 1-.88-.88V51zM22.47 42H5.53a8.732 8.732 0 0 1 1.01-2A9.037 9.037 0 0 1 14 36a8.716 8.716 0 0 1 1.46.12 9.062 9.062 0 0 1 6 3.88 8.657 8.657 0 0 1 .67 1.19c.01.01.01.03.02.04a6.55 6.55 0 0 1 .32.77z"/>
  <path opacity=".4" fill="#fff" d="M22.42 42h-2a9.45 9.45 0 0 0-.89-2 9.946 9.946 0 0 0-4.07-3.88 9.062 9.062 0 0 1 6 3.88 8.657 8.657 0 0 1 .67 1.19c.01.01.01.03.02.04.1.25.19.51.27.77z"/>
  <path fill="#a9e3a9" d="M18 30a3.935 3.935 0 0 1-.55 2.01A3.98 3.98 0 0 1 14.03 34h-.13a4 4 0 0 1-2.54-7 4.042 4.042 0 0 1 2.54-1h.12a4.02 4.02 0 0 1 2.62 1A4.026 4.026 0 0 1 18 30z"/>
  <path opacity=".4" fill="#fff" d="M18 30a4.824 4.824 0 0 1-.1.99 4.35 4.35 0 0 1-.33 1.02A3.976 3.976 0 0 1 14.12 34h-.09a5.08 5.08 0 0 0 1.88-3.01A5.034 5.034 0 0 0 14.02 26h.1a4 4 0 0 1 2.64 1 3.912 3.912 0 0 1 .83 1.02 5.14 5.14 0 0 1 .332 1.236A3.95 3.95 0 0 1 18 30z"/>
  <path opacity=".1" d="M5 40h17.863v2H5zM9 51h8v2H9z"/>
  <path fill="#565a5c" d="M26 18h-1.43a11.065 11.065 0 0 0-6.81-7.32 6 6 0 1 0-7.52 0A11.065 11.065 0 0 0 3.43 18H2a2.006 2.006 0 0 0-2 2v5a2.006 2.006 0 0 0 2 2h1v8a1 1 0 0 0 2 0v-8h3.81A5.857 5.857 0 0 0 8 30a6.016 6.016 0 0 0 2.24 4.68A11.065 11.065 0 0 0 3.43 42H2a2.006 2.006 0 0 0-2 2v5a2.006 2.006 0 0 0 2 2h1v8a1 1 0 0 0 2 0v-8h3v6.12A2.88 2.88 0 0 0 10.88 60h.24a2.878 2.878 0 0 0 2.38-1.26 1.47 1.47 0 0 0 .09.13A2.88 2.88 0 0 0 15.88 60h.24A2.88 2.88 0 0 0 19 57.12V51h3v8a1 1 0 0 0 2 0v-8h2a2.006 2.006 0 0 0 2-2v-5a2.006 2.006 0 0 0-2-2h-1.43a11.065 11.065 0 0 0-6.81-7.32A6.016 6.016 0 0 0 20 30a5.857 5.857 0 0 0-.81-3H23v8a1 1 0 0 0 2 0v-8h1a2.006 2.006 0 0 0 2-2v-5a2.006 2.006 0 0 0-2-2zM10 6a4 4 0 0 1 3.79-3.99A1.476 1.476 0 0 1 14 2a4.015 4.015 0 0 1 4 4 4 4 0 0 1-4 4 1.768 1.768 0 0 0-.23.01c.01-.01.02-.02.03-.02A3.99 3.99 0 0 1 10 6zM6.54 16A9.037 9.037 0 0 1 14 12a8.716 8.716 0 0 1 1.46.12 9.062 9.062 0 0 1 6 3.88 8.245 8.245 0 0 1 .69 1.23c.1.25.19.51.27.77H5.53a8.732 8.732 0 0 1 1.01-2zM12 57.12a.875.875 0 0 1-.88.88h-.24a.875.875 0 0 1-.88-.88V51h2zm5 0a.875.875 0 0 1-.88.88h-.24a.875.875 0 0 1-.88-.88V51h2zM26 44v5H2v-5zm-4.54-4a8.657 8.657 0 0 1 .67 1.19c.01.01.01.03.02.04a6.55 6.55 0 0 1 .32.77H5.53a8.732 8.732 0 0 1 1.01-2A9.037 9.037 0 0 1 14 36a8.716 8.716 0 0 1 1.46.12 9.062 9.062 0 0 1 6 3.88zm-4.41-7.41A3.982 3.982 0 0 1 14 34c-.08 0-.21-.01-.2-.01a4 4 0 0 1-.01-7.98A1.476 1.476 0 0 1 14 26a4.015 4.015 0 0 1 4 4 4 4 0 0 1-.95 2.59zM26 25h-8.69a5.978 5.978 0 0 0-6.62 0H2v-5h24z"/>
  <path opacity=".4" fill="#fff" d="M45 35c-.337 0-.67.018-1 .05A10.035 10.035 0 0 1 53 45h2a10.03 10.03 0 0 0-10-10z"/>
  <rect fill="#e57231" x="32" y="42" width="28" height="9" rx="2" ry="2"/>
  <path fill="#565a5c" d="M58 18h-1.43a11.065 11.065 0 0 0-6.81-7.32 6 6 0 1 0-7.52 0A11.065 11.065 0 0 0 35.43 18H34a2.006 2.006 0 0 0-2 2v5a2.006 2.006 0 0 0 2 2h1v8a1 1 0 0 0 2 0v-8h3.81a5.857 5.857 0 0 0-.81 3 6.016 6.016 0 0 0 2.24 4.68A11.065 11.065 0 0 0 35.43 42H34a2.006 2.006 0 0 0-2 2v5a2.006 2.006 0 0 0 2 2h1v8a1 1 0 0 0 2 0v-8h3v6.12A2.88 2.88 0 0 0 42.88 60h.24a2.878 2.878 0 0 0 2.38-1.26 1.47 1.47 0 0 0 .09.13A2.88 2.88 0 0 0 47.88 60h.24A2.88 2.88 0 0 0 51 57.12V51h3v8a1 1 0 0 0 2 0v-8h2a2.006 2.006 0 0 0 2-2v-5a2.006 2.006 0 0 0-2-2h-1.43a11.065 11.065 0 0 0-6.81-7.32A6.016 6.016 0 0 0 52 30a5.857 5.857 0 0 0-.81-3H55v8a1 1 0 0 0 2 0v-8h1a2.006 2.006 0 0 0 2-2v-5a2.006 2.006 0 0 0-2-2zM42 6a4 4 0 0 1 3.79-3.99A1.476 1.476 0 0 1 46 2a4.015 4.015 0 0 1 4 4 4 4 0 0 1-4 4 1.768 1.768 0 0 0-.23.01c.01-.01.02-.02.03-.02A3.99 3.99 0 0 1 42 6zm-3.46 10A9.037 9.037 0 0 1 46 12a8.716 8.716 0 0 1 1.46.12 9.062 9.062 0 0 1 6 3.88 8.245 8.245 0 0 1 .69 1.23c.1.25.19.51.27.77H37.53a8.732 8.732 0 0 1 1.01-2zM44 57.12a.875.875 0 0 1-.88.88h-.24a.875.875 0 0 1-.88-.88V51h2zm5 0a.875.875 0 0 1-.88.88h-.24a.875.875 0 0 1-.88-.88V51h2zM58 44v5H34v-5zm-4.54-4a8.657 8.657 0 0 1 .67 1.19c.01.01.01.03.02.04a6.55 6.55 0 0 1 .32.77H37.53a8.732 8.732 0 0 1 1.01-2A9.037 9.037 0 0 1 46 36a8.716 8.716 0 0 1 1.46.12 9.062 9.062 0 0 1 6 3.88zm-4.41-7.41A3.982 3.982 0 0 1 46 34c-.08 0-.21-.01-.2-.01a4 4 0 0 1-.01-7.98A1.476 1.476 0 0 1 46 26a4.015 4.015 0 0 1 4 4 4 4 0 0 1-.95 2.59zM58 25h-8.69a5.978 5.978 0 0 0-6.62 0H34v-5h24z"/>
</svg>
