<svg width="60" height="60" xmlns="http://www.w3.org/2000/svg" viewBox="0 0 60 60">
  <path fill="#36b99a" d="M57.98 58H2.02A28.145 28.145 0 0 1 30 31q1 0 1.98.09a28.125 28.125 0 0 1 26 26.91z"/>
  <path opacity=".4" fill="#fff" d="M57.98 58h-4.81a29.067 29.067 0 0 0-21.19-26.91 28.125 28.125 0 0 1 26 26.91z"/>
  <path fill="#83d5c2" d="M43.5 15.5A13.52 13.52 0 0 1 30 29c-.17 0-.33 0-.49-.01a13.5 13.5 0 0 1 .04-26.98C29.7 2 29.85 2 30 2a13.52 13.52 0 0 1 13.5 13.5z"/>
  <path opacity=".4" fill="#fff" d="M43.5 15.5A13.52 13.52 0 0 1 30 29c-.17 0-.33 0-.49-.01a14.5 14.5 0 0 0 .04-26.98C29.7 2 29.85 2 30 2a13.52 13.52 0 0 1 13.5 13.5z"/>
  <path fill="#565a5c" d="M36.26 29.68a15.5 15.5 0 1 0-12.52 0A30.172 30.172 0 0 0 0 59a1.007 1.007 0 0 0 .29.71A1.033 1.033 0 0 0 1 60h58a1.033 1.033 0 0 0 .71-.29A1.007 1.007 0 0 0 60 59a30.172 30.172 0 0 0-23.74-29.32zM16.5 15.5A13.522 13.522 0 0 1 29.55 2.01C29.7 2 29.85 2 30 2a13.5 13.5 0 0 1 0 27c-.17 0-.33 0-.49-.01A13.52 13.52 0 0 1 16.5 15.5zM2.02 58A28.145 28.145 0 0 1 30 31q1 0 1.98.09a28.125 28.125 0 0 1 26 26.91z"/>
  <rect opacity=".1" x="26" y="41" width="25" height="16" rx="3" ry="3"/>
  <path fill="#feed58" d="M37.97 47.54a1 1 0 0 1-1 1h-.01a1 1 0 1 1 1.01-1zM39.79 52.54h-5.65a3.02 3.02 0 0 1 2.82-2h.01a3 3 0 0 1 2.82 2z"/>
  <path fill="#feed58" d="M49 43v10h-7.06a5.02 5.02 0 0 0-2.48-3.78 3.005 3.005 0 0 0-2.49-4.68 3 3 0 0 0-3 3 2.94 2.94 0 0 0 .51 1.67A5.048 5.048 0 0 0 32 53h-2V43z"/>
  <path fill="#36b99a" d="M39.79 52.54h-5.65a3.02 3.02 0 0 1 2.82-2h.01a3 3 0 0 1 2.82 2zM37.97 47.54a1 1 0 0 1-1 1h-.01a1 1 0 1 1 1.01-1z"/>
  <path fill="#565a5c" d="M46 47h-3a1 1 0 0 1 0-2h3a1 1 0 0 1 0 2zM46 51h-2a1 1 0 0 1 0-2h2a1 1 0 0 1 0 2z"/>
  <path fill="#565a5c" d="M49 41h-7.5v-2a1.5 1.5 0 0 0-3 0v2H30a2.006 2.006 0 0 0-2 2v10a2.006 2.006 0 0 0 2 2h19a2.006 2.006 0 0 0 2-2V43a2.006 2.006 0 0 0-2-2zM34.14 52.54a3.02 3.02 0 0 1 2.82-2h.01a3 3 0 0 1 2.82 2zm1.83-5a1 1 0 1 1 1 1h-.01a1 1 0 0 1-.99-1zM49 53h-7.06a5.02 5.02 0 0 0-2.48-3.78 3.005 3.005 0 0 0-2.49-4.68 3 3 0 0 0-3 3 2.94 2.94 0 0 0 .51 1.67A5.048 5.048 0 0 0 32 53h-2V43h19z"/>
  <path opacity=".4" fill="#fff" d="M47 43h2v10h-2z"/>
</svg>
