<svg width="60" height="60" xmlns="http://www.w3.org/2000/svg" viewBox="0 0 60 60">
  <path fill="#86509e" d="M5 5h50v54H5z"/>
  <path opacity=".4" fill="#fff" d="M9 9h42v46H9z"/>
  <path opacity=".1" d="M12 9v3a3 3 0 0 0 3 3h30a3 3 0 0 0 3-3V9z"/>
  <path fill="#b497c4" d="M15 1h30v11H15z"/>
  <path opacity=".4" fill="#fff" d="M42 1h3v11h-3z"/>
  <path fill="#565a5c" d="M55 4h-9V1a1 1 0 0 0-1-1H15a1 1 0 0 0-1 1v3H5a1 1 0 0 0-1 1v54a1 1 0 0 0 1 1h50a1 1 0 0 0 1-1V5a1 1 0 0 0-1-1zM16 2h28v9H16zm-1 11h30a1 1 0 0 0 1-1v-2h4v44H10V10h4v2a1 1 0 0 0 1 1zm39 45H6V6h8v2H9a1 1 0 0 0-1 1v46a1 1 0 0 0 1 1h42a1 1 0 0 0 1-1V9a1 1 0 0 0-1-1h-5V6h8z"/>
  <circle fill="#fcc02d" cx="18" cy="21" r="3"/>
  <path fill="#565a5c" d="M18 25a4 4 0 1 1 4-4 4 4 0 0 1-4 4zm0-6a2 2 0 1 0 2 2 2 2 0 0 0-2-2z"/>
  <circle fill="#fcc02d" cx="18" cy="33" r="3"/>
  <path fill="#565a5c" d="M18 37a4 4 0 1 1 4-4 4 4 0 0 1-4 4zm0-6a2 2 0 1 0 2 2 2 2 0 0 0-2-2z"/>
  <circle fill="#fcc02d" cx="18" cy="45" r="3"/>
  <path fill="#565a5c" d="M18 49a4 4 0 1 1 4-4 4 4 0 0 1-4 4zm0-6a2 2 0 1 0 2 2 2 2 0 0 0-2-2zM45 20H25a1 1 0 0 1 0-2h20a1 1 0 0 1 0 2zM40 24H25a1 1 0 0 1 0-2h15a1 1 0 0 1 0 2zM45 32H25a1 1 0 0 1 0-2h20a1 1 0 0 1 0 2zM35 36H25a1 1 0 0 1 0-2h10a1 1 0 0 1 0 2zM45 44H25a1 1 0 0 1 0-2h20a1 1 0 0 1 0 2zM38 48H25a1 1 0 0 1 0-2h13a1 1 0 0 1 0 2z"/>
  <path opacity=".1" d="M12 6h2v2h-2zM46 6h2v2h-2z"/>
</svg>
