<svg xmlns="http://www.w3.org/2000/svg" height="60" width="60" viewBox="0 0 60 60">
  <g style="isolation:isolate;">
    <g>
      <path d="M5 5h50v54H5z" style="fill:#86509e;"></path>
      <path d="M5 5h50v54H5z" style="fill:none;stroke:#565a5c;stroke-linecap:round;stroke-linejoin:round;stroke-width:2px;"></path>
      <path d="M9 9h42v46H9z" style="fill:#fff;"></path>
      <path d="M12 9v3a3 3 0 0 0 3 3h30a3 3 0 0 0 3-3V9z" style="opacity:0.1;mix-blend-mode:multiply;"></path>
      <path d="M9 9h42v46H9z" style="fill:none;stroke:#565a5c;stroke-linecap:round;stroke-linejoin:round;stroke-width:2px;"></path>
      <path d="M15 1h30v11H15z" style="fill:#b497c4;"></path>
      <path d="M42 1h3v11h-3z" style="fill:#fff;opacity:0.4;mix-blend-mode:lighten;"></path>
      <path d="M15 1h30v11H15z" style="fill:none;stroke:#565a5c;stroke-linecap:round;stroke-linejoin:round;stroke-width:2px;"></path>
      <circle cx="18" cy="21" r="3" style="stroke:#565a5c;stroke-linecap:round;stroke-linejoin:round;stroke-width:2px;fill:#fcc02d;"></circle>
      <circle cx="18" cy="33" r="3" style="stroke:#565a5c;stroke-linecap:round;stroke-linejoin:round;stroke-width:2px;fill:#fcc02d;"></circle>
      <circle cx="18" cy="45" r="3" style="stroke:#565a5c;stroke-linecap:round;stroke-linejoin:round;stroke-width:2px;fill:#fcc02d;"></circle>
      <path d="M25 19h20M25 23h15M25 31h20M25 35h10M25 43h20M25 47h13" style="fill:none;stroke:#565a5c;stroke-linecap:round;stroke-linejoin:round;stroke-width:2px;"></path>
      <path d="M12 6h2v2h-2zM46 6h2v2h-2z" style="opacity:0.1;mix-blend-mode:multiply;"></path>
    </g>
  </g>
</svg>
