<svg width="60" height="60" xmlns="http://www.w3.org/2000/svg" viewBox="0 0 60 60">
  <path fill="#b497c4" d="M51.05 23.414h-3.9a20.47 20.47 0 0 0-.92-3.463L49.6 18a1.8 1.8 0 0 0 .656-2.45l-1.793-3.105a1.8 1.8 0 0 0-2.45-.656l-3.38 1.95a20.748 20.748 0 0 0-2.533-2.53l1.952-3.38a1.8 1.8 0 0 0-.656-2.45L38.29 3.587a1.8 1.8 0 0 0-2.45.656l-1.948 3.374a20.48 20.48 0 0 0-3.463-.92v-3.9A1.8 1.8 0 0 0 28.635 1H25.05a1.8 1.8 0 0 0-1.793 1.793V6.7a20.48 20.48 0 0 0-3.463.92l-1.95-3.377a1.8 1.8 0 0 0-2.444-.656L12.29 5.38a1.8 1.8 0 0 0-.656 2.45l1.952 3.38a20.746 20.746 0 0 0-2.533 2.533l-3.38-1.952a1.8 1.8 0 0 0-2.45.657L3.43 15.553A1.8 1.8 0 0 0 4.085 18l3.373 1.95a20.47 20.47 0 0 0-.92 3.463h-3.9a1.8 1.8 0 0 0-1.797 1.794v3.586a1.8 1.8 0 0 0 1.793 1.793h3.9a20.47 20.47 0 0 0 .92 3.463L4.086 36a1.8 1.8 0 0 0-.656 2.45l1.793 3.105a1.8 1.8 0 0 0 2.45.656l3.38-1.95a20.746 20.746 0 0 0 2.533 2.532l-1.952 3.38a1.8 1.8 0 0 0 .656 2.45l3.11 1.79a1.8 1.8 0 0 0 2.45-.655l1.947-3.374a20.48 20.48 0 0 0 3.463.92v3.9A1.8 1.8 0 0 0 25.05 53h3.586a1.8 1.8 0 0 0 1.793-1.793V47.3a20.48 20.48 0 0 0 3.462-.92l1.948 3.373a1.8 1.8 0 0 0 2.45.656l3.11-1.79a1.8 1.8 0 0 0 .656-2.45L40.1 42.79a20.748 20.748 0 0 0 2.533-2.534l3.38 1.952a1.8 1.8 0 0 0 2.45-.656l1.793-3.106A1.8 1.8 0 0 0 49.6 36l-3.374-1.95a20.47 20.47 0 0 0 .92-3.463h3.9a1.8 1.8 0 0 0 1.793-1.793v-3.587a1.8 1.8 0 0 0-1.79-1.793zM26.843 37.76A10.76 10.76 0 1 1 37.6 27a10.76 10.76 0 0 1-10.757 10.76z"/>
  <path fill="#fff" opacity=".4" d="M15.155 4.243L17.1 7.617a20.158 20.158 0 0 1 2.305-.666l-1.56-2.707a1.8 1.8 0 0 0-2.445-.656l-.52.3a1.756 1.756 0 0 1 .275.356zM8.363 13.743c.3-.35.613-.684.932-1.015l-1.623-.937a1.793 1.793 0 0 0-2.17.3zM38.706 5.38a1.8 1.8 0 0 1 .656 2.45l-1.952 3.38a20.748 20.748 0 0 1 2.533 2.533l1.757-1.015a20.753 20.753 0 0 0-1.6-1.517l1.952-3.38a1.8 1.8 0 0 0-.652-2.45l-3.11-1.793a1.793 1.793 0 0 0-2.17.3zM16.084 27A10.76 10.76 0 0 1 25.5 16.33a10.76 10.76 0 1 0 0 21.333A10.76 10.76 0 0 1 16.084 27zM45.773 12.447l1.793 3.106A1.8 1.8 0 0 1 46.91 18l-3.374 1.95a20.47 20.47 0 0 1 .92 3.463h2.69a20.47 20.47 0 0 0-.92-3.463L49.6 18a1.8 1.8 0 0 0 .656-2.45l-1.793-3.105a1.8 1.8 0 0 0-2.45-.656l-.52.3a1.764 1.764 0 0 1 .28.357zM27.74 2.793V6.7a20.48 20.48 0 0 1 3.462.92l.385-.666c-.385-.09-.767-.186-1.158-.255V2.8A1.8 1.8 0 0 0 28.635 1h-2.69a1.8 1.8 0 0 1 1.793 1.793zM49.6 36l-3.374-1.95a20.47 20.47 0 0 0 .92-3.463h-2.69a20.47 20.47 0 0 1-.92 3.463L46.908 36a1.8 1.8 0 0 1 .655 2.45l-1.793 3.105a1.764 1.764 0 0 1-.28.36l.52.3a1.8 1.8 0 0 0 2.45-.657l1.792-3.106A1.8 1.8 0 0 0 49.6 36zM40.1 42.79a20.743 20.743 0 0 0 1.6-1.517l-1.758-1.015a20.748 20.748 0 0 1-2.533 2.533l1.95 3.382a1.8 1.8 0 0 1-.655 2.45l-2.585 1.49a1.793 1.793 0 0 0 2.17.3l3.11-1.792a1.8 1.8 0 0 0 .656-2.45zM51.05 23.414h-2.69a1.8 1.8 0 0 1 1.793 1.793v3.586a1.8 1.8 0 0 1-1.793 1.793h2.69a1.8 1.8 0 0 0 1.793-1.793v-3.586a1.8 1.8 0 0 0-1.793-1.793zM8.363 40.257L5.5 41.91a1.793 1.793 0 0 0 2.17.3l1.63-.938c-.324-.33-.64-.663-.937-1.015zM17.1 46.383l-1.948 3.374a1.756 1.756 0 0 1-.28.36l.52.3a1.8 1.8 0 0 0 2.45-.657l1.563-2.708a20.16 20.16 0 0 1-2.305-.67zM31.2 46.383a20.48 20.48 0 0 1-3.463.92v3.9A1.8 1.8 0 0 1 25.947 53h2.69a1.8 1.8 0 0 0 1.792-1.793V47.3c.39-.07.774-.165 1.157-.255z"/>
  <path fill="#565a5c" d="M28.64 54h-3.59a2.806 2.806 0 0 1-2.793-2.79v-3.083c-.676-.145-1.348-.323-2.008-.534l-1.54 2.664a2.8 2.8 0 0 1-3.81 1.024l-3.108-1.8a2.8 2.8 0 0 1-1.023-3.81L12.31 43c-.513-.465-1-.956-1.47-1.467l-2.668 1.542a2.8 2.8 0 0 1-3.813-1.02l-1.797-3.108a2.806 2.806 0 0 1 1.02-3.814l2.665-1.54c-.21-.66-.388-1.33-.533-2.007h-3.08A2.807 2.807 0 0 1-.156 28.8v-3.593a2.806 2.806 0 0 1 2.79-2.793h3.082c.146-.677.324-1.348.533-2.008L3.586 18.87a2.806 2.806 0 0 1-1.023-3.814l1.794-3.108a2.807 2.807 0 0 1 3.813-1.024l2.672 1.542c.465-.512.956-1 1.468-1.467l-1.542-2.67a2.8 2.8 0 0 1 1.02-3.815L14.9 2.72a2.8 2.8 0 0 1 3.813 1.02l1.54 2.667c.66-.21 1.332-.39 2.008-.534v-3.08A2.806 2.806 0 0 1 25.048 0h3.59a2.806 2.806 0 0 1 2.792 2.79v3.083c.675.145 1.347.323 2.007.533l1.537-2.663a2.807 2.807 0 0 1 3.813-1.024l3.108 1.8a2.8 2.8 0 0 1 1.023 3.812L41.376 11q.768.7 1.468 1.468l2.67-1.54a2.805 2.805 0 0 1 3.812 1.02l1.795 3.107a2.806 2.806 0 0 1-1.02 3.814l-2.664 1.538c.21.66.39 1.332.534 2.008h3.082a2.805 2.805 0 0 1 2.79 2.79v3.59a2.807 2.807 0 0 1-2.79 2.793h-3.08c-.147.676-.325 1.347-.534 2.007L50.1 35.13a2.8 2.8 0 0 1 1.023 3.814l-1.794 3.108a2.8 2.8 0 0 1-3.813 1.024l-2.672-1.542q-.7.768-1.468 1.468l1.54 2.67a2.805 2.805 0 0 1-1.017 3.812l-3.11 1.794a2.8 2.8 0 0 1-3.813-1.02l-1.54-2.666q-.99.315-2.008.534v3.08A2.806 2.806 0 0 1 28.64 54zm-8.847-8.617a.993.993 0 0 1 .34.06 19.492 19.492 0 0 0 3.295.875 1 1 0 0 1 .83.985v3.9a.8.8 0 0 0 .8.793h3.582a.8.8 0 0 0 .793-.8V47.3a1 1 0 0 1 .83-.985 19.5 19.5 0 0 0 3.293-.876 1 1 0 0 1 1.207.44l1.948 3.373a.8.8 0 0 0 1.087.29l3.1-1.793a.8.8 0 0 0 .29-1.086l-1.952-3.378a1 1 0 0 1 .223-1.266 19.726 19.726 0 0 0 2.41-2.41 1 1 0 0 1 1.267-.224l3.38 1.952a.8.8 0 0 0 1.086-.292l1.792-3.1a.8.8 0 0 0-.292-1.084l-3.37-1.946a1 1 0 0 1-.44-1.207 19.533 19.533 0 0 0 .874-3.295 1 1 0 0 1 .985-.83h3.9a.8.8 0 0 0 .792-.8v-3.578a.8.8 0 0 0-.8-.793h-3.9a1 1 0 0 1-.985-.83 19.616 19.616 0 0 0-.876-3.293 1 1 0 0 1 .44-1.206l3.38-1.948a.8.8 0 0 0 .29-1.086l-1.793-3.1a.8.8 0 0 0-1.086-.29l-3.377 1.95a1 1 0 0 1-1.266-.222 19.726 19.726 0 0 0-2.41-2.41 1 1 0 0 1-.224-1.267l1.952-3.38a.8.8 0 0 0-.292-1.084l-3.1-1.792a.8.8 0 0 0-1.085.293l-1.95 3.37a1 1 0 0 1-1.205.44 19.492 19.492 0 0 0-3.295-.875 1 1 0 0 1-.83-.985v-3.9a.8.8 0 0 0-.8-.793H25.05a.8.8 0 0 0-.793.8V6.7a1 1 0 0 1-.83.985 19.492 19.492 0 0 0-3.294.875 1 1 0 0 1-1.206-.44L16.98 4.743a.8.8 0 0 0-1.087-.29l-3.1 1.793a.8.8 0 0 0-.293 1.086l1.95 3.378a1 1 0 0 1-.223 1.265 19.9 19.9 0 0 0-2.41 2.41 1 1 0 0 1-1.266.224l-3.378-1.953a.8.8 0 0 0-1.085.292L4.3 16.052a.8.8 0 0 0 .293 1.085l3.37 1.946a1 1 0 0 1 .44 1.207 19.533 19.533 0 0 0-.875 3.295 1 1 0 0 1-.985.83h-3.9a.8.8 0 0 0-.793.8v3.582a.8.8 0 0 0 .8.793h3.9a1 1 0 0 1 .985.83 19.533 19.533 0 0 0 .865 3.29 1 1 0 0 1-.44 1.206l-3.374 1.948A.8.8 0 0 0 4.3 37.95l1.792 3.1a.8.8 0 0 0 1.086.29l3.378-1.95a1 1 0 0 1 1.266.222 19.9 19.9 0 0 0 2.41 2.41 1 1 0 0 1 .223 1.266L12.5 46.67a.8.8 0 0 0 .292 1.085l3.1 1.792a.8.8 0 0 0 1.085-.293l1.946-3.372a1 1 0 0 1 .87-.5zm7.05-6.625A11.76 11.76 0 1 1 38.6 27a11.772 11.772 0 0 1-11.757 11.76zm0-21.518A9.76 9.76 0 1 0 36.6 27a9.77 9.77 0 0 0-9.757-9.76z"/>
  <path opacity=".1" d="M56.228 29.3a3.976 3.976 0 0 0-2.857 1.13L35.42 48.388 30.235 43.2a3.97 3.97 0 0 0-5.558 0A4.067 4.067 0 0 0 23.46 46a3.986 3.986 0 0 0 1.125 2.864l8 8a4.012 4.012 0 0 0 5.664.007l20.8-20.8a4 4 0 0 0-2.822-6.77zm1.386 5.374L36.832 55.46a2.015 2.015 0 0 1-2.828 0l-7.99-7.99a2 2 0 0 1-.56-1.422 1.967 1.967 0 0 1 .588-1.38l.028-.027a1.98 1.98 0 0 1 2.758-.013l5.883 5.883a1 1 0 0 0 1.415 0L54.77 31.862a2 2 0 0 1 2.844 2.814z"/>
  <path fill="#70d070" d="M57.614 33.92c1.1 1.18 2.2 1.93.064 4.107l-5.79 5.79-3.75 3.75-10.6 10.6a3 3 0 0 1-4.242 0l-8-8a3 3 0 0 1 4.243-4.244l5.878 5.877 8.482-8.477 3.748-3.748 5.348-5.427c2.23-2.19 3.48-1.438 4.618-.23z"/>
  <path fill="#fff" opacity=".4" d="M57.614 33.848a3 3 0 0 1 0 4.243l-3.62 3.62-.205-.204-4.6 4.6.204.205-11.148 11.15a3.01 3.01 0 0 1-4.243 0l-.205-.206a3 3 0 0 0 1.45-.8l19.36-19.36a3.007 3.007 0 0 0 .178-4.038 3 3 0 0 1 2.828.792z"/>
  <path fill="#565a5c" d="M56.228 31.3a3.976 3.976 0 0 0-2.857 1.13L35.42 50.388 30.235 45.2a3.97 3.97 0 0 0-5.558 0A4.067 4.067 0 0 0 23.46 48a3.986 3.986 0 0 0 1.125 2.864l8 8a4.012 4.012 0 0 0 5.664.007l20.8-20.8a4 4 0 0 0-2.822-6.77zm1.386 5.374L36.832 57.46a2.015 2.015 0 0 1-2.828 0l-7.99-7.99a2 2 0 0 1-.56-1.422 1.967 1.967 0 0 1 .588-1.38l.028-.027a1.98 1.98 0 0 1 2.758-.013l5.883 5.883a1 1 0 0 0 1.415 0L54.77 33.862a2 2 0 0 1 2.844 2.814z"/>
</svg>
