<svg width="60" height="60" xmlns="http://www.w3.org/2000/svg" viewBox="0 0 60 60">
  <path fill="#14c5db" d="M1 6h53v53H1z"/>
  <path opacity=".1" d="M4 56V7H2v51h51v-2H4"/>
  <path fill="#d3e057" d="M10 45a3 3 0 0 1 3 3 3 3 0 0 1-3 3 3 3 0 0 1-3-3 3 3 0 0 1 3-3z"/>
  <path opacity=".4" fill="#fff" d="M10 45a2.956 2.956 0 0 0-1.5.42 2.97 2.97 0 0 1 0 5.16A2.956 2.956 0 0 0 10 51a3 3 0 0 0 0-6z"/>
  <path fill="#d3e057" d="M20 25a3 3 0 0 1 3 3 3 3 0 0 1-3 3 3 3 0 0 1-3-3 3 3 0 0 1 3-3z"/>
  <path opacity=".4" fill="#fff" d="M20 25a2.956 2.956 0 0 0-1.5.42 2.97 2.97 0 0 1 0 5.16A2.956 2.956 0 0 0 20 31a3 3 0 0 0 0-6z"/>
  <path fill="#d3e057" d="M30 35a3 3 0 0 1 3 3 3 3 0 0 1-3 3 3 3 0 0 1-3-3 3 3 0 0 1 3-3z"/>
  <path opacity=".4" fill="#fff" d="M30 35a2.956 2.956 0 0 0-1.5.42 2.97 2.97 0 0 1 0 5.16A2.956 2.956 0 0 0 30 41a3 3 0 0 0 0-6z"/>
  <path fill="#d3e057" d="M40 15a3 3 0 0 1 3 3 3 3 0 0 1-3 3 3 3 0 0 1-3-3 3 3 0 0 1 3-3z"/>
  <path opacity=".4" fill="#fff" d="M40 15a2.956 2.956 0 0 0-1.5.42 2.97 2.97 0 0 1 0 5.16A2.956 2.956 0 0 0 40 21a3 3 0 0 0 0-6z"/>
  <path fill="#565a5c" d="M59 58h-4V6a1 1 0 0 0-1-1H2V1a1 1 0 0 0-2 0v58a.746.746 0 0 0 .04.26.442.442 0 0 0 .06.16.93.93 0 0 0 .11.19c.05.05.1.11.16.16l.12.09a.993.993 0 0 0 .31.12A1.23 1.23 0 0 0 1 60h58a1 1 0 0 0 0-2zm-6 0H3.1l5.22-6.38A3.8 3.8 0 0 0 10 52a4 4 0 0 0 2.62-7.02l6.54-13.07a3.935 3.935 0 0 0 2.86-.47l4.54 4.54A3.883 3.883 0 0 0 26 38a4 4 0 1 0 6.62-3.02l6.54-13.07A3.862 3.862 0 0 0 40 22a4 4 0 0 0 4-4 3.86 3.86 0 0 0-.31-1.52l4.91-3.68a1 1 0 1 0-1.2-1.6l-4.9 3.68A4 4 0 0 0 36 18a3.96 3.96 0 0 0 1.38 3.02l-6.54 13.07a3.935 3.935 0 0 0-2.86.47l-4.54-4.54A3.883 3.883 0 0 0 24 28a4 4 0 1 0-6.62 3.02l-6.54 13.07A3.862 3.862 0 0 0 10 44a4 4 0 0 0-4 4 3.953 3.953 0 0 0 .78 2.36L2 56.21V7h51zM8 48a2 2 0 0 1 1.88-1.99A.486.486 0 0 1 10 46a2.046 2.046 0 0 1 1.67.89A2.007 2.007 0 0 1 10 50a1.84 1.84 0 0 1-.33-.03 2.013 2.013 0 0 1-1.54-1.26A2.08 2.08 0 0 1 8 48zm10-20a2 2 0 0 1 4 0 1.7 1.7 0 0 1-.07.51 2 2 0 0 1-1.42 1.42 1.227 1.227 0 0 1-.39.06.486.486 0 0 1-.12.01 2.046 2.046 0 0 1-1.67-.89A2.012 2.012 0 0 1 18 28zm13.67 8.89A2 2 0 1 1 28 38a1.7 1.7 0 0 1 .07-.51 2 2 0 0 1 1.42-1.42 1.227 1.227 0 0 1 .39-.06A.486.486 0 0 1 30 36a2.046 2.046 0 0 1 1.67.89zM38 18a2 2 0 0 1 3.98-.24.973.973 0 0 1 .02.24 2 2 0 0 1-1.88 1.99.486.486 0 0 1-.12.01 2.046 2.046 0 0 1-1.67-.89A2.012 2.012 0 0 1 38 18z"/>
</svg>
