<svg xmlns="http://www.w3.org/2000/svg" height="60" width="60" viewBox="0 0 60 60">
  <g style="isolation:isolate;">
    <g>
      <path d="M1 6h53v53H1z" style="fill:#14c5db;"></path>
      <path d="M1 6h53v53H1z" style="fill:none;stroke:#565a5c;stroke-linecap:round;stroke-linejoin:round;stroke-width:2px;"></path>
      <path d="M4 56V7H2v51h51v-2H4z" style="opacity:0.1;mix-blend-mode:multiply;"></path>
      <path d="M1 59l9-11M10 48l10-20" style="fill:none;stroke:#565a5c;stroke-linecap:round;stroke-linejoin:round;stroke-width:2px;"></path>
      <rect x="7" y="45" width="6" height="6" rx="3" ry="3" style="fill:#d3e057;"></rect>
      <path d="M10 45a2.956 2.956 0 0 0-1.5.42 2.97 2.97 0 0 1 0 5.16A2.956 2.956 0 0 0 10 51a3 3 0 0 0 0-6z" style="fill:#fff;opacity:0.4;mix-blend-mode:lighten;"></path>
      <path d="M20 28l10 10M30 38l10-20" style="fill:none;stroke:#565a5c;stroke-linecap:round;stroke-linejoin:round;stroke-width:2px;"></path>
      <rect x="7" y="45" width="6" height="6" rx="3" ry="3" style="fill:none;stroke:#565a5c;stroke-linecap:round;stroke-linejoin:round;stroke-width:2px;"></rect>
      <rect x="17" y="25" width="6" height="6" rx="3" ry="3" style="fill:#d3e057;"></rect>
      <path d="M20 25a2.956 2.956 0 0 0-1.5.42 2.97 2.97 0 0 1 0 5.16A2.956 2.956 0 0 0 20 31a3 3 0 0 0 0-6z" style="fill:#fff;opacity:0.4;mix-blend-mode:lighten;"></path>
      <rect x="17" y="25" width="6" height="6" rx="3" ry="3" style="fill:none;stroke:#565a5c;stroke-linecap:round;stroke-linejoin:round;stroke-width:2px;"></rect>
      <rect x="27" y="35" width="6" height="6" rx="3" ry="3" style="fill:#d3e057;"></rect>
      <path d="M30 35a2.956 2.956 0 0 0-1.5.42 2.97 2.97 0 0 1 0 5.16A2.956 2.956 0 0 0 30 41a3 3 0 0 0 0-6z" style="fill:#fff;opacity:0.4;mix-blend-mode:lighten;"></path>
      <rect x="27" y="35" width="6" height="6" rx="3" ry="3" style="fill:none;stroke:#565a5c;stroke-linecap:round;stroke-linejoin:round;stroke-width:2px;"></rect>
      <path d="M40 18l8-6" style="fill:none;stroke:#565a5c;stroke-linecap:round;stroke-linejoin:round;stroke-width:2px;"></path>
      <rect x="37" y="15" width="6" height="6" rx="3" ry="3" style="fill:#d3e057;"></rect>
      <path d="M40 15a2.956 2.956 0 0 0-1.5.42 2.97 2.97 0 0 1 0 5.16A2.956 2.956 0 0 0 40 21a3 3 0 0 0 0-6z" style="fill:#fff;opacity:0.4;mix-blend-mode:lighten;"></path>
      <rect x="37" y="15" width="6" height="6" rx="3" ry="3" style="fill:none;stroke:#565a5c;stroke-linecap:round;stroke-linejoin:round;stroke-width:2px;"></rect>
      <path d="M1 6V1M47 59h12" style="fill:none;stroke:#565a5c;stroke-linecap:round;stroke-linejoin:round;stroke-width:2px;"></path>
    </g>
  </g>
</svg>
