<svg width="60" height="60" xmlns="http://www.w3.org/2000/svg" viewBox="0 0 60 60">
  <path fill="#14c5db" d="M18.69 16.62A27.76 27.76 0 0 0 29 18.97V3.02a33.98 33.98 0 0 0-10.31 13.6zm-.72 1.86a35.712 35.712 0 0 0-1.47 5.69 34.37 34.37 0 0 0-.49 4.83H29v-8.02a29.733 29.733 0 0 1-11.03-2.5zm0 0a35.712 35.712 0 0 0-1.47 5.69 34.37 34.37 0 0 0-.49 4.83H29v-8.02a29.733 29.733 0 0 1-11.03-2.5zm.72-1.86A27.76 27.76 0 0 0 29 18.97V3.02a33.98 33.98 0 0 0-10.31 13.6zm0 0A27.76 27.76 0 0 0 29 18.97V3.02a33.98 33.98 0 0 0-10.31 13.6zm-.72 1.86a35.712 35.712 0 0 0-1.47 5.69 34.37 34.37 0 0 0-.49 4.83H29v-8.02a29.733 29.733 0 0 1-11.03-2.5zm20.1-15.29l-.01-.01c-.02 0-.03-.01-.05-.01a26.285 26.285 0 0 0-4.87-.99 35.937 35.937 0 0 1 6.17 6.74 36.587 36.587 0 0 1 3.81 6.81 27.163 27.163 0 0 0 6.09-4.37 11.63 11.63 0 0 0 .86-.86 28.006 28.006 0 0 0-12-7.31zm-.4 6.89A33.86 33.86 0 0 0 31 3.02v15.95a27.76 27.76 0 0 0 10.31-2.35 34.745 34.745 0 0 0-3.64-6.54zm4.37 8.4A30.028 30.028 0 0 1 31 20.98V29h13a33.658 33.658 0 0 0-1.96-10.52zm9.38-6.49a12.44 12.44 0 0 1-.97.95 29.18 29.18 0 0 1-6.59 4.66A35.643 35.643 0 0 1 46 29h11.97a27.8 27.8 0 0 0-6.55-17.01zM14.01 31H2.03a27.79 27.79 0 0 0 6.54 17c.42-.42.84-.83 1.27-1.21a29.318 29.318 0 0 1 6.31-4.39A35.97 35.97 0 0 1 14.01 31zM46 31a36.218 36.218 0 0 1-.52 5.17 37.022 37.022 0 0 1-1.63 6.23 29.252 29.252 0 0 1 6.59 4.66c.33.3.66.62.98.95A27.8 27.8 0 0 0 57.97 31zm3.21 17.65a26.68 26.68 0 0 0-6.09-4.38 36.17 36.17 0 0 1-9.99 13.56 27.376 27.376 0 0 0 4.89-1.01c.02-.01.04-.01.06-.02h.01a27.785 27.785 0 0 0 11.98-7.3 9.846 9.846 0 0 0-.86-.85zM31 31v8.05a29.805 29.805 0 0 1 11.03 2.48 35.078 35.078 0 0 0 1.48-5.7A34.38 34.38 0 0 0 44 31zm0 10.04v15.94a34.018 34.018 0 0 0 10.31-13.59A27.62 27.62 0 0 0 31 41.04zM20.7 51.08a35.745 35.745 0 0 1-3.8-6.82 27.235 27.235 0 0 0-5.72 4.01c-.43.39-.85.8-1.26 1.22a27.944 27.944 0 0 0 16.95 8.34 36.3 36.3 0 0 1-6.17-6.75zm-2-7.7A34.44 34.44 0 0 0 29 56.98V41.03a27.9 27.9 0 0 0-10.3 2.35zM16.01 31a33.666 33.666 0 0 0 1.96 10.53A29.71 29.71 0 0 1 29 39.04V31zM9.92 10.51a27.875 27.875 0 0 0 6.96 5.23 36.15 36.15 0 0 1 10-13.57 27.97 27.97 0 0 0-16.96 8.34zm-1.34 1.48A27.8 27.8 0 0 0 2.03 29h11.98a34.808 34.808 0 0 1 .51-5.17 37.022 37.022 0 0 1 1.63-6.23 29.364 29.364 0 0 1-7.57-5.61zm10.11 4.63A27.76 27.76 0 0 0 29 18.97V3.02a33.98 33.98 0 0 0-10.31 13.6zm-.72 1.86a35.712 35.712 0 0 0-1.47 5.69 34.37 34.37 0 0 0-.49 4.83H29v-8.02a29.733 29.733 0 0 1-11.03-2.5zm0 0a35.712 35.712 0 0 0-1.47 5.69 34.37 34.37 0 0 0-.49 4.83H29v-8.02a29.733 29.733 0 0 1-11.03-2.5zm.72-1.86A27.76 27.76 0 0 0 29 18.97V3.02a33.98 33.98 0 0 0-10.31 13.6zm0 0A27.76 27.76 0 0 0 29 18.97V3.02a33.98 33.98 0 0 0-10.31 13.6zm-.72 1.86a35.712 35.712 0 0 0-1.47 5.69 34.37 34.37 0 0 0-.49 4.83H29v-8.02a29.733 29.733 0 0 1-11.03-2.5zm.72-1.86A27.76 27.76 0 0 0 29 18.97V3.02a33.98 33.98 0 0 0-10.31 13.6z"/>
  <path opacity=".4" fill="#fff" d="M50.07 10.5a11.63 11.63 0 0 1-.86.86 28.857 28.857 0 0 0-11.14-8.17 28.006 28.006 0 0 1 12 7.31zM57.97 29h-1.98a28.8 28.8 0 0 0-5.54-16.06 12.44 12.44 0 0 0 .97-.95A27.8 27.8 0 0 1 57.97 29zM50.07 49.5a27.785 27.785 0 0 1-11.98 7.3 29.014 29.014 0 0 0 11.12-8.15 9.846 9.846 0 0 1 .86.85zM57.97 31a27.8 27.8 0 0 1-6.55 17.01c-.32-.33-.65-.65-.98-.95a28.828 28.828 0 0 0 5.53-15.57c.01-.16.02-.33.02-.49z"/>
  <path fill="#565a5c" d="M52.3 9.96c-.07-.08-.14-.16-.22-.24A29.942 29.942 0 0 0 8 9.63c-.13.14-.39.44-.4.45a29.906 29.906 0 0 0 0 39.84c.01.01.01.02.02.03.13.14.25.28.38.42a29.934 29.934 0 0 0 44-.01c.01-.01.03-.01.04-.03.1-.11.2-.22.3-.34 0 0 .02-.01.02-.02a29.924 29.924 0 0 0-.06-40.01zM26.88 2.17a36.15 36.15 0 0 0-10 13.57 27.875 27.875 0 0 1-6.96-5.23 27.97 27.97 0 0 1 16.96-8.34zm-18.3 9.82a29.364 29.364 0 0 0 7.57 5.61 37.022 37.022 0 0 0-1.63 6.23 34.808 34.808 0 0 0-.51 5.17H2.03a27.8 27.8 0 0 1 6.55-17.01zM8.57 48a27.79 27.79 0 0 1-6.54-17h11.98a35.97 35.97 0 0 0 2.14 11.4 29.318 29.318 0 0 0-6.31 4.39c-.43.38-.85.79-1.27 1.21zm1.35 1.49c.41-.42.83-.83 1.26-1.22a27.235 27.235 0 0 1 5.72-4.01 35.745 35.745 0 0 0 3.8 6.82 36.3 36.3 0 0 0 6.17 6.75 27.944 27.944 0 0 1-16.95-8.34zM29 56.98a34.44 34.44 0 0 1-10.3-13.6A27.9 27.9 0 0 1 29 41.03zm0-17.94a29.71 29.71 0 0 0-11.03 2.49A33.666 33.666 0 0 1 16.01 31H29zM29 29H16.01a34.37 34.37 0 0 1 .49-4.83 35.712 35.712 0 0 1 1.47-5.69A29.733 29.733 0 0 0 29 20.98zm0-10.03a27.76 27.76 0 0 1-10.31-2.35A33.98 33.98 0 0 1 29 3.02zm22.42-6.98A27.8 27.8 0 0 1 57.97 29H46a35.643 35.643 0 0 0-2.14-11.4 29.18 29.18 0 0 0 6.59-4.66 12.44 12.44 0 0 0 .97-.95zM38.01 3.17c.02 0 .03.01.05.01l.01.01a28.006 28.006 0 0 1 12 7.31 11.63 11.63 0 0 1-.86.86 27.163 27.163 0 0 1-6.09 4.37 36.587 36.587 0 0 0-3.81-6.81 35.937 35.937 0 0 0-6.17-6.74 26.285 26.285 0 0 1 4.87.99zM31 3.02a33.86 33.86 0 0 1 6.67 7.06 34.745 34.745 0 0 1 3.64 6.54A27.76 27.76 0 0 1 31 18.97zm0 17.96a30.028 30.028 0 0 0 11.04-2.5A33.658 33.658 0 0 1 44 29H31zM31 31h13a34.38 34.38 0 0 1-.49 4.83 35.078 35.078 0 0 1-1.48 5.7A29.805 29.805 0 0 0 31 39.05zm0 10.04a27.62 27.62 0 0 1 10.31 2.35A34.018 34.018 0 0 1 31 56.98zm7.09 15.76h-.01c-.02.01-.04.01-.06.02a27.376 27.376 0 0 1-4.89 1.01 36.17 36.17 0 0 0 9.99-13.56 26.68 26.68 0 0 1 6.09 4.38 9.846 9.846 0 0 1 .86.85 27.785 27.785 0 0 1-11.98 7.3zm13.33-8.79c-.32-.33-.65-.65-.98-.95a29.252 29.252 0 0 0-6.59-4.66 37.022 37.022 0 0 0 1.63-6.23A36.218 36.218 0 0 0 46 31h11.97a27.8 27.8 0 0 1-6.55 17.01z"/>
  <path fill="#565a5c" d="M8 50.37a1.436 1.436 0 0 1-.15-.11.963.963 0 0 1-.23-.31c.13.14.25.28.38.42zM52.34 49.99a.793.793 0 0 1-.19.26.444.444 0 0 1-.11.08c.1-.11.2-.22.3-.34z"/>
  <path opacity=".1" d="M28 42v5a2.006 2.006 0 0 1-2 2h-2v8a1 1 0 0 1-2 0v-8h-3v6.12A2.88 2.88 0 0 1 16.12 58h-.24a2.88 2.88 0 0 1-2.29-1.13 1.47 1.47 0 0 1-.09-.13A2.878 2.878 0 0 1 11.12 58h-.24A2.88 2.88 0 0 1 8 55.12V49H5v8a1 1 0 0 1-2 0v-8H2a2.006 2.006 0 0 1-2-2v-5a2.006 2.006 0 0 1 2-2h1.43a11.065 11.065 0 0 1 6.81-7.32l.01-.01a6 6 0 1 1 7.5 0l.01.01A11.065 11.065 0 0 1 24.57 40H26a2.006 2.006 0 0 1 2 2zM60 42v5a2.006 2.006 0 0 1-2 2h-2v8a1 1 0 0 1-2 0v-8h-3v6.12A2.88 2.88 0 0 1 48.12 58h-.24a2.88 2.88 0 0 1-2.29-1.13 1.47 1.47 0 0 1-.09-.13A2.878 2.878 0 0 1 43.12 58h-.24A2.88 2.88 0 0 1 40 55.12V49h-3v8a1 1 0 0 1-2 0v-8h-1a2.006 2.006 0 0 1-2-2v-5a2.006 2.006 0 0 1 2-2h1.43a11.065 11.065 0 0 1 6.81-7.32l.01-.01a6 6 0 1 1 7.5 0l.01.01A11.065 11.065 0 0 1 56.57 40H58a2.006 2.006 0 0 1 2 2z"/>
  <rect fill="#e57231" y="42" width="28" height="9" rx="2" ry="2"/>
  <path fill="#70d070" d="M17 51v6.12a.875.875 0 0 1-.88.88h-.24a.875.875 0 0 1-.88-.88V51z"/>
  <path opacity=".4" fill="#fff" d="M24 44h2v5h-2z"/>
  <path opacity=".1" d="M22.61 42H5.25a8.653 8.653 0 0 1 1.036-2h15.362a8.755 8.755 0 0 1 .615 1.19c.01.01.01.03.02.04a6.464 6.464 0 0 1 .328.77z"/>
  <path fill="#70d070" d="M12 51v6.12a.875.875 0 0 1-.88.88h-.24a.875.875 0 0 1-.88-.88V51zM22.47 42H5.53a8.732 8.732 0 0 1 1.01-2A9.037 9.037 0 0 1 14 36a8.716 8.716 0 0 1 1.46.12 9.062 9.062 0 0 1 6 3.88 8.657 8.657 0 0 1 .67 1.19c.01.01.01.03.02.04a6.55 6.55 0 0 1 .32.77z"/>
  <path opacity=".4" fill="#fff" d="M22.42 42h-2a9.45 9.45 0 0 0-.89-2 9.946 9.946 0 0 0-4.07-3.88 9.062 9.062 0 0 1 6 3.88 8.657 8.657 0 0 1 .67 1.19c.01.01.01.03.02.04.1.25.19.51.27.77z"/>
  <path fill="#a9e3a9" d="M18 30a3.935 3.935 0 0 1-.55 2.01A3.98 3.98 0 0 1 14.03 34h-.13a4 4 0 0 1-2.54-7 4.042 4.042 0 0 1 2.54-1h.12a4.02 4.02 0 0 1 2.62 1A4.026 4.026 0 0 1 18 30z"/>
  <path opacity=".4" fill="#fff" d="M18 30a4.824 4.824 0 0 1-.1.99 4.35 4.35 0 0 1-.33 1.02A3.976 3.976 0 0 1 14.12 34h-.09a5.08 5.08 0 0 0 1.88-3.01A5.034 5.034 0 0 0 14.02 26h.1a4 4 0 0 1 2.64 1 3.912 3.912 0 0 1 .83 1.02 5.14 5.14 0 0 1 .332 1.236A3.95 3.95 0 0 1 18 30z"/>
  <path opacity=".1" d="M9 51h8v2H9z"/>
  <path fill="#565a5c" d="M26 42h-1.43a11.065 11.065 0 0 0-6.81-7.32l-.01-.01a6 6 0 1 0-7.5 0l-.01.01A11.065 11.065 0 0 0 3.43 42H2a2.006 2.006 0 0 0-2 2v5a2.006 2.006 0 0 0 2 2h1v8a1 1 0 0 0 2 0v-8h3v6.12A2.88 2.88 0 0 0 10.88 60h.24a2.878 2.878 0 0 0 2.38-1.26 1.47 1.47 0 0 0 .09.13A2.88 2.88 0 0 0 15.88 60h.24A2.88 2.88 0 0 0 19 57.12V51h3v8a1 1 0 0 0 2 0v-8h2a2.006 2.006 0 0 0 2-2v-5a2.006 2.006 0 0 0-2-2zM10 29.99a4 4 0 1 1 4 4 4 4 0 0 1-4-4zM6.54 40A9.037 9.037 0 0 1 14 36a8.715 8.715 0 0 1 1.46.12 9.062 9.062 0 0 1 6 3.88 8.663 8.663 0 0 1 .67 1.19c.01.01.01.03.02.04a6.55 6.55 0 0 1 .32.77H5.53a8.73 8.73 0 0 1 1.01-2zM12 57.12a.875.875 0 0 1-.88.88h-.24a.875.875 0 0 1-.88-.88V51h2zm5 0a.875.875 0 0 1-.88.88h-.24a.875.875 0 0 1-.88-.88V51h2zM26 49H2v-5h24z"/>
  <rect fill="#e57231" x="32" y="42" width="28" height="9" rx="2" ry="2"/>
  <path fill="#b497c4" d="M49 51v6.12a.875.875 0 0 1-.88.88h-.24a.875.875 0 0 1-.88-.88V51z"/>
  <path opacity=".4" fill="#fff" d="M56 44h2v5h-2z"/>
  <path opacity=".1" d="M54.61 42H37.25a8.653 8.653 0 0 1 1.036-2h15.362a8.755 8.755 0 0 1 .615 1.19c.01.01.01.03.02.04a6.464 6.464 0 0 1 .328.77z"/>
  <path fill="#b497c4" d="M44 51v6.12a.875.875 0 0 1-.88.88h-.24a.875.875 0 0 1-.88-.88V51zM54.47 42H37.53a8.732 8.732 0 0 1 1.01-2A9.037 9.037 0 0 1 46 36a8.716 8.716 0 0 1 1.46.12 9.062 9.062 0 0 1 6 3.88 8.657 8.657 0 0 1 .67 1.19c.01.01.01.03.02.04a6.55 6.55 0 0 1 .32.77z"/>
  <path opacity=".4" fill="#fff" d="M54.42 42h-2a9.45 9.45 0 0 0-.89-2 9.946 9.946 0 0 0-4.07-3.88 9.062 9.062 0 0 1 6 3.88 8.657 8.657 0 0 1 .67 1.19c.01.01.01.03.02.04.1.25.19.51.27.77z"/>
  <path fill="#b497c4" d="M50 30a3.935 3.935 0 0 1-.55 2.01A3.98 3.98 0 0 1 46.03 34h-.13a4 4 0 0 1-2.54-7 4.042 4.042 0 0 1 2.54-1h.12a4.02 4.02 0 0 1 2.62 1A4.026 4.026 0 0 1 50 30z"/>
  <path opacity=".4" fill="#fff" d="M50 30a4.824 4.824 0 0 1-.1.99 4.35 4.35 0 0 1-.33 1.02A3.976 3.976 0 0 1 46.12 34h-.09a5.08 5.08 0 0 0 1.88-3.01A5.034 5.034 0 0 0 46.02 26h.1a4 4 0 0 1 2.64 1 3.912 3.912 0 0 1 .83 1.02 5.14 5.14 0 0 1 .332 1.236A3.95 3.95 0 0 1 50 30z"/>
  <path opacity=".1" d="M41 51h8v2h-8z"/>
  <path fill="#565a5c" d="M58 42h-1.43a11.065 11.065 0 0 0-6.81-7.32l-.01-.01a6 6 0 1 0-7.5 0l-.01.01A11.065 11.065 0 0 0 35.43 42H34a2.006 2.006 0 0 0-2 2v5a2.006 2.006 0 0 0 2 2h1v8a1 1 0 0 0 2 0v-8h3v6.12A2.88 2.88 0 0 0 42.88 60h.24a2.878 2.878 0 0 0 2.38-1.26 1.47 1.47 0 0 0 .09.13A2.88 2.88 0 0 0 47.88 60h.24A2.88 2.88 0 0 0 51 57.12V51h3v8a1 1 0 0 0 2 0v-8h2a2.006 2.006 0 0 0 2-2v-5a2.006 2.006 0 0 0-2-2zM42 29.99a4 4 0 1 1 4 4 4 4 0 0 1-4-4zM38.54 40A9.037 9.037 0 0 1 46 36a8.715 8.715 0 0 1 1.46.12 9.062 9.062 0 0 1 6 3.88 8.663 8.663 0 0 1 .67 1.19c.01.01.01.03.02.04a6.55 6.55 0 0 1 .32.77H37.53a8.73 8.73 0 0 1 1.01-2zM44 57.12a.875.875 0 0 1-.88.88h-.24a.875.875 0 0 1-.88-.88V51h2zm5 0a.875.875 0 0 1-.88.88h-.24a.875.875 0 0 1-.88-.88V51h2zM58 49H34v-5h24z"/>
</svg>
